<svg width="32" height="32" viewBox="0 0 32 32" fill="none" xmlns="http://www.w3.org/2000/svg">
<circle cx="16" cy="16" r="16" fill="#D9D9D9"/>
<path d="M17.4014 3C17.7842 3 18.1255 3.23797 18.2541 3.5944L19.1716 6.13779C19.501 6.21944 19.7841 6.30237 20.0225 6.38767C20.2838 6.48111 20.6203 6.62361 21.0371 6.81659L23.174 5.68574C23.5324 5.4961 23.9746 5.56586 24.2555 5.85633L26.1348 7.79969C26.3842 8.05762 26.4549 8.43741 26.3146 8.7662L25.3117 11.1163C25.4788 11.4213 25.6121 11.682 25.7125 11.9005C25.822 12.1389 25.9565 12.4671 26.1178 12.8886L28.4544 13.889C28.8046 14.0389 29.0221 14.3899 28.9982 14.7665L28.827 17.464C28.8043 17.8205 28.5695 18.1296 28.2294 18.2503L26.0164 19.036C25.9532 19.3416 25.887 19.604 25.8169 19.8251C25.7348 20.0841 25.6058 20.4172 25.4285 20.8301L26.541 23.2888C26.7012 23.6428 26.6126 24.0586 26.3215 24.3185L24.208 26.206C23.9244 26.4593 23.5106 26.5092 23.1737 26.3308L20.9948 25.1767C20.6121 25.3761 20.2618 25.5352 19.9422 25.654C19.6566 25.7602 19.3391 25.8788 18.9897 26.0098L18.145 28.3501C18.0189 28.6995 17.6879 28.9357 17.3129 28.9441L14.8421 28.9998C14.4569 29.0082 14.1084 28.7749 13.9735 28.418L12.9776 25.7832C12.5202 25.6233 12.186 25.4989 11.9687 25.4074C11.7628 25.3207 11.4961 25.1937 11.1648 25.0252L8.69648 26.0812C8.36351 26.2237 7.97668 26.1558 7.7136 25.9088L5.88739 24.1941C5.60771 23.9315 5.52702 23.5225 5.68638 23.1752L6.74819 20.8612C6.58822 20.5472 6.45744 20.2689 6.35552 20.0246C6.24815 19.7674 6.11821 19.417 5.96412 18.9702L3.63922 18.2634C3.24761 18.1444 2.98569 17.7801 3.00061 17.3753L3.09262 14.8781C3.10482 14.5472 3.30072 14.25 3.60193 14.1054L6.04326 12.9336C6.15588 12.5189 6.25503 12.1964 6.34315 11.9605C6.43042 11.7269 6.56581 11.4206 6.75108 11.0358L5.69097 8.79791C5.52606 8.44979 5.60438 8.03643 5.88555 7.77094L7.71176 6.04656C7.97172 5.8011 8.35393 5.73096 8.68566 5.86785L11.1537 6.88635C11.4271 6.70619 11.6742 6.55753 11.8968 6.43992C12.1641 6.29869 12.5194 6.15012 12.9689 5.98967L13.8263 3.59624C13.9543 3.23886 14.2961 3 14.6796 3H17.4014ZM16.0308 12.124C13.8643 12.124 12.108 13.8606 12.108 16.0027C12.108 18.1448 13.8643 19.8814 16.0308 19.8814C18.1973 19.8814 19.9537 18.1448 19.9537 16.0027C19.9537 13.8606 18.1973 12.124 16.0308 12.124Z" fill="white"/>
<path d="M22 16C22 19.3137 19.3137 22 16 22C12.6863 22 10 19.3137 10 16C10 12.6863 12.6863 10 16 10C19.3137 10 22 12.6863 22 16Z" fill="white"/>
<path d="M22.0627 12.0609C22.0627 13.2693 21.0831 14.2488 19.8748 14.2488C18.6665 14.2488 17.6869 13.2693 17.6869 12.0609C17.6869 10.8526 18.6665 9.87305 19.8748 9.87305C21.0831 9.87305 22.0627 10.8526 22.0627 12.0609Z" fill="#A2A6B5"/>
<path d="M24.2506 19.9359C24.2506 21.1443 22.6833 22.1238 20.75 22.1238C18.8166 22.1238 17.2493 21.1443 17.2493 19.9359C17.2493 18.7276 18.8166 17.748 20.75 17.748C22.6833 17.748 24.2506 18.7276 24.2506 19.9359Z" fill="#A2A6B5"/>
<path d="M18.5621 12.0611C18.5621 13.7528 17.1907 15.1241 15.499 15.1241C13.8073 15.1241 12.436 13.7528 12.436 12.0611C12.436 10.3694 13.8073 8.99805 15.499 8.99805C17.1907 8.99805 18.5621 10.3694 18.5621 12.0611Z" fill="#1C274C"/>
<path opacity="0.4" d="M8.93536 12.0609C8.93536 13.2693 9.91492 14.2488 11.1233 14.2488C12.3316 14.2488 13.3111 13.2693 13.3111 12.0609C13.3111 10.8526 12.3316 9.87305 11.1233 9.87305C9.91492 9.87305 8.93536 10.8526 8.93536 12.0609Z" fill="#1C274C"/>
<path d="M20.75 19.9361C20.75 21.6278 18.399 22.9991 15.499 22.9991C12.599 22.9991 10.2481 21.6278 10.2481 19.9361C10.2481 18.2444 12.599 16.873 15.499 16.873C18.399 16.873 20.75 18.2444 20.75 19.9361Z" fill="#1C274C"/>
<path opacity="0.4" d="M6.74747 19.9359C6.74747 21.1443 8.31475 22.1238 10.2481 22.1238C12.1814 22.1238 13.7487 21.1443 13.7487 19.9359C13.7487 18.7276 12.1814 17.748 10.2481 17.748C8.31475 17.748 6.74747 18.7276 6.74747 19.9359Z" fill="#1C274C"/>
</svg>
