<svg xmlns="http://www.w3.org/2000/svg" width="38" height="38" viewBox="0 0 38 38">
  <g id="all-backward" transform="translate(-940 -662)">
    <rect id="Rectangle_699" data-name="Rectangle 699" width="38" height="38" transform="translate(940 662)" fill="#5f63f2"/>
    <g id="Group_4536" data-name="Group 4536" transform="translate(4.413 13.943)">
      <g id="_150-arrow-point-to-left" data-name="150-arrow-point-to-left" transform="translate(946.587 659.057)">
        <path id="Path_429" data-name="Path 429" d="M97.427,7.159,104.259.327A1.113,1.113,0,1,1,105.834,1.9L99.786,7.943l6.044,6.044a1.113,1.113,0,1,1-1.575,1.572L97.427,8.731a1.11,1.11,0,0,1-.327-.788A1.1,1.1,0,0,1,97.427,7.159Z" transform="translate(-97.1 0)" fill="#fff"/>
      </g>
      <g id="_150-arrow-point-to-left-2" data-name="150-arrow-point-to-left" transform="translate(952.587 659.057)">
        <path id="Path_429-2" data-name="Path 429" d="M97.427,7.159,104.259.327A1.113,1.113,0,1,1,105.834,1.9L99.786,7.943l6.044,6.044a1.113,1.113,0,1,1-1.575,1.572L97.427,8.731a1.11,1.11,0,0,1-.327-.788A1.1,1.1,0,0,1,97.427,7.159Z" transform="translate(-97.1 0)" fill="#fff"/>
      </g>
    </g>
  </g>
</svg>
