<svg width="34" height="34" viewBox="0 0 34 34" fill="none" xmlns="http://www.w3.org/2000/svg">
<path d="M31.168 8.50065V11.929C31.168 14.1673 29.7513 15.584 27.513 15.584H22.668V5.68148C22.668 4.10898 23.9571 2.83398 25.5296 2.83398C27.0738 2.84815 28.4905 3.47148 29.5105 4.49148C30.5305 5.52565 31.168 6.94232 31.168 8.50065Z" stroke="#EC9A0C" stroke-width="2.5" stroke-miterlimit="10" stroke-linecap="round" stroke-linejoin="round"/>
<path d="M2.83203 9.91732V29.7507C2.83203 30.9265 4.16371 31.5923 5.09871 30.884L7.52119 29.0706C8.08786 28.6456 8.8812 28.7023 9.3912 29.2123L11.7429 31.5782C12.2954 32.1307 13.202 32.1307 13.7545 31.5782L16.1345 29.1982C16.6304 28.7023 17.4237 28.6456 17.9762 29.0706L20.3987 30.884C21.3337 31.5782 22.6654 30.9123 22.6654 29.7507V5.66732C22.6654 4.10898 23.9404 2.83398 25.4987 2.83398H9.91536H8.4987C4.2487 2.83398 2.83203 5.36982 2.83203 8.50065V9.91732Z" stroke="#EC9A0C" stroke-width="2.5" stroke-miterlimit="10" stroke-linecap="round" stroke-linejoin="round"/>
<path d="M8.85547 14.166H16.6471" stroke="#EC9A0C" stroke-width="2.5" stroke-linecap="round" stroke-linejoin="round"/>
<path d="M12.75 18.0632V10.2715" stroke="#EC9A0C" stroke-width="2.5" stroke-linecap="round" stroke-linejoin="round"/>
</svg>
