<svg width="34" height="34" viewBox="0 0 34 34" fill="none" xmlns="http://www.w3.org/2000/svg">
<path d="M25.5541 19.1971C24.9591 19.778 24.6191 20.6138 24.7041 21.5063C24.8316 23.0363 26.2341 24.1555 27.7641 24.1555H30.4557V25.8413C30.4557 28.7738 28.0616 31.168 25.1291 31.168H10.8066C11.2457 30.7996 11.6282 30.3463 11.9257 29.8363C12.4499 28.9863 12.7474 27.9805 12.7474 26.918C12.7474 23.7871 10.2116 21.2513 7.08073 21.2513C5.74906 21.2513 4.51656 21.7188 3.53906 22.498V16.3071C3.53906 13.3746 5.93323 10.9805 8.86573 10.9805H25.1291C28.0616 10.9805 30.4557 13.3746 30.4557 16.3071V18.3472H27.5941C26.8007 18.3472 26.0782 18.6588 25.5541 19.1971Z" stroke="#DC5552" stroke-width="2.5" stroke-linecap="round" stroke-linejoin="round"/>
<path d="M3.53906 17.5813V11.1072C3.53906 9.42141 4.57323 7.91968 6.14573 7.32468L17.3941 3.07468C19.1507 2.40885 21.0349 3.71222 21.0349 5.59639V10.9797" stroke="#DC5552" stroke-width="2.5" stroke-linecap="round" stroke-linejoin="round"/>
<path d="M31.9577 19.7887V22.7071C31.9577 23.4863 31.3343 24.1237 30.541 24.152H27.7643C26.2343 24.152 24.8318 23.0329 24.7043 21.5029C24.6193 20.6104 24.9593 19.7745 25.5543 19.1937C26.0785 18.6554 26.801 18.3438 27.5943 18.3438H30.541C31.3343 18.3721 31.9577 19.0095 31.9577 19.7887Z" stroke="#DC5552" stroke-width="2.5" stroke-linecap="round" stroke-linejoin="round"/>
<path d="M9.91797 17H19.8346" stroke="#DC5552" stroke-width="2.5" stroke-linecap="round" stroke-linejoin="round"/>
<path d="M12.7474 26.9167C12.7474 27.9792 12.4499 28.985 11.9257 29.835C11.6282 30.345 11.2457 30.7983 10.8066 31.1667C9.8149 32.0592 8.51156 32.5833 7.08073 32.5833C5.0124 32.5833 3.21323 31.4783 2.23573 29.835C1.71157 28.985 1.41406 27.9792 1.41406 26.9167C1.41406 25.1317 2.23573 23.5308 3.53906 22.4967C4.51656 21.7175 5.74906 21.25 7.08073 21.25C10.2116 21.25 12.7474 23.7858 12.7474 26.9167Z" stroke="#DC5552" stroke-width="2.5" stroke-miterlimit="10" stroke-linecap="round" stroke-linejoin="round"/>
<path d="M8.59708 28.3895L5.59375 25.4004" stroke="#DC5552" stroke-width="2.5" stroke-miterlimit="10" stroke-linecap="round" stroke-linejoin="round"/>
<path d="M8.56974 25.4414L5.56641 28.4306" stroke="#DC5552" stroke-width="2.5" stroke-miterlimit="10" stroke-linecap="round" stroke-linejoin="round"/>
</svg>
