<svg width="34" height="34" viewBox="0 0 34 34" fill="none" xmlns="http://www.w3.org/2000/svg">
<path d="M12.7474 26.9167C12.7474 27.9792 12.4499 28.985 11.9257 29.835C10.9482 31.4783 9.14906 32.5833 7.08073 32.5833C5.0124 32.5833 3.21323 31.4783 2.23573 29.835C1.71157 28.985 1.41406 27.9792 1.41406 26.9167C1.41406 23.7858 3.9499 21.25 7.08073 21.25C10.2116 21.25 12.7474 23.7858 12.7474 26.9167Z" stroke="#4AAE26" stroke-width="2.5" stroke-miterlimit="10" stroke-linecap="round" stroke-linejoin="round"/>
<path d="M4.87109 26.9156L6.2736 28.3181L9.2911 25.5273" stroke="#4AAE26" stroke-width="2.5" stroke-linecap="round" stroke-linejoin="round"/>
<path d="M25.1462 9.98811C24.8062 9.93144 24.452 9.91729 24.0837 9.91729H9.91703C9.52037 9.91729 9.13786 9.94562 8.76953 10.0023C8.96786 9.60562 9.2512 9.23733 9.5912 8.89733L14.1954 4.27898C16.1362 2.35232 19.2812 2.35232 21.222 4.27898L23.7012 6.78643C24.6079 7.67893 25.0895 8.81227 25.1462 9.98811Z" stroke="#4AAE26" stroke-width="2.5" stroke-linecap="round" stroke-linejoin="round"/>
<path d="M31.1654 16.9993V24.0827C31.1654 28.3327 28.332 31.166 24.082 31.166H10.8079C11.247 30.7977 11.6295 30.3443 11.927 29.8343C12.4512 28.9843 12.7487 27.9785 12.7487 26.916C12.7487 23.7852 10.2129 21.2493 7.08203 21.2493C5.38203 21.2493 3.8662 22.0002 2.83203 23.176V16.9993C2.83203 13.146 5.15536 10.4543 8.76786 10.001C9.1362 9.94435 9.5187 9.91602 9.91536 9.91602H24.082C24.4504 9.91602 24.8045 9.93016 25.1445 9.98683C28.7995 10.4118 31.1654 13.1177 31.1654 16.9993Z" stroke="#4AAE26" stroke-width="2.5" stroke-linecap="round" stroke-linejoin="round"/>
<path d="M31.1654 17.709H26.9154C25.357 17.709 24.082 18.984 24.082 20.5423C24.082 22.1007 25.357 23.3757 26.9154 23.3757H31.1654" stroke="#4AAE26" stroke-width="2.5" stroke-linecap="round" stroke-linejoin="round"/>
</svg>
