<svg width="34" height="34" viewBox="0 0 34 34" fill="none" xmlns="http://www.w3.org/2000/svg">
<path d="M25.4973 10.142C25.4123 10.1279 25.3132 10.1279 25.2282 10.142C23.2732 10.0712 21.7148 8.47037 21.7148 6.48703C21.7148 4.4612 23.344 2.83203 25.3698 2.83203C27.3957 2.83203 29.0248 4.47537 29.0248 6.48703C29.0107 8.47037 27.4523 10.0712 25.4973 10.142Z" stroke="#4A93EE" stroke-width="2.5" stroke-linecap="round" stroke-linejoin="round"/>
<path d="M24.0386 20.4556C25.9794 20.7814 28.1186 20.4414 29.6203 19.4356C31.6178 18.1039 31.6178 15.9223 29.6203 14.5906C28.1044 13.5848 25.9369 13.2448 23.9961 13.5848" stroke="#4A93EE" stroke-width="2.5" stroke-linecap="round" stroke-linejoin="round"/>
<path d="M8.45719 10.142C8.54219 10.1279 8.64135 10.1279 8.72635 10.142C10.6814 10.0712 12.2397 8.47037 12.2397 6.48703C12.2397 4.4612 10.6105 2.83203 8.58469 2.83203C6.55886 2.83203 4.92969 4.47537 4.92969 6.48703C4.94385 8.47037 6.50219 10.0712 8.45719 10.142Z" stroke="#4A93EE" stroke-width="2.5" stroke-linecap="round" stroke-linejoin="round"/>
<path d="M9.91573 20.4556C7.97489 20.7814 5.83573 20.4414 4.33406 19.4356C2.33656 18.1039 2.33656 15.9223 4.33406 14.5906C5.8499 13.5848 8.01739 13.2448 9.95823 13.5848" stroke="#4A93EE" stroke-width="2.5" stroke-linecap="round" stroke-linejoin="round"/>
<path d="M16.9934 20.728C16.9084 20.7138 16.8093 20.7138 16.7243 20.728C14.7693 20.6571 13.2109 19.0563 13.2109 17.073C13.2109 15.0471 14.8401 13.418 16.8659 13.418C18.8918 13.418 20.5209 15.0613 20.5209 17.073C20.5068 19.0563 18.9484 20.6713 16.9934 20.728Z" stroke="#4A93EE" stroke-width="2.5" stroke-linecap="round" stroke-linejoin="round"/>
<path d="M12.8731 25.1907C10.8756 26.5224 10.8756 28.704 12.8731 30.0357C15.1398 31.5515 18.8515 31.5515 21.1181 30.0357C23.1156 28.704 23.1156 26.5224 21.1181 25.1907C18.8656 23.689 15.1398 23.689 12.8731 25.1907Z" stroke="#4A93EE" stroke-width="2.5" stroke-linecap="round" stroke-linejoin="round"/>
</svg>
