<svg width="31" height="31" viewBox="0 0 31 31" fill="none" xmlns="http://www.w3.org/2000/svg">
<path opacity="0.15" d="M15.5 31C24.0604 31 31 24.0604 31 15.5C31 6.93959 24.0604 0 15.5 0C6.93959 0 0 6.93959 0 15.5C0 24.0604 6.93959 31 15.5 31Z" fill="#28A745"/>
<g clip-path="url(#clip0_683_1481)">
<path d="M16.8478 15.8556L15.7053 17.5132L15.0549 16.9637C14.8241 16.7688 14.4791 16.7978 14.2842 17.0286C14.0892 17.2593 14.1183 17.6043 14.349 17.7992L15.4603 18.7381C15.5596 18.8219 15.6848 18.8672 15.8132 18.8672C15.8373 18.8672 15.8616 18.8656 15.8857 18.8624C16.0387 18.8419 16.1759 18.7578 16.2635 18.6307L17.7484 16.4763C17.9198 16.2276 17.8571 15.8871 17.6084 15.7157C17.3598 15.5443 17.0192 15.6069 16.8478 15.8556Z" fill="#28A745"/>
<path d="M20.8125 8.22107H11.1875C9.98131 8.22107 9 9.20238 9 10.4086V19.5914C9 20.7976 9.98131 21.7789 11.1875 21.7789H20.8125C22.0187 21.7789 23 20.7976 23 19.5914V19.0674C23 18.7653 22.7552 18.5205 22.4531 18.5205C22.1511 18.5205 21.9062 18.7653 21.9062 19.0674V19.5914C21.9062 20.1945 21.4156 20.6852 20.8125 20.6852H11.1875C10.5844 20.6852 10.0938 20.1945 10.0938 19.5914V13.6813H21.9062V16.333C21.9062 16.635 22.1511 16.8799 22.4531 16.8799C22.7552 16.8799 23 16.635 23 16.333V10.4086C23 9.20238 22.0187 8.22107 20.8125 8.22107ZM10.0938 12.5876V10.4086C10.0938 9.80548 10.5844 9.31482 11.1875 9.31482H20.8125C21.4156 9.31482 21.9062 9.80548 21.9062 10.4086V12.5876H10.0938Z" fill="#28A745"/>
<path d="M15.1992 10.8443C15.1581 10.6256 14.9766 10.4525 14.7594 10.413C14.5318 10.3715 14.2974 10.4845 14.1852 10.6858C14.0758 10.8822 14.1008 11.1335 14.246 11.3048C14.3979 11.4841 14.6554 11.546 14.8724 11.4562C15.11 11.358 15.2504 11.0967 15.1992 10.8443Z" fill="#28A745"/>
<path d="M12.5254 10.8443C12.4808 10.6248 12.3035 10.4515 12.0829 10.4125C11.8564 10.3725 11.6225 10.4849 11.5113 10.6858C11.4005 10.8861 11.4278 11.1391 11.5779 11.3117C11.7287 11.485 11.9818 11.5442 12.1942 11.4579C12.4339 11.3605 12.5771 11.0988 12.5254 10.8443Z" fill="#28A745"/>
<path d="M17.8731 10.8443C17.8287 10.6257 17.6528 10.4529 17.4333 10.413C17.2056 10.3715 16.9713 10.4844 16.8591 10.6858C16.7496 10.8823 16.7746 11.1333 16.9199 11.3048C17.0716 11.4839 17.3292 11.5463 17.5461 11.4562C17.7835 11.3577 17.9244 11.0971 17.8731 10.8443Z" fill="#28A745"/>
<path d="M20.547 10.8443C20.5026 10.6257 20.3267 10.4529 20.1071 10.413C19.8781 10.3713 19.6419 10.4858 19.5308 10.6897C19.4215 10.8903 19.4506 11.1444 19.6026 11.315C19.7544 11.4856 20.0042 11.5437 20.2158 11.4579C20.4556 11.3607 20.5986 11.0987 20.547 10.8443Z" fill="#28A745"/>
</g>
<defs>
<clipPath id="clip0_683_1481">
<rect width="14" height="14" fill="white" transform="translate(9 8)"/>
</clipPath>
</defs>
</svg>
