<svg id="building" xmlns="http://www.w3.org/2000/svg" width="12.663" height="13.436" viewBox="0 0 12.663 13.436">
  <path id="Path_1129" data-name="Path 1129" d="M26.986,12.648H25.947V.394A.394.394,0,0,0,25.554,0H16.542a.394.394,0,0,0-.394.394V12.648H15.11a.394.394,0,0,0,0,.787H26.986a.394.394,0,1,0,0-.787Zm-7.28,0V9.965h2.683v2.683Zm3.471,0V9.571a.394.394,0,0,0-.394-.394H19.312a.394.394,0,0,0-.394.394v3.077H16.935V.787H25.16V12.648Z" transform="translate(-14.716)" fill="#adb4d2"/>
  <path id="Path_1130" data-name="Path 1130" d="M137.563,66.309h-1.929a.394.394,0,0,0-.394.394v1.929a.394.394,0,0,0,.394.394h1.929a.394.394,0,0,0,.394-.394V66.7A.394.394,0,0,0,137.563,66.309Zm-.394,1.929h-1.142V67.1h1.142Z" transform="translate(-132.077 -64.569)" fill="#adb4d2"/>
  <path id="Path_1131" data-name="Path 1131" d="M275.575,66.309h-1.929a.394.394,0,0,0-.394.394v1.929a.394.394,0,0,0,.394.394h1.929a.394.394,0,0,0,.394-.394V66.7A.394.394,0,0,0,275.575,66.309Zm-.394,1.929h-1.142V67.1h1.142Z" transform="translate(-266.468 -64.569)" fill="#adb4d2"/>
  <path id="Path_1132" data-name="Path 1132" d="M137.563,205.954h-1.929a.394.394,0,0,0-.394.394v1.929a.394.394,0,0,0,.394.394h1.929a.394.394,0,0,0,.394-.394v-1.929A.394.394,0,0,0,137.563,205.954Zm-.394,1.929h-1.142v-1.142h1.142Z" transform="translate(-132.077 -200.549)" fill="#adb4d2"/>
  <path id="Path_1133" data-name="Path 1133" d="M275.575,205.954h-1.929a.394.394,0,0,0-.394.394v1.929a.394.394,0,0,0,.394.394h1.929a.394.394,0,0,0,.394-.394v-1.929A.394.394,0,0,0,275.575,205.954Zm-.394,1.929h-1.142v-1.142h1.142Z" transform="translate(-266.468 -200.549)" fill="#adb4d2"/>
</svg>
