<svg width="33" height="32" viewBox="0 0 33 32" fill="none" xmlns="http://www.w3.org/2000/svg">
<path d="M3.16602 16.8135H25.8327" stroke="#26313D" stroke-width="1.5" stroke-miterlimit="10" stroke-linecap="round" stroke-linejoin="round"/>
<path d="M25.8327 13.7067V23.2401C25.7927 27.0401 24.7526 28.0001 20.7926 28.0001H8.20605C4.17939 28.0001 3.16602 27.0001 3.16602 23.0267V13.7067C3.16602 10.1067 4.00602 8.94673 7.16602 8.76007C7.48602 8.74673 7.83272 8.7334 8.20605 8.7334H20.7926C24.8193 8.7334 25.8327 9.7334 25.8327 13.7067Z" stroke="#26313D" stroke-width="1.5" stroke-linecap="round" stroke-linejoin="round"/>
<path d="M29.8327 8.97333V18.2933C29.8327 21.8933 28.9927 23.0533 25.8327 23.24V13.7067C25.8327 9.73333 24.8193 8.73333 20.7926 8.73333H8.20605C7.83272 8.73333 7.48602 8.74667 7.16602 8.76C7.20602 4.96 8.24605 4 12.2061 4H24.7926C28.8193 4 29.8327 5 29.8327 8.97333Z" stroke="#26313D" stroke-width="1.5" stroke-linecap="round" stroke-linejoin="round"/>
<path d="M7.5 23.7471H9.79329" stroke="#26313D" stroke-width="1.5" stroke-miterlimit="10" stroke-linecap="round" stroke-linejoin="round"/>
<path d="M12.6465 23.7471H17.2332" stroke="#26313D" stroke-width="1.5" stroke-miterlimit="10" stroke-linecap="round" stroke-linejoin="round"/>
</svg>
