<svg width="92" height="63" viewBox="0 0 92 63" fill="none" xmlns="http://www.w3.org/2000/svg">
<path d="M85.0649 62.2685H1.57227V6.84548C1.57227 3.0648 4.63707 0 8.41775 0H91.1254C91.1254 0 85.0649 0.394169 85.0649 7.01018C85.0649 13.6262 85.0649 62.2685 85.0649 62.2685Z" fill="white"/>
<path d="M41.65 14.0226C41.4287 14.0226 41.2233 13.9866 41.034 13.9146C40.8473 13.8426 40.6847 13.7413 40.546 13.6106C40.41 13.4799 40.3033 13.3266 40.226 13.1506C40.1513 12.9746 40.114 12.7826 40.114 12.5746C40.114 12.3666 40.1513 12.1746 40.226 11.9986C40.3033 11.8226 40.4113 11.6693 40.55 11.5386C40.6887 11.4079 40.8513 11.3066 41.038 11.2346C41.2247 11.1626 41.4273 11.1266 41.646 11.1266C41.8673 11.1266 42.07 11.1626 42.254 11.2346C42.4407 11.3066 42.602 11.4079 42.738 11.5386C42.8767 11.6693 42.9847 11.8226 43.062 11.9986C43.1393 12.1719 43.178 12.3639 43.178 12.5746C43.178 12.7826 43.1393 12.9759 43.062 13.1546C42.9847 13.3306 42.8767 13.4839 42.738 13.6146C42.602 13.7426 42.4407 13.8426 42.254 13.9146C42.07 13.9866 41.8687 14.0226 41.65 14.0226ZM41.646 13.4706C41.7713 13.4706 41.886 13.4493 41.99 13.4066C42.0967 13.3639 42.19 13.3026 42.27 13.2226C42.35 13.1426 42.4113 13.0479 42.454 12.9386C42.4993 12.8293 42.522 12.7079 42.522 12.5746C42.522 12.4413 42.4993 12.3199 42.454 12.2106C42.4113 12.1013 42.35 12.0066 42.27 11.9266C42.1927 11.8466 42.1007 11.7853 41.994 11.7426C41.8873 11.6999 41.7713 11.6786 41.646 11.6786C41.5207 11.6786 41.4047 11.6999 41.298 11.7426C41.194 11.7853 41.102 11.8466 41.022 11.9266C40.942 12.0066 40.8793 12.1013 40.834 12.2106C40.7913 12.3199 40.77 12.4413 40.77 12.5746C40.77 12.7053 40.7913 12.8266 40.834 12.9386C40.8793 13.0479 40.9407 13.1426 41.018 13.2226C41.098 13.3026 41.1913 13.3639 41.298 13.4066C41.4047 13.4493 41.5207 13.4706 41.646 13.4706ZM43.665 13.9746V11.1746H44.201L45.853 13.1906H45.593V11.1746H46.233V13.9746H45.701L44.045 11.9586H44.305V13.9746H43.665ZM46.8955 13.9746V11.1746H47.5435V13.4466H48.9475V13.9746H46.8955ZM49.3095 13.9746V11.1746H49.9575V13.9746H49.3095ZM50.622 13.9746V11.1746H51.158L52.81 13.1906H52.55V11.1746H53.19V13.9746H52.658L51.002 11.9586H51.262V13.9746H50.622ZM54.4485 12.3026H55.7965V12.8066H54.4485V12.3026ZM54.4965 13.4546H56.0205V13.9746H53.8525V11.1746H55.9685V11.6946H54.4965V13.4546Z" fill="#1967A8"/>
<path d="M41.63 19.2921C41.414 19.2921 41.2127 19.2575 41.026 19.1881C40.842 19.1161 40.682 19.0148 40.546 18.8841C40.41 18.7535 40.3033 18.6001 40.226 18.4241C40.1513 18.2481 40.114 18.0548 40.114 17.8441C40.114 17.6335 40.1513 17.4401 40.226 17.2641C40.3033 17.0881 40.41 16.9348 40.546 16.8041C40.6847 16.6735 40.846 16.5735 41.03 16.5041C41.214 16.4321 41.4153 16.3961 41.634 16.3961C41.8767 16.3961 42.0953 16.4388 42.29 16.5241C42.4873 16.6068 42.6527 16.7295 42.786 16.8921L42.37 17.2761C42.274 17.1668 42.1673 17.0855 42.05 17.0321C41.9327 16.9761 41.8047 16.9481 41.666 16.9481C41.5353 16.9481 41.4153 16.9695 41.306 17.0121C41.1967 17.0548 41.102 17.1161 41.022 17.1961C40.942 17.2761 40.8793 17.3708 40.834 17.4801C40.7913 17.5895 40.77 17.7108 40.77 17.8441C40.77 17.9775 40.7913 18.0988 40.834 18.2081C40.8793 18.3175 40.942 18.4121 41.022 18.4921C41.102 18.5721 41.1967 18.6335 41.306 18.6761C41.4153 18.7188 41.5353 18.7401 41.666 18.7401C41.8047 18.7401 41.9327 18.7135 42.05 18.6601C42.1673 18.6041 42.274 18.5201 42.37 18.4081L42.786 18.7921C42.6527 18.9548 42.4873 19.0788 42.29 19.1641C42.0953 19.2495 41.8753 19.2921 41.63 19.2921ZM43.8196 17.5721H45.1676V18.0761H43.8196V17.5721ZM43.8676 18.7241H45.3916V19.2441H43.2236V16.4441H45.3396V16.9641H43.8676V18.7241ZM45.9072 19.2441V16.4441H47.1192C47.3699 16.4441 47.5859 16.4855 47.7672 16.5681C47.9485 16.6481 48.0885 16.7641 48.1872 16.9161C48.2859 17.0681 48.3352 17.2495 48.3352 17.4601C48.3352 17.6681 48.2859 17.8481 48.1872 18.0001C48.0885 18.1495 47.9485 18.2641 47.7672 18.3441C47.5859 18.4241 47.3699 18.4641 47.1192 18.4641H46.2672L46.5552 18.1801V19.2441H45.9072ZM47.6872 19.2441L46.9872 18.2281H47.6792L48.3872 19.2441H47.6872ZM46.5552 18.2521L46.2672 17.9481H47.0832C47.2832 17.9481 47.4325 17.9055 47.5312 17.8201C47.6299 17.7321 47.6792 17.6121 47.6792 17.4601C47.6792 17.3055 47.6299 17.1855 47.5312 17.1001C47.4325 17.0148 47.2832 16.9721 47.0832 16.9721H46.2672L46.5552 16.6641V18.2521ZM49.3895 19.2441V16.9721H48.4935V16.4441H50.9335V16.9721H50.0375V19.2441H49.3895ZM51.2822 19.2441V16.4441H51.9302V19.2441H51.2822ZM53.1947 17.7041H54.5387V18.2241H53.1947V17.7041ZM53.2427 19.2441H52.5947V16.4441H54.7107V16.9641H53.2427V19.2441ZM55.1494 19.2441V16.4441H55.7974V19.2441H55.1494ZM57.8019 19.2921C57.5859 19.2921 57.3845 19.2575 57.1979 19.1881C57.0139 19.1161 56.8539 19.0148 56.7179 18.8841C56.5819 18.7535 56.4752 18.6001 56.3979 18.4241C56.3232 18.2481 56.2859 18.0548 56.2859 17.8441C56.2859 17.6335 56.3232 17.4401 56.3979 17.2641C56.4752 17.0881 56.5819 16.9348 56.7179 16.8041C56.8565 16.6735 57.0179 16.5735 57.2019 16.5041C57.3859 16.4321 57.5872 16.3961 57.8059 16.3961C58.0485 16.3961 58.2672 16.4388 58.4619 16.5241C58.6592 16.6068 58.8245 16.7295 58.9579 16.8921L58.5419 17.2761C58.4459 17.1668 58.3392 17.0855 58.2219 17.0321C58.1045 16.9761 57.9765 16.9481 57.8379 16.9481C57.7072 16.9481 57.5872 16.9695 57.4779 17.0121C57.3685 17.0548 57.2739 17.1161 57.1939 17.1961C57.1139 17.2761 57.0512 17.3708 57.0059 17.4801C56.9632 17.5895 56.9419 17.7108 56.9419 17.8441C56.9419 17.9775 56.9632 18.0988 57.0059 18.2081C57.0512 18.3175 57.1139 18.4121 57.1939 18.4921C57.2739 18.5721 57.3685 18.6335 57.4779 18.6761C57.5872 18.7188 57.7072 18.7401 57.8379 18.7401C57.9765 18.7401 58.1045 18.7135 58.2219 18.6601C58.3392 18.6041 58.4459 18.5201 58.5419 18.4081L58.9579 18.7921C58.8245 18.9548 58.6592 19.0788 58.4619 19.1641C58.2672 19.2495 58.0472 19.2921 57.8019 19.2921ZM58.9767 19.2441L60.2247 16.4441H60.8647L62.1167 19.2441H61.4367L60.4127 16.7721H60.6687L59.6407 19.2441H58.9767ZM59.6007 18.6441L59.7727 18.1521H61.2127L61.3887 18.6441H59.6007ZM62.8466 19.2441V16.9721H61.9506V16.4441H64.3906V16.9721H63.4946V19.2441H62.8466ZM64.7392 19.2441V16.4441H65.3872V19.2441H64.7392ZM67.4117 19.2921C67.1904 19.2921 66.9851 19.2561 66.7957 19.1841C66.6091 19.1121 66.4464 19.0108 66.3077 18.8801C66.1717 18.7495 66.0651 18.5961 65.9877 18.4201C65.9131 18.2441 65.8757 18.0521 65.8757 17.8441C65.8757 17.6361 65.9131 17.4441 65.9877 17.2681C66.0651 17.0921 66.1731 16.9388 66.3117 16.8081C66.4504 16.6775 66.6131 16.5761 66.7997 16.5041C66.9864 16.4321 67.1891 16.3961 67.4077 16.3961C67.6291 16.3961 67.8317 16.4321 68.0157 16.5041C68.2024 16.5761 68.3637 16.6775 68.4997 16.8081C68.6384 16.9388 68.7464 17.0921 68.8237 17.2681C68.9011 17.4415 68.9397 17.6335 68.9397 17.8441C68.9397 18.0521 68.9011 18.2455 68.8237 18.4241C68.7464 18.6001 68.6384 18.7535 68.4997 18.8841C68.3637 19.0121 68.2024 19.1121 68.0157 19.1841C67.8317 19.2561 67.6304 19.2921 67.4117 19.2921ZM67.4077 18.7401C67.5331 18.7401 67.6477 18.7188 67.7517 18.6761C67.8584 18.6335 67.9517 18.5721 68.0317 18.4921C68.1117 18.4121 68.1731 18.3175 68.2157 18.2081C68.2611 18.0988 68.2837 17.9775 68.2837 17.8441C68.2837 17.7108 68.2611 17.5895 68.2157 17.4801C68.1731 17.3708 68.1117 17.2761 68.0317 17.1961C67.9544 17.1161 67.8624 17.0548 67.7557 17.0121C67.6491 16.9695 67.5331 16.9481 67.4077 16.9481C67.2824 16.9481 67.1664 16.9695 67.0597 17.0121C66.9557 17.0548 66.8637 17.1161 66.7837 17.1961C66.7037 17.2761 66.6411 17.3708 66.5957 17.4801C66.5531 17.5895 66.5317 17.7108 66.5317 17.8441C66.5317 17.9748 66.5531 18.0961 66.5957 18.2081C66.6411 18.3175 66.7024 18.4121 66.7797 18.4921C66.8597 18.5721 66.9531 18.6335 67.0597 18.6761C67.1664 18.7188 67.2824 18.7401 67.4077 18.7401ZM69.4267 19.2441V16.4441H69.9627L71.6147 18.4601H71.3547V16.4441H71.9947V19.2441H71.4627L69.8067 17.2281H70.0667V19.2441H69.4267Z" fill="#1967A8"/>
<path d="M74.3876 26.3926H40.4307V27.3679H74.3876V26.3926Z" fill="#00ACE4"/>
<path d="M79.7465 30.4727H36.5381V31.448H79.7465V30.4727Z" fill="#9CB7C6"/>
<path d="M79.7465 34.5547H36.5381V35.5301H79.7465V34.5547Z" fill="#9CB7C6"/>
<path d="M79.7465 38.6367H36.5381V39.6121H79.7465V38.6367Z" fill="#9CB7C6"/>
<path d="M79.7465 42.7188H36.5381V43.6941H79.7465V42.7188Z" fill="#9CB7C6"/>
<path d="M79.7466 46.8008H6.88965V47.7761H79.7466V46.8008Z" fill="#9CB7C6"/>
<path d="M79.7466 50.8828H6.88965V51.8582H79.7466V50.8828Z" fill="#9CB7C6"/>
<path d="M79.7466 54.9609H6.88965V55.9363H79.7466V54.9609Z" fill="#9CB7C6"/>
<path d="M27.5433 38.9416L24.1645 38.5771C23.9076 38.5493 23.6521 38.6419 23.4724 38.8274L21.1081 41.2686C20.677 41.7136 19.9285 41.5533 19.7177 40.9707L14.3164 26.0339L23.02 22.8867L28.4213 37.8235C28.6321 38.4058 28.1593 39.0079 27.5433 38.9416Z" fill="#0064CC"/>
<path d="M5.43777 38.9416L8.81659 38.5771C9.07351 38.5493 9.32898 38.6419 9.50868 38.8274L11.873 41.2686C12.3041 41.7136 13.0526 41.5533 13.2634 40.9707L18.6647 26.0339L9.96104 22.8867L4.55975 37.8235C4.34894 38.4058 4.82144 39.0079 5.43777 38.9416Z" fill="#0064CC"/>
<path d="M21.5619 30.1592C28.0475 27.4478 31.1072 19.9922 28.3958 13.5066C25.6845 7.02096 18.2288 3.96132 11.7432 6.67268C5.25763 9.38404 2.19799 16.8397 4.90935 23.3253C7.62071 29.8109 15.0763 32.8705 21.5619 30.1592Z" fill="#FF2A77"/>
<path d="M19.804 26.1479C24.076 24.4068 26.1278 19.5322 24.3867 15.2602C22.6456 10.9881 17.7709 8.93641 13.4989 10.6775C9.22685 12.4186 7.17512 17.2932 8.91623 21.5653C10.6573 25.8373 15.532 27.8891 19.804 26.1479Z" fill="#9CB7C6"/>
<path d="M16.6556 24.9616C20.2699 24.9616 23.1999 22.0316 23.1999 18.4173C23.1999 14.803 20.2699 11.873 16.6556 11.873C13.0413 11.873 10.1113 14.803 10.1113 18.4173C10.1113 22.0316 13.0413 24.9616 16.6556 24.9616Z" stroke="#FF2A77" stroke-width="0.9044" stroke-miterlimit="10"/>
<path d="M12.9492 8.3892H20.3748L17.7693 5.0005C17.2101 4.27327 16.1139 4.27327 15.5547 5.0005L12.9492 8.3892Z" fill="#FF2A77"/>
<path d="M20.3037 8.36272L25.9627 13.1704L26.1713 8.90109C26.2159 7.98501 25.3804 7.27499 24.4833 7.46714L20.3037 8.36272Z" fill="#FF2A77"/>
<path d="M25.9258 13.1055L27.1259 20.4333L30.049 17.3147C30.6763 16.6453 30.4992 15.5635 29.6911 15.129L25.9258 13.1055Z" fill="#FF2A77"/>
<path d="M27.1406 20.3594L23.3105 26.721L27.5575 26.2368C28.4688 26.1329 29.0343 25.1937 28.6998 24.3395L27.1406 20.3594Z" fill="#FF2A77"/>
<path d="M23.3687 26.6738L16.3311 29.0422L19.8812 31.4229C20.6432 31.9338 21.6822 31.584 21.9801 30.7166L23.3687 26.6738Z" fill="#FF2A77"/>
<path d="M16.4065 29.0445L9.50977 26.293L10.674 30.406C10.924 31.2887 11.9421 31.695 12.7308 31.2265L16.4065 29.0445Z" fill="#FF2A77"/>
<path d="M9.56512 26.3435L6.09041 19.7812L4.31462 23.6695C3.93363 24.504 4.44675 25.4731 5.35111 25.6268L9.56512 26.3435Z" fill="#FF2A77"/>
<path d="M6.10091 19.8565L7.70175 12.6055L3.83104 14.419C3.00024 14.8084 2.76381 15.8789 3.35342 16.5816L6.10091 19.8565Z" fill="#FF2A77"/>
<path d="M7.66113 12.6674L13.5759 8.17779L9.45192 7.05383C8.56696 6.81264 7.69371 7.47545 7.68785 8.39299L7.66113 12.6674Z" fill="#FF2A77"/>
<path d="M16.4834 7.67989L23.461 10.2195L22.1716 6.1442C21.8949 5.26948 20.8647 4.8947 20.0906 5.3866L16.4834 7.67989Z" fill="#FF2A77"/>
<path d="M23.4043 10.1719L27.0777 16.625L28.7339 12.6844C29.0892 11.8386 28.5468 10.8859 27.6381 10.7597L23.4043 10.1719Z" fill="#FF2A77"/>
<path d="M27.0642 16.5508L25.6855 23.8472L29.4992 21.9162C30.3175 21.5019 30.521 20.4244 29.9102 19.74L27.0642 16.5508Z" fill="#FF2A77"/>
<path d="M25.7248 23.7812L19.9502 28.4495L24.1067 29.4471C24.9987 29.6613 25.8514 28.9721 25.8291 28.0549L25.7248 23.7812Z" fill="#FF2A77"/>
<path d="M20.021 28.4253L12.5977 28.2441L15.1197 31.6954C15.661 32.4362 16.7571 32.4629 17.3336 31.7496L20.021 28.4253Z" fill="#FF2A77"/>
<path d="M12.6689 28.2727L7.1289 23.3281L6.81635 27.5912C6.74937 28.5062 7.56736 29.2363 8.46879 29.0658L12.6689 28.2727Z" fill="#FF2A77"/>
<path d="M7.16384 23.394L6.14309 16.0391L3.14453 19.0856C2.50112 19.7392 2.65191 20.8255 3.44904 21.2793L7.16384 23.394Z" fill="#FF2A77"/>
<path d="M6.12795 16.1138L10.1121 9.84766L5.85456 10.2279C4.94068 10.3095 4.35253 11.2348 4.66619 12.0967L6.12795 16.1138Z" fill="#FF2A77"/>
<path d="M10.0518 9.89198L17.145 7.69603L13.6542 5.22926C12.905 4.70004 11.8576 5.02394 11.5384 5.88401L10.0518 9.89198Z" fill="#FF2A77"/>
</svg>
