<svg xmlns="http://www.w3.org/2000/svg" width="31" height="31" viewBox="0 0 31 31">
  <g id="chat-work" transform="translate(-952 -1274)">
    <path id="Path_3652" data-name="Path 3652" d="M15.5,0A15.5,15.5,0,1,1,0,15.5,15.5,15.5,0,0,1,15.5,0Z" transform="translate(952 1274)" fill="#9712cf" opacity="0.15"/>
    <path id="messenger" d="M6.454,0a6.455,6.455,0,0,0-5.6,9.667L.024,12.249a.5.5,0,0,0,.635.635l2.582-.832A6.454,6.454,0,1,0,6.454,0Zm0,11.9a5.43,5.43,0,0,1-2.882-.825.5.5,0,0,0-.422-.052l-1.864.6.6-1.864a.5.5,0,0,0-.052-.422A5.446,5.446,0,1,1,6.454,11.9Zm.63-5.446a.63.63,0,1,1-.63-.63A.63.63,0,0,1,7.084,6.454Zm2.521,0a.63.63,0,1,1-.63-.63A.63.63,0,0,1,9.606,6.454Zm-5.042,0a.63.63,0,1,1-.63-.63A.63.63,0,0,1,4.563,6.454Zm0,0" transform="translate(961.425 1283.07)" fill="#9712cf" stroke="#9712cf" stroke-width="0.75"/>
  </g>
</svg>
