<svg width="94" height="94" viewBox="0 0 94 94" fill="none" xmlns="http://www.w3.org/2000/svg">
<path d="M47.0003 89.1042C40.4935 89.1163 34.0724 87.6203 28.2411 84.7334C22.4097 81.8465 17.3268 77.6473 13.3914 72.4655C9.45594 67.2838 6.77502 61.2604 5.55908 54.8682C4.34314 48.476 4.62526 41.889 6.38331 35.6241C8.14136 29.3593 11.3275 23.5872 15.6916 18.7609C20.0557 13.9346 25.479 10.1854 31.5358 7.80773C37.5927 5.43 44.1181 4.48843 50.6001 5.05691C57.082 5.62539 63.344 7.68846 68.8945 11.0842C69.5349 11.4816 69.9953 12.1128 70.1781 12.844C70.3609 13.5752 70.2517 14.3488 69.8736 15.0008C69.4696 15.6337 68.8386 16.0878 68.1102 16.2699C67.3818 16.452 66.6113 16.3483 65.957 15.98C59.1365 11.798 51.1226 9.994 43.1681 10.8499C35.2136 11.7058 27.7669 15.1735 21.9923 20.7107C16.2177 26.2479 12.4406 33.5425 11.2517 41.4541C10.0628 49.3657 11.529 57.4482 15.4211 64.4381C19.3131 71.428 25.4117 76.9312 32.7633 80.0873C40.1149 83.2433 48.3051 83.8744 56.0535 81.8818C63.8018 79.8891 70.6714 75.3852 75.5884 69.074C80.5053 62.7629 83.1924 55.0003 83.2295 47C83.2291 44.7769 83.006 42.5595 82.5636 40.3808C82.4131 39.6127 82.5712 38.8161 83.0037 38.1637C83.4362 37.5113 84.1083 37.0555 84.8745 36.895C85.2529 36.8154 85.6434 36.8124 86.023 36.8861C86.4026 36.9597 86.7636 37.1086 87.0848 37.324C87.406 37.5393 87.6809 37.8168 87.8932 38.1399C88.1055 38.4631 88.251 38.8256 88.3211 39.2058C88.8446 41.784 89.1071 44.4084 89.1045 47.0392C89.0837 58.1959 84.6399 68.8892 76.7472 76.7746C68.8545 84.6599 58.1571 89.0938 47.0003 89.1042Z" fill="#20BF55"/>
<path d="M46.1389 59.8858C45.753 59.8877 45.3706 59.8124 45.0141 59.6644C44.6576 59.5165 44.3343 59.2988 44.0631 59.0242L26.8298 41.7908C26.2797 41.2401 25.9707 40.4935 25.9707 39.715C25.9707 38.9366 26.2797 38.19 26.8298 37.6392C27.0998 37.362 27.4226 37.1418 27.7791 36.9914C28.1357 36.841 28.5187 36.7635 28.9056 36.7635C29.2926 36.7635 29.6756 36.841 30.0321 36.9914C30.3886 37.1418 30.7114 37.362 30.9815 37.6392L46.1389 52.7967L81.6631 17.3117C81.9332 17.0346 82.256 16.8143 82.6125 16.6639C82.969 16.5135 83.352 16.436 83.7389 16.436C84.1259 16.436 84.5089 16.5135 84.8654 16.6639C85.2219 16.8143 85.5447 17.0346 85.8148 17.3117C86.3649 17.8625 86.6739 18.6091 86.6739 19.3875C86.6739 20.166 86.3649 20.9126 85.8148 21.4634L48.2148 59.0242C47.9478 59.3043 47.6252 59.5257 47.2678 59.6741C46.9104 59.8225 46.5259 59.8946 46.1389 59.8858Z" fill="#20BF55"/>
</svg>
