<svg width="342" height="470" viewBox="0 0 342 470" fill="none" xmlns="http://www.w3.org/2000/svg">
<path d="M341.867 444.267V68.8C341.867 54.6602 330.406 43.2 316.267 43.2H26.1332C11.9935 43.2 0.533203 54.6602 0.533203 68.8V444.267C0.533203 458.406 11.9935 469.867 26.1332 469.867H316.267C330.406 469.867 341.867 458.406 341.867 444.267Z" fill="#703D36"/>
<path d="M307.733 435.733V85.8667C307.733 81.1733 303.893 77.3333 299.2 77.3333H43.2001C38.5067 77.3333 34.6667 81.1733 34.6667 85.8667V427.2C34.6667 431.893 38.5067 435.733 43.2001 435.733H307.733Z" fill="white"/>
<path d="M230.933 43.2V77.3333C230.933 82.0437 227.11 85.8667 222.4 85.8667H120C115.289 85.8667 111.467 82.0437 111.467 77.3333V43.2C111.467 38.4896 115.289 34.6667 120 34.6667H137.067C137.067 15.808 152.341 0.533325 171.2 0.533325C190.059 0.533325 205.333 15.808 205.333 34.6667H222.4C227.11 34.6667 230.933 38.4896 230.933 43.2Z" fill="#DCE4EA"/>
<path d="M171.2 43.3365C166.481 43.3365 162.667 39.6501 162.667 34.9397V34.6752C162.667 29.9562 166.481 26.1418 171.2 26.1418C175.919 26.1418 179.733 29.9562 179.733 34.6752C179.733 39.3941 175.919 43.345 171.2 43.345V43.3365Z" fill="#BCC7CE"/>
<path d="M196.8 171.2H77.3334C72.6144 171.2 68.8 167.386 68.8 162.667C68.8 157.948 72.6144 154.133 77.3334 154.133H196.8C201.519 154.133 205.333 157.948 205.333 162.667C205.333 167.386 201.519 171.2 196.8 171.2Z" fill="#BCC7CE"/>
<path d="M248 179.733C245.739 179.733 243.571 178.846 241.967 177.233L233.434 168.7C230.097 165.363 230.097 159.97 233.434 156.634C236.77 153.297 242.163 153.297 245.5 156.634L247.078 158.212L266.782 131.955C269.606 128.183 274.957 127.433 278.72 130.249C282.492 133.073 283.26 138.423 280.427 142.187L254.827 176.32C253.342 178.3 251.08 179.537 248.606 179.708C248.401 179.725 248.196 179.733 248 179.733Z" fill="#2AA869"/>
<path d="M248 273.187C245.739 273.187 243.571 272.3 241.967 270.687L233.434 262.154C230.097 258.817 230.097 253.424 233.434 250.088C236.77 246.751 242.163 246.751 245.5 250.088L247.078 251.666L266.782 225.409C269.606 221.638 274.957 220.887 278.72 223.703C282.492 226.527 283.26 231.878 280.427 235.641L254.827 269.774C253.342 271.754 251.08 272.991 248.606 273.162C248.401 273.179 248.196 273.187 248 273.187Z" fill="#2AA869"/>
<path d="M248 375.187C245.739 375.187 243.571 374.3 241.967 372.687L233.434 364.154C230.097 360.817 230.097 355.424 233.434 352.088C236.77 348.751 242.163 348.751 245.5 352.088L247.078 353.666L266.782 327.409C269.606 323.638 274.957 322.887 278.72 325.703C282.492 328.527 283.26 333.878 280.427 337.641L254.827 371.774C253.342 373.754 251.08 374.991 248.606 375.162C248.401 375.179 248.196 375.187 248 375.187Z" fill="#2AA869"/>
<path d="M171.2 265.067H77.3334C72.6144 265.067 68.8 261.252 68.8 256.533C68.8 251.814 72.6144 248 77.3334 248H171.2C175.919 248 179.733 251.814 179.733 256.533C179.733 261.252 175.919 265.067 171.2 265.067Z" fill="#BCC7CE"/>
<path d="M145.6 358.933H77.3334C72.6144 358.933 68.8 355.119 68.8 350.4C68.8 345.681 72.6144 341.867 77.3334 341.867H145.6C150.319 341.867 154.133 345.681 154.133 350.4C154.133 355.119 150.319 358.933 145.6 358.933Z" fill="#BCC7CE"/>
</svg>
