<svg xmlns="http://www.w3.org/2000/svg" width="31" height="31" viewBox="0 0 31 31">
  <g id="closed-work" transform="translate(-1424 -210.996)">
    <circle id="Ellipse_100" data-name="Ellipse 100" cx="15.5" cy="15.5" r="15.5" transform="translate(1424 210.996)" fill="#09d599" opacity="0.15"/>
    <g id="Group_3525" data-name="Group 3525" transform="translate(1431.496 221.138)">
      <path id="Path_3609" data-name="Path 3609" d="M6,15.483a1.512,1.512,0,0,1-2.176,0L.451,12.026a1.607,1.607,0,0,1,0-2.231,1.512,1.512,0,0,1,2.176,0l2.008,2.06a.383.383,0,0,0,.55,0l5.438-5.578a1.512,1.512,0,0,1,2.176,0,1.607,1.607,0,0,1,0,2.231Z" transform="translate(1.876 -5.38)" fill="#09d599"/>
    </g>
  </g>
</svg>
