<svg width="62" height="28" viewBox="0 0 62 28" fill="none" xmlns="http://www.w3.org/2000/svg">
<path d="M35.6172 18.2017V18.2138V22.1297C35.8722 22.1297 59.9624 16.4835 59.9624 16.4835C60.867 16.2711 61.1462 16.0707 61.1462 15.6154V11.5234C61.1402 12.0334 60.4116 12.428 59.6467 12.6041L35.6172 18.2017Z" fill="#00AB84"/>
<path d="M35.6172 23.936V23.9482V27.8641C35.8722 27.8641 59.9624 22.2179 59.9624 22.2179C60.867 22.0054 61.1462 21.8051 61.1462 21.3497V17.2578C61.1402 17.7678 60.4116 18.1624 59.6467 18.3385L35.6172 23.936Z" fill="#00594F"/>
<path d="M37.141 10.5144L38.9624 10.9272C41.4515 10.3444 44.481 9.64013 47.8808 8.85088L35.6172 6.07031V9.54299C35.6172 10.0469 36.03 10.2655 37.141 10.5144Z" fill="#C7C8C9"/>
<path d="M52.167 7.84995L37.141 4.44406C36.03 4.19514 35.6172 3.97658 35.6172 3.47268V0L60.3023 5.59757C60.0474 5.89505 59.5495 6.12576 59.0274 6.25325H59.0213L52.167 7.84995Z" fill="#C7C8C9"/>
<path d="M35.306 12.5106L31.7969 17.3007C32.149 17.2218 59.9669 10.7257 59.9669 10.7257C60.8715 10.5132 61.1507 10.3129 61.1507 9.85756V5.76562C61.1447 6.2756 60.4161 6.67022 59.6512 6.84628L35.306 12.5106Z" fill="#4CC2BF"/>
<path d="M1.97039 7.54052V11.4685C1.97039 11.7539 1.92789 11.9421 1.83682 12.0514C1.74576 12.1546 1.61826 12.2092 1.43613 12.2092C1.27221 12.2092 1.07794 12.1546 0.859375 12.0514V13.1502C1.27221 13.2899 1.62434 13.3566 1.89754 13.3566C2.21323 13.3566 2.48643 13.2899 2.71107 13.1502C2.9357 13.0106 3.09962 12.8102 3.20283 12.5492C3.30604 12.2881 3.36067 11.8935 3.36067 11.3653V7.21875L1.97039 7.54052Z" fill="#54565B"/>
<path d="M6.49966 5.44531L5.10938 5.77315V9.66474C5.10938 10.1929 5.16401 10.5875 5.26722 10.8486C5.37043 11.1097 5.53435 11.31 5.75898 11.4496C5.98362 11.5893 6.25075 11.6561 6.56037 11.6561L21.8778 11.65C22.1571 11.6379 22.3999 11.5711 22.6063 11.4436C22.831 11.3039 22.9949 11.1036 23.0981 10.8425C23.2013 10.5815 23.2559 10.1869 23.2559 9.65867V7.56413L21.8657 7.89197V9.47046C21.8657 9.74973 21.8232 9.94401 21.7321 10.0533C21.6592 10.1444 21.55 10.1929 21.4103 10.2051H18.9212L18.903 9.7983C18.903 9.44011 18.8362 9.08798 18.7026 8.69943C18.569 8.31088 18.3444 7.97697 18.0348 7.68556C17.7252 7.40021 17.3184 7.16951 16.8206 7.00559C16.3227 6.84167 15.7095 6.75667 14.9871 6.75667C14.7139 6.75667 14.4771 6.76275 14.2889 6.76882C14.1007 6.77489 14.2585 6.7931 14.1128 6.80524L13.9853 8.14089C14.1311 8.12268 14.3071 8.11053 14.5075 8.10446C14.7078 8.09839 14.9324 8.09232 15.1753 8.09232C15.6063 8.09232 15.9706 8.12875 16.2681 8.20767C16.5656 8.2866 16.8084 8.40802 16.9966 8.57801C17.1848 8.748 17.3245 8.96656 17.4034 9.23976C17.4823 9.50082 17.5248 9.82259 17.5248 10.2051H6.95499C6.81536 10.1929 6.71215 10.1444 6.63323 10.0533C6.54216 9.95008 6.49966 9.75581 6.49966 9.47046V5.44531Z" fill="#54565B"/>
<path d="M25.8556 12.9664C25.9466 12.9664 26.0559 13.0029 26.153 13.0393C26.2623 13.0939 26.3352 13.1304 26.3959 13.1668V12.505C26.2866 12.4504 26.1713 12.3958 26.0802 12.3593C25.9709 12.3229 25.8798 12.3047 25.7645 12.3047C25.637 12.3047 25.5034 12.3229 25.3941 12.3593C25.2667 12.3958 25.1695 12.4504 25.0784 12.5232C25.0056 12.5779 24.9327 12.6872 24.8781 12.8025C24.8235 12.93 24.8052 13.0636 24.8052 13.2275C24.8052 13.2639 24.8053 13.3186 24.8235 13.3914C24.8417 13.4461 24.8599 13.5189 24.8781 13.5553H24.4896H24.4531V14.1442H26.3716V13.5371H25.5763C25.5399 13.5007 25.5216 13.4461 25.5034 13.3732C25.4852 13.3004 25.4852 13.2639 25.4852 13.2275C25.4852 13.1182 25.5216 13.0454 25.5945 13.0029C25.6673 12.9664 25.7645 12.9664 25.8556 12.9664Z" fill="#54565B"/>
<path d="M20.08 12.5547C19.8676 12.5547 19.6854 12.6275 19.5276 12.7854C19.3697 12.9432 19.2969 13.1254 19.2969 13.3561C19.2969 13.5686 19.3697 13.7507 19.5276 13.9085C19.6672 14.0664 19.8676 14.1392 20.08 14.1392C20.2925 14.1392 20.4868 14.0482 20.6325 13.9085C20.7904 13.7507 20.8632 13.5686 20.8632 13.3561C20.8632 13.1254 20.7904 12.9493 20.6325 12.7854C20.4686 12.6275 20.2925 12.5547 20.08 12.5547Z" fill="#54565B"/>
<path d="M22.0566 12.5547C21.8441 12.5547 21.662 12.6275 21.5041 12.7854C21.3463 12.9432 21.2734 13.1254 21.2734 13.3561C21.2734 13.5686 21.3463 13.7507 21.5041 13.9085C21.6438 14.0664 21.8441 14.1392 22.0566 14.1392C22.2691 14.1392 22.4512 14.0482 22.6091 13.9085C22.7669 13.7507 22.8398 13.5686 22.8398 13.3561C22.8398 13.1254 22.7669 12.9493 22.6091 12.7854C22.4452 12.6275 22.2691 12.5547 22.0566 12.5547Z" fill="#54565B"/>
<path d="M15.2597 12.5547C15.0472 12.5547 14.8651 12.6275 14.7073 12.7854C14.5494 12.9432 14.4766 13.1254 14.4766 13.3561C14.4766 13.5686 14.5494 13.7507 14.7073 13.9085C14.8469 14.0664 15.0472 14.1392 15.2597 14.1392C15.4722 14.1392 15.6665 14.0482 15.8122 13.9085C15.9701 13.7507 16.0429 13.5686 16.0429 13.3561C16.0429 13.1254 15.9701 12.9493 15.8122 12.7854C15.6483 12.6275 15.4722 12.5547 15.2597 12.5547Z" fill="#54565B"/>
<path d="M24.9922 5.44677V11.6515H26.3885V5.125L24.9922 5.44677Z" fill="#54565B"/>
<path d="M1.91839 22.7057H5.37893V21.4247H2.22802V20.3501H5.02073V19.063H2.22802V17.9034H5.37893V16.6406H1.91839C1.32342 16.6406 0.843806 17.1202 0.843806 17.7152V21.625C0.837735 22.2261 1.32342 22.7057 1.91839 22.7057Z" fill="#54565B"/>
<path d="M26.1588 22.481C25.7216 21.88 25.2784 21.279 24.8292 20.684C25.1388 20.5261 25.3999 20.3015 25.6002 20.004C25.8309 19.658 25.9523 19.2451 25.9523 18.7777C25.9523 18.4741 25.8977 18.1827 25.7945 17.9216C25.6913 17.6606 25.5456 17.4299 25.3574 17.2417C25.1692 17.0535 24.9445 16.9017 24.6774 16.7985C24.4163 16.6953 24.1249 16.6406 23.8153 16.6406H21.8543C21.4111 16.6406 21.0469 17.0049 21.0469 17.4481V22.6996H22.4372V20.8601H23.3114C23.5178 21.1575 23.7242 21.4489 23.9307 21.7343C24.1492 22.0378 24.3799 22.3475 24.6106 22.645L24.6531 22.6996H26.3227L26.1588 22.481ZM22.4372 17.9095H23.8092C23.9732 17.9095 24.1067 17.9398 24.1978 17.9945C24.2949 18.0552 24.3678 18.128 24.4224 18.213C24.4771 18.3041 24.5135 18.4012 24.5317 18.4984C24.5499 18.6077 24.5621 18.6987 24.5621 18.7716C24.5621 18.9112 24.5378 19.0387 24.4953 19.1359C24.4467 19.2391 24.386 19.3301 24.3192 19.3969C24.2464 19.4637 24.1735 19.5123 24.0824 19.5487C23.9914 19.5851 23.9064 19.5973 23.8214 19.5973H22.4432V17.9095H22.4372Z" fill="#54565B"/>
<path d="M10.0868 16.9311V20.3431C10.0868 20.4463 10.0747 20.5677 10.0504 20.7013C10.0322 20.8227 9.9836 20.9502 9.92289 21.0656C9.86218 21.1809 9.77111 21.272 9.65576 21.3509C9.54648 21.4238 9.38863 21.4602 9.19436 21.4602C9.07901 21.4602 8.98187 21.442 8.90294 21.4116C8.81795 21.3752 8.74509 21.3327 8.68438 21.2841C8.62367 21.2356 8.56903 21.1749 8.52046 21.1081C8.47189 21.0413 8.43547 20.9745 8.41118 20.9077L8.35654 20.7742L7.09375 21.3388L7.15446 21.4663C7.33052 21.8609 7.60372 22.1766 7.95585 22.4012C8.30797 22.6259 8.72688 22.7412 9.2065 22.7412C9.54648 22.7412 9.85611 22.6805 10.1354 22.5712C10.4147 22.4559 10.6575 22.2919 10.8578 22.0795C11.0582 21.867 11.216 21.612 11.3192 21.3145C11.4285 21.0231 11.4832 20.6952 11.4832 20.3431V16.6094L10.0868 16.9311Z" fill="#54565B"/>
<path d="M16.2609 16.7881C16.2245 16.7031 16.1395 16.6484 16.0484 16.6484C15.9573 16.6484 15.8663 16.7091 15.8359 16.7881L12.8125 22.7013H14.3363L14.7795 21.7967H17.3173L17.7665 22.7013H19.2904L16.2609 16.7881ZM15.4474 20.5461L16.0484 19.2772L16.6434 20.5461H15.4474Z" fill="#54565B"/>
</svg>
