<svg width="28" height="28" viewBox="0 0 28 28" fill="none" xmlns="http://www.w3.org/2000/svg">
<g clip-path="url(#clip0_1_163)">
<path d="M27.125 23.6256H14.875C14.392 23.6256 14 23.2336 14 22.7506C14 22.2676 14 5.73361 14 5.25061C14 4.76761 14.392 4.37561 14.875 4.37561H27.125C27.608 4.37561 28 4.76761 28 5.25061V22.7506C28 23.2336 27.608 23.6256 27.125 23.6256Z" fill="#ECEFF1"/>
<path d="M18.375 9.62561H14.875C14.392 9.62561 14 9.23361 14 8.75061C14 8.26761 14.392 7.87561 14.875 7.87561H18.375C18.858 7.87561 19.25 8.26761 19.25 8.75061C19.25 9.23361 18.858 9.62561 18.375 9.62561Z" fill="#388E3C"/>
<path d="M18.375 13.1256H14.875C14.392 13.1256 14 12.7336 14 12.2506C14 11.7676 14.392 11.3756 14.875 11.3756H18.375C18.858 11.3756 19.25 11.7676 19.25 12.2506C19.25 12.7336 18.858 13.1256 18.375 13.1256Z" fill="#388E3C"/>
<path d="M18.375 16.6256H14.875C14.392 16.6256 14 16.2336 14 15.7506C14 15.2676 14.392 14.8756 14.875 14.8756H18.375C18.858 14.8756 19.25 15.2676 19.25 15.7506C19.25 16.2336 18.858 16.6256 18.375 16.6256Z" fill="#388E3C"/>
<path d="M18.375 20.1256H14.875C14.392 20.1256 14 19.7336 14 19.2506C14 18.7676 14.392 18.3756 14.875 18.3756H18.375C18.858 18.3756 19.25 18.7676 19.25 19.2506C19.25 19.7336 18.858 20.1256 18.375 20.1256Z" fill="#388E3C"/>
<path d="M23.625 9.62561H21.875C21.392 9.62561 21 9.23361 21 8.75061C21 8.26761 21.392 7.87561 21.875 7.87561H23.625C24.108 7.87561 24.5 8.26761 24.5 8.75061C24.5 9.23361 24.108 9.62561 23.625 9.62561Z" fill="#388E3C"/>
<path d="M23.625 13.1256H21.875C21.392 13.1256 21 12.7336 21 12.2506C21 11.7676 21.392 11.3756 21.875 11.3756H23.625C24.108 11.3756 24.5 11.7676 24.5 12.2506C24.5 12.7336 24.108 13.1256 23.625 13.1256Z" fill="#388E3C"/>
<path d="M23.625 16.6256H21.875C21.392 16.6256 21 16.2336 21 15.7506C21 15.2676 21.392 14.8756 21.875 14.8756H23.625C24.108 14.8756 24.5 15.2676 24.5 15.7506C24.5 16.2336 24.108 16.6256 23.625 16.6256Z" fill="#388E3C"/>
<path d="M23.625 20.1256H21.875C21.392 20.1256 21 19.7336 21 19.2506C21 18.7676 21.392 18.3756 21.875 18.3756H23.625C24.108 18.3756 24.5 18.7676 24.5 19.2506C24.5 19.7336 24.108 20.1256 23.625 20.1256Z" fill="#388E3C"/>
<path d="M15.4333 1.07682C15.2338 0.910569 14.966 0.838819 14.714 0.891319L0.714 3.51632C0.29925 3.59332 0 3.95382 0 4.37557V23.6256C0 24.0456 0.29925 24.4078 0.714 24.4848L14.714 27.1098C14.7665 27.1203 14.8208 27.1256 14.875 27.1256C15.078 27.1256 15.2758 27.0556 15.4333 26.9243C15.6345 26.7581 15.75 26.5096 15.75 26.2506V1.75057C15.75 1.48982 15.6345 1.24307 15.4333 1.07682Z" fill="#2E7D32"/>
<path d="M12.0329 16.9249L9.26617 13.7626L12.0644 10.1646C12.3619 9.78311 12.2919 9.23361 11.9122 8.93611C11.5324 8.63861 10.9829 8.70861 10.6837 9.08836L8.09192 12.4204L5.90792 9.92486C5.58767 9.55736 5.03467 9.52411 4.67417 9.84261C4.31017 10.1611 4.27342 10.7141 4.59192 11.0764L6.99817 13.8274L4.55867 16.9634C4.26117 17.3449 4.33117 17.8944 4.71092 18.1919C4.87192 18.3161 5.06267 18.3756 5.24992 18.3756C5.51067 18.3756 5.76792 18.2601 5.94117 18.0379L8.17242 15.1679L10.7169 18.0746C10.8902 18.2741 11.1317 18.3756 11.3749 18.3756C11.5797 18.3756 11.7844 18.3039 11.9507 18.1586C12.3147 17.8401 12.3514 17.2871 12.0329 16.9249Z" fill="#FAFAFA"/>
</g>
<defs>
<clipPath id="clip0_1_163">
<rect width="28" height="28" fill="white"/>
</clipPath>
</defs>
</svg>
