<svg width="24" height="25" viewBox="0 0 24 25" fill="none" xmlns="http://www.w3.org/2000/svg">
<path d="M9.5 14.0256C9.5 14.9956 10.25 15.7756 11.17 15.7756H13.05C13.85 15.7756 14.5 15.0956 14.5 14.2456C14.5 13.3356 14.1 13.0056 13.51 12.7956L10.5 11.7456C9.91 11.5356 9.51001 11.2156 9.51001 10.2956C9.51001 9.45562 10.16 8.76562 10.96 8.76562H12.84C13.76 8.76562 14.51 9.54562 14.51 10.5156" stroke="#152B70" stroke-width="1.5" stroke-linecap="round" stroke-linejoin="round"/>
<path d="M12 7.77344V16.7734" stroke="#152B70" stroke-width="1.5" stroke-linecap="round" stroke-linejoin="round"/>
<path d="M22 12.2734C22 17.7934 17.52 22.2734 12 22.2734C6.48 22.2734 2 17.7934 2 12.2734C2 6.75344 6.48 2.27344 12 2.27344" stroke="#152B70" stroke-width="1.5" stroke-linecap="round" stroke-linejoin="round"/>
<path d="M22 6.27344V2.27344H18" stroke="#152B70" stroke-width="1.5" stroke-linecap="round" stroke-linejoin="round"/>
<path d="M17 7.27344L22 2.27344" stroke="#152B70" stroke-width="1.5" stroke-linecap="round" stroke-linejoin="round"/>
</svg>
