<svg width="14" height="14" viewBox="0 0 14 14" fill="none" xmlns="http://www.w3.org/2000/svg">
<path d="M13.046 8.692H13.029C12.8009 8.692 12.5822 8.78261 12.4209 8.94389C12.2596 9.10517 12.169 9.32391 12.169 9.552V11.734C12.169 11.8494 12.1232 11.96 12.0416 12.0416C11.96 12.1232 11.8494 12.169 11.734 12.169H2.173C2.05763 12.169 1.94699 12.1232 1.86541 12.0416C1.78383 11.96 1.738 11.8494 1.738 11.734V2.173C1.738 2.05763 1.78383 1.94699 1.86541 1.86541C1.94699 1.78383 2.05763 1.738 2.173 1.738H6.093C6.20594 1.738 6.31777 1.71576 6.42211 1.67254C6.52645 1.62932 6.62125 1.56597 6.70111 1.48611C6.78097 1.40625 6.84432 1.31145 6.88754 1.20711C6.93076 1.10277 6.953 0.990937 6.953 0.878V0.86C6.953 0.747063 6.93076 0.635232 6.88754 0.530892C6.84432 0.426552 6.78097 0.331747 6.70111 0.251888C6.62125 0.17203 6.52645 0.108683 6.42211 0.0654636C6.31777 0.0222446 6.20594 0 6.093 0L0.86 0C0.631914 0 0.413169 0.0906069 0.251888 0.251888C0.0906069 0.413169 0 0.631914 0 0.86L0 13.046C0 13.2741 0.0906069 13.4928 0.251888 13.6541C0.413169 13.8154 0.631914 13.906 0.86 13.906H13.046C13.2741 13.906 13.4928 13.8154 13.6541 13.6541C13.8154 13.4928 13.906 13.2741 13.906 13.046L13.897 13.037H13.906V9.552C13.906 9.32391 13.8154 9.10517 13.6541 8.94389C13.4928 8.78261 13.2741 8.692 13.046 8.692Z" fill="white"/>
<path d="M10.8401 2.483C8.7097 2.5096 6.67652 3.3786 5.18506 4.9C4.18341 6.02694 3.59116 7.45878 3.50406 8.964C3.48956 9.09307 3.50247 9.22375 3.54194 9.34749C3.58141 9.47122 3.64655 9.58524 3.7331 9.68208C3.81965 9.77892 3.92567 9.8564 4.04422 9.90946C4.16276 9.96252 4.29117 9.98997 4.42106 9.99H4.46406C4.66256 9.96821 4.84698 9.877 4.98476 9.73245C5.12253 9.5879 5.20481 9.39932 5.21706 9.2C5.2838 8.03806 5.73115 6.9304 6.49006 6.048C7.65982 4.90078 9.22676 4.24857 10.8651 4.227V4.346H10.8411L10.8221 4.462L9.82206 5.473C9.6604 5.63708 9.56979 5.85817 9.56979 6.0885C9.56979 6.31883 9.6604 6.53992 9.82206 6.704C9.90169 6.78476 9.99658 6.84889 10.1012 6.89265C10.2059 6.93642 10.3181 6.95896 10.4316 6.95896C10.545 6.95896 10.6573 6.93642 10.7619 6.89265C10.8665 6.84889 10.9614 6.78476 11.0411 6.704L13.6551 4.064C13.817 3.89988 13.9078 3.67858 13.9078 3.448C13.9078 3.21742 13.817 2.99612 13.6551 2.832L11.0481 0.255001C10.9684 0.174243 10.8735 0.110117 10.7689 0.0663471C10.6643 0.0225777 10.552 3.8147e-05 10.4386 3.8147e-05C10.3251 3.8147e-05 10.2129 0.0225777 10.1082 0.0663471C10.0036 0.110117 9.90869 0.174243 9.82906 0.255001C9.66686 0.418996 9.57589 0.640345 9.57589 0.871001C9.57589 1.10166 9.66686 1.32301 9.82906 1.487L10.8421 2.487L10.8401 2.483Z" fill="white"/>
</svg>
