<svg width="24" height="24" viewBox="0 0 24 24" fill="none" xmlns="http://www.w3.org/2000/svg">
<path d="M14 22L9 22C4 22 2 20 2 15L2 9C2 4 4 2 9 2L15 2C20 2 22 4 22 9L22 11" stroke="#D81B60" stroke-width="1.5" stroke-linecap="round" stroke-linejoin="round"/>
<path d="M18 18.9891C18 19.7591 18.6 20.3891 19.33 20.3891H20.83C21.47 20.3891 21.99 19.8391 21.99 19.1691C21.99 18.4391 21.67 18.1791 21.2 18.0091L18.8 17.1691C18.32 16.9991 18 16.7391 18 16.0091C18 15.3391 18.52 14.7891 19.16 14.7891H20.66C21.4 14.7991 22 15.4191 22 16.1891" stroke="#D81B60" stroke-width="1.5" stroke-linecap="round" stroke-linejoin="round"/>
<path d="M20 20.4414V21.1814" stroke="#D81B60" stroke-width="1.5" stroke-linecap="round" stroke-linejoin="round"/>
<path d="M20 14V14.78" stroke="#D81B60" stroke-width="1.5" stroke-linecap="round" stroke-linejoin="round"/>
<path d="M7 13H13" stroke="#D81B60" stroke-width="1.5" stroke-linecap="round" stroke-linejoin="round"/>
<path d="M7 17H11" stroke="#D81B60" stroke-width="1.5" stroke-linecap="round" stroke-linejoin="round"/>
</svg>
