<svg width="26" height="27" viewBox="0 0 26 27" fill="none" xmlns="http://www.w3.org/2000/svg">
<path d="M10.293 15.1671C10.293 16.2179 11.1055 17.0629 12.1022 17.0629H14.1388C15.0055 17.0629 15.7096 16.3262 15.7096 15.4054C15.7096 14.4196 15.2763 14.0621 14.6371 13.8346L11.3763 12.6971C10.7371 12.4696 10.3038 12.1229 10.3038 11.1262C10.3038 10.2162 11.008 9.46875 11.8746 9.46875H13.9113C14.908 9.46875 15.7205 10.3137 15.7205 11.3646" stroke="#152B70" stroke-width="1.5" stroke-linecap="round" stroke-linejoin="round"/>
<path d="M13 8.39844V18.1484" stroke="#152B70" stroke-width="1.5" stroke-linecap="round" stroke-linejoin="round"/>
<path d="M23.8346 13.2708C23.8346 19.2508 18.9813 24.1042 13.0013 24.1042C7.0213 24.1042 2.16797 19.2508 2.16797 13.2708C2.16797 7.29083 7.0213 2.4375 13.0013 2.4375" stroke="#152B70" stroke-width="1.5" stroke-linecap="round" stroke-linejoin="round"/>
<path d="M18.418 3.52344V7.85677H22.7513" stroke="#152B70" stroke-width="1.5" stroke-linecap="round" stroke-linejoin="round"/>
<path d="M23.8346 2.4375L18.418 7.85417" stroke="#152B70" stroke-width="1.5" stroke-linecap="round" stroke-linejoin="round"/>
</svg>
