<svg width="14" height="48" viewBox="0 0 14 48" fill="none" xmlns="http://www.w3.org/2000/svg">
<path d="M0 0H10C12.2091 0 14 1.79086 14 4V44C14 46.2091 12.2091 48 10 48H0V0Z" fill="#5F63F2"/>
<path d="M9.7 29.3C9.3134 29.6866 8.6866 29.6866 8.3 29.3L3.70711 24.7071C3.31658 24.3166 3.31658 23.6834 3.70711 23.2929L8.3 18.7C8.6866 18.3134 9.3134 18.3134 9.7 18.7V18.7C10.0866 19.0866 10.0866 19.7134 9.7 20.1L6.15355 23.6464C5.95829 23.8417 5.95829 24.1583 6.15355 24.3536L9.7 27.9C10.0866 28.2866 10.0866 28.9134 9.7 29.3V29.3Z" fill="white"/>
</svg>
