<svg width="22" height="20" viewBox="0 0 22 20" fill="none" xmlns="http://www.w3.org/2000/svg">
<path d="M2 17.9971L2 4.69709C1.99994 4.49181 2.06305 4.29149 2.18077 4.12333C2.29849 3.95516 2.4651 3.82729 2.658 3.75709L12.329 0.241088C12.4045 0.213593 12.4856 0.204721 12.5653 0.215221C12.645 0.225722 12.721 0.255286 12.7869 0.301408C12.8527 0.347529 12.9065 0.408848 12.9436 0.480166C12.9807 0.551483 13 0.630695 13 0.711088V5.66409L19.316 7.76909C19.5152 7.83544 19.6885 7.9628 19.8112 8.13314C19.934 8.30347 20.0001 8.50812 20 8.71809L20 17.9971H22V19.9971L0 19.9971L0 17.9971H2ZM4 17.9971H11L11 2.85209L4 5.39809L4 17.9971ZM18 17.9971L18 9.43909L13 7.77209V17.9971L18 17.9971Z" fill="white"/>
</svg>
