<svg xmlns="http://www.w3.org/2000/svg" width="31" height="31" viewBox="0 0 31 31">
  <g id="new-work" transform="translate(-1424 -141.996)">
    <circle id="Ellipse_98" data-name="Ellipse 98" cx="15.5" cy="15.5" r="15.5" transform="translate(1424 141.996)" fill="#5f63f2" opacity="0.15"/>
    <path id="Path_3651" data-name="Path 3651" d="M14.454,8.271c0-.006,0-.012,0-.018L12.331,4.023A1.833,1.833,0,0,0,10.681,3H4.833A1.832,1.832,0,0,0,3.184,4.022L1.065,8.254c0,.006,0,.012,0,.017A.608.608,0,0,0,1,8.529v3.686a1.845,1.845,0,0,0,1.843,1.843h9.829a1.845,1.845,0,0,0,1.843-1.843V8.529A.6.6,0,0,0,14.454,8.271ZM4.283,4.571v0a.61.61,0,0,1,.549-.341h5.848a.61.61,0,0,1,.55.343l1.675,3.343H10.215a.615.615,0,0,0-.511.273L8.657,9.757h-1.8L5.811,8.188A.615.615,0,0,0,5.3,7.914H2.609Zm8.389,8.258H2.843a.615.615,0,0,1-.614-.614V9.143H4.971l1.046,1.57a.615.615,0,0,0,.511.273H8.986a.615.615,0,0,0,.511-.273l1.046-1.57h2.743v3.072A.615.615,0,0,1,12.672,12.829Z" transform="translate(1431.743 149.279)" fill="#5f63f2"/>
  </g>
</svg>
