<svg width="539" height="396" viewBox="0 0 539 396" fill="none" xmlns="http://www.w3.org/2000/svg">
<path d="M270.091 395.138C161.065 395.138 72.682 306.755 72.682 197.729C72.682 88.7033 161.065 0.320312 270.091 0.320312C379.117 0.320312 467.5 88.7033 467.5 197.729C467.5 306.755 379.117 395.138 270.091 395.138Z" fill="#ECF4FF"/>
<path d="M270.088 352.839C184.425 352.839 114.981 283.395 114.981 197.732C114.981 112.069 184.425 42.625 270.088 42.625C355.752 42.625 425.195 112.069 425.195 197.732C425.195 283.395 355.752 352.839 270.088 352.839Z" fill="#C7DDF1"/>
<path d="M371.521 97.3604C372.439 96.4424 373.927 96.4424 374.844 97.3604L386.904 109.42C386.946 109.462 387.01 109.572 387.084 109.714C387.438 110.397 387.593 111.178 387.593 111.948V394.27H150.232V113.123V111.948C150.232 110.773 150.775 109.569 150.924 109.42L162.984 97.3604C163.902 96.4424 165.39 96.4424 166.308 97.3604L177.679 108.732L189.051 97.3604C189.969 96.4424 191.457 96.4424 192.375 97.3604L203.747 108.732L215.118 97.3604C216.036 96.4424 217.524 96.4424 218.442 97.3604L229.814 108.732L241.185 97.3604C242.103 96.4424 243.591 96.4424 244.509 97.3604L255.881 108.732L267.252 97.3604C268.17 96.4424 269.658 96.4424 270.576 97.3604L281.948 108.732L293.32 97.3604C294.237 96.4424 295.725 96.4424 296.643 97.3604L308.015 108.732L319.387 97.3604C320.304 96.4424 321.792 96.4424 322.71 97.3604L334.082 108.732L345.454 97.3604C346.371 96.4424 347.859 96.4424 348.777 97.3604L360.149 108.732L371.521 97.3604Z" fill="#EAECF0" stroke="#152B70" stroke-width="1.67686"/>
<path d="M300.639 214.18C295.447 214.18 291.238 218.388 291.238 223.58C291.238 228.772 295.447 232.98 300.639 232.98C305.83 232.98 310.039 228.772 310.039 223.58C310.039 218.388 305.83 214.18 300.639 214.18ZM237.186 214.18C231.994 214.18 227.785 218.388 227.785 223.58C227.785 228.772 231.994 232.98 237.186 232.98C242.377 232.98 246.586 228.772 246.586 223.58C246.586 218.388 242.377 214.18 237.186 214.18Z" fill="#152B70"/>
<path d="M230.135 283.963C238.606 271.624 252.814 263.531 268.912 263.531C285.01 263.531 299.217 271.624 307.689 283.963" stroke="#0C2B42" stroke-width="2.79476" stroke-linecap="round"/>
<path d="M345.293 68.4757C341.4 68.4757 338.243 65.3191 338.243 61.4253C338.243 57.5315 341.4 54.375 345.293 54.375C349.187 54.375 352.344 57.5315 352.344 61.4253C352.344 65.3191 349.187 68.4757 345.293 68.4757Z" stroke="#0C2B42" stroke-width="1.67686"/>
<path d="M82.081 287.033C79.4852 287.033 77.3808 284.929 77.3808 282.333C77.3808 279.737 79.4852 277.633 82.081 277.633C84.6769 277.633 86.7812 279.737 86.7812 282.333C86.7812 284.929 84.6769 287.033 82.081 287.033Z" stroke="#0C2B42" stroke-width="1.67686"/>
<path d="M345.288 138.977H239.533M345.288 163.653H281.835" stroke="#ABC0DC" stroke-width="1.67686" stroke-linecap="round"/>
<path d="M364.093 364.587H173.734M364.093 341.086H249.877" stroke="#ABC0DC" stroke-width="1.67686" stroke-linecap="round"/>
<path d="M449.87 256.479C444.029 256.479 439.294 251.744 439.294 245.904C439.294 240.063 444.029 235.328 449.87 235.328C455.711 235.328 460.445 240.063 460.445 245.904C460.445 251.744 455.711 256.479 449.87 256.479Z" stroke="#0C2B42" stroke-width="1.67686"/>
<path d="M538 395.141H1" stroke="#6E7191" stroke-width="1.67686" stroke-linecap="round"/>
<path d="M126.649 108.428H103.229M143.181 88.1536V68.4766" stroke="#6E7191" stroke-width="1.67686" stroke-linecap="round"/>
<path d="M128.031 92.3202L112.453 76.7422" stroke="#6E7191" stroke-width="1.67686" stroke-linecap="round"/>
</svg>
