<svg width="90" height="60" viewBox="0 0 90 60" fill="none" xmlns="http://www.w3.org/2000/svg">
<path fill-rule="evenodd" clip-rule="evenodd" d="M29.9992 60C13.5903 60 0 46.4128 0 30.0076C0 13.3587 13.5903 0 29.9992 0C46.6367 0 59.9985 13.3587 59.9985 30.0076H51.5578C51.5578 18.0502 41.9593 8.43866 29.9992 8.43866C18.2829 8.43866 8.66915 18.0502 8.66915 30.0076C8.66915 41.7212 18.2829 51.3328 29.9992 51.3328V60Z" fill="white"/>
<path fill-rule="evenodd" clip-rule="evenodd" d="M59.9836 60C43.5747 60 29.9844 46.4128 29.9844 30.0076H38.6535C38.6535 41.7212 48.2673 51.3328 59.9836 51.3328C71.7151 51.3328 81.3137 41.7212 81.3137 30.0076C81.3137 18.0502 71.7151 8.43866 59.9836 8.43866V0C76.6363 0 89.9981 13.3587 89.9981 30.0076C89.9981 46.4128 76.6363 60 59.9836 60Z" fill="white"/>
</svg>
