<svg width="406" height="428" viewBox="0 0 406 428" fill="none" xmlns="http://www.w3.org/2000/svg">
<g opacity="0.15">
<path fill-rule="evenodd" clip-rule="evenodd" d="M61.4749 428C-77.0934 428 -191.859 331.078 -191.859 214.054C-191.859 95.2914 -77.0934 -0.000915527 61.4749 -0.000915527C201.973 -0.000915527 314.809 95.2914 314.809 214.054H243.53C243.53 128.758 162.474 60.195 61.4749 60.195C-37.4657 60.195 -118.651 128.758 -118.651 214.054C-118.651 297.611 -37.4657 366.174 61.4749 366.174V428Z" fill="#5F63F2"/>
<path fill-rule="evenodd" clip-rule="evenodd" d="M314.678 428C176.11 428 61.3438 331.078 61.3438 214.054H134.552C134.552 297.611 215.737 366.174 314.678 366.174C413.747 366.174 494.804 297.611 494.804 214.054C494.804 128.758 413.747 60.195 314.678 60.195V-0.000915527C455.305 -0.000915527 568.141 95.2914 568.141 214.054C568.141 331.078 455.305 428 314.678 428Z" fill="#5F63F2"/>
</g>
</svg>
