<svg width="22" height="21" viewBox="0 0 22 21" fill="none" xmlns="http://www.w3.org/2000/svg">
<path d="M6.23077 20.4615C4.99846 20.4615 3.79378 20.0961 2.76916 19.4114C1.74448 18.7268 0.945897 17.7537 0.474297 16.6152C0.00269744 15.4766 -0.120671 14.2238 0.119698 13.0152C0.360136 11.8066 0.953585 10.6963 1.82492 9.82492C2.69633 8.95358 3.80659 8.36014 5.01522 8.1197C6.22385 7.87933 7.47692 8.0027 8.61508 8.4743C9.75392 8.9459 10.7266 9.74447 11.4113 10.7692C12.096 11.7938 12.4615 12.9985 12.4615 14.2308H10.6837C10.6837 13.3512 10.4227 12.4913 9.93461 11.7601C9.44585 11.0287 8.75077 10.4587 7.93869 10.1221C7.12593 9.78546 6.23146 9.6974 5.36899 9.86902C4.5063 10.0406 3.71389 10.4641 3.09199 11.0861C2.47002 11.7081 2.04646 12.5005 1.87484 13.3632C1.70328 14.2259 1.79135 15.12 2.12795 15.9327C2.46455 16.7453 3.03452 17.4398 3.76588 17.9285C4.49723 18.4172 5.35701 18.678 6.23631 18.678L6.23077 20.4615Z" fill="#18ACF4"/>
<path d="M12.1153 20.4518C10.5549 20.4518 9.0581 19.7953 7.95456 18.6269C6.85102 17.4584 6.23071 15.8735 6.23071 14.221H7.91164C7.91025 15.1007 8.15602 15.9609 8.6164 16.693C9.07679 17.425 9.73241 17.9959 10.4995 18.3335C11.2666 18.6711 12.1112 18.7603 12.926 18.5896C13.7416 18.419 14.4899 17.9963 15.0784 17.375C15.6662 16.7536 16.067 15.9616 16.2304 15.099C16.3931 14.2364 16.3107 13.3421 15.9936 12.5291C15.6766 11.716 15.1386 11.0208 14.4484 10.5314C13.7582 10.042 12.9461 9.78041 12.1153 9.77965V8C12.8879 8 13.6536 8.16117 14.3674 8.4743C15.0812 8.78743 15.7299 9.24636 16.2761 9.82492C16.823 10.4036 17.2564 11.0904 17.552 11.8463C17.8476 12.6023 17.9999 13.4125 17.9999 14.2308C17.9999 15.049 17.8476 15.8592 17.552 16.6151C17.2564 17.3711 16.823 18.058 16.2761 18.6366C15.7299 19.2152 15.0812 19.6741 14.3674 19.9872C13.6536 20.3004 12.8879 20.4615 12.1153 20.4615" fill="#18ACF4"/>
<path d="M16.5833 4.58337V2.08337H17.4166V4.58337H19.9166V5.41671H17.4166V7.91671H16.5833V5.41671H14.0833V4.58337H16.5833Z" fill="#18ACF4"/>
</svg>
