<svg width="29" height="22" viewBox="0 0 29 22" fill="none" xmlns="http://www.w3.org/2000/svg">
<path d="M23.9865 13.2508C23.9942 13.2552 23.9973 13.2602 23.9982 13.2615L23.9991 13.2625C23.9994 13.2635 24.0001 13.2674 24.0001 13.2742V16.7654C24 17.1527 23.8143 17.5121 23.505 17.7381L23.3663 17.826C20.0438 19.6204 15.604 20.2532 11.3527 20.0516C7.35714 19.862 3.69615 18.9442 1.44446 17.7176L1.01282 17.4676C1.0065 17.4636 1.00271 17.46 1.00012 17.4578C1.00011 17.4528 1.0009 17.446 1.00305 17.4383C1.00535 17.4302 1.00812 17.4231 1.01086 17.4188C1.01425 17.4183 1.01936 17.4178 1.02649 17.4178C6.18154 17.4178 8.32706 17.519 11.7863 17.074L12.4972 16.9774C16.9792 16.3385 20.9503 15.0644 23.9611 13.2508L23.9601 13.2498C23.9665 13.2461 23.9706 13.246 23.9708 13.2459L23.9865 13.2508Z" stroke="#9C9FFF" stroke-width="2"/>
<path d="M22.2793 1.12305C23.0717 0.737732 24 1.31426 24 2.2041V13.2734L23.9844 13.2979C21.1765 14.9903 17.6147 16.2097 13.3623 16.9004L12.5029 17.0312C8.61592 17.5859 6.67961 17.4717 1.02637 17.4717C1.02108 17.4716 1.01837 17.4705 1.0166 17.4697C1.01417 17.4687 1.01088 17.4669 1.00781 17.4639C1.00482 17.4609 1.00303 17.4575 1.00195 17.4551C1.00119 17.4533 1 17.45 1 17.4443V5.57812C1 4.91784 1.53992 4.37797 2.2002 4.37793C7.64476 4.37793 6.79379 4.38212 7.04688 4.37695L7.0459 4.37598C9.03281 4.34676 15.8681 4.04832 21.7158 1.3877L22.2793 1.12305Z" stroke="#5F63F2" stroke-width="2"/>
<path d="M12.5023 8.02997C13.9538 8.02997 15.1351 9.21442 15.1351 10.6628C15.1351 12.1152 13.9547 13.2956 12.5023 13.2956C11.0499 13.2955 9.86951 12.1152 9.86951 10.6628C9.86955 9.21044 11.05 8.03001 12.5023 8.02997Z" stroke="#5F63F2" stroke-width="2"/>
<path d="M20.9746 3.92267C21.1876 3.85111 21.4232 3.96666 21.4971 4.18634C21.5682 4.39862 21.4537 4.63327 21.2354 4.70782C20.461 4.96522 20.101 5.08981 19.9004 5.15314C19.8001 5.18479 19.7656 5.1929 19.7529 5.19513C19.752 5.19543 19.7471 5.19611 19.71 5.19611C19.5585 5.1961 19.4166 5.11073 19.3457 4.97443L19.3203 4.91388L19.3193 4.91095L19.3008 4.8299C19.2779 4.64147 19.3896 4.45258 19.5811 4.38751L19.582 4.38849L20.9736 3.92267H20.9746Z" fill="#91E1C3" stroke="#9C9FFF" stroke-width="1.00137"/>
<path d="M4.39966 14.5744H5.79224C6.01994 14.5747 6.20419 14.7588 6.20435 14.9865C6.20435 15.2144 6.02004 15.3993 5.79224 15.3996H4.39966C4.17178 15.3994 3.98755 15.2144 3.98755 14.9865C3.98771 14.7587 4.17188 14.5746 4.39966 14.5744Z" fill="#91E1C3" stroke="#9C9FFF" stroke-width="1.00137"/>
<path d="M22.5 22C18.9147 22 16 19.0853 16 15.5C16 11.9147 18.9147 9 22.5 9C26.0853 9 29 11.9147 29 15.5C29 19.0853 26.0853 22 22.5 22Z" fill="#FFB5D2"/>
<path d="M21.0867 18C20.7225 18 20.3583 17.8262 20.1544 17.5187C19.8485 17.0508 20.0087 16.4225 20.5331 16.1417L21.6402 15.5267C21.7422 15.4733 21.815 15.3529 21.815 15.246V14.0027C21.815 13.4545 22.3103 13 22.9075 13C23.5047 13 24 13.4545 24 14.0027V15.246C24 16.0615 23.5193 16.8369 22.7619 17.2513L21.6548 17.8663C21.48 17.9599 21.276 18 21.0867 18Z" fill="#FF68A5"/>
</svg>
