<svg width="21" height="21" viewBox="0 0 21 21" fill="none" xmlns="http://www.w3.org/2000/svg">
<path d="M10.6771 18.8346C15.2795 18.8346 19.0104 15.1037 19.0104 10.5013C19.0104 5.89893 15.2795 2.16797 10.6771 2.16797C6.07471 2.16797 2.34375 5.89893 2.34375 10.5013C2.34375 15.1037 6.07471 18.8346 10.6771 18.8346Z" fill="#9E9E9E"/>
<path d="M9.63385 12.6109V8.39427C9.63385 7.99427 9.46719 7.83594 9.04219 7.83594H7.95885C7.53385 7.83594 7.36719 7.99427 7.36719 8.39427V12.6109C7.36719 13.0109 7.53385 13.1693 7.95885 13.1693H9.03385C9.46719 13.1693 9.63385 13.0109 9.63385 12.6109Z" fill="#9E9E9E" stroke="white" stroke-linecap="round" stroke-linejoin="round"/>
<path d="M14.0396 12.6109V8.39427C14.0396 7.99427 13.8729 7.83594 13.4479 7.83594H12.3729C11.9479 7.83594 11.7812 7.99427 11.7812 8.39427V12.6109C11.7812 13.0109 11.9479 13.1693 12.3729 13.1693H13.4479C13.8729 13.1693 14.0396 13.0109 14.0396 12.6109Z" fill="#9E9E9E" stroke="white" stroke-linecap="round" stroke-linejoin="round"/>
</svg>
