<svg width="24" height="24" viewBox="0 0 24 24" fill="none" xmlns="http://www.w3.org/2000/svg">
<g clip-path="url(#clip0_14303_57807)">
<path d="M5.81543 0.5H14.1914L21.0986 7.40723V20.876C21.0984 22.2962 19.8591 23.5 18.2627 23.5H5.74023C4.13696 23.4998 2.89869 22.2955 2.89844 20.876V3.12402C2.89864 1.71807 4.19705 0.5 5.81543 0.5Z" stroke="#01A9F3"/>
<path d="M20.3936 6.7002H16.8086C15.8629 6.70017 15.4048 6.37159 15.1729 6.0459C14.9213 5.69255 14.8713 5.25135 14.9092 4.95996L14.9141 4.92871V1.20898L20.3936 6.7002Z" stroke="#01A9F3"/>
<path d="M6.49938 19.2031V14.8395H8.22097C8.55194 14.8395 8.8339 14.9027 9.06685 15.0291C9.2998 15.1541 9.47736 15.3281 9.59952 15.5511C9.7231 15.7727 9.78489 16.0284 9.78489 16.3182C9.78489 16.608 9.72239 16.8636 9.59739 17.0852C9.47239 17.3068 9.29128 17.4794 9.05407 17.603C8.81827 17.7266 8.53276 17.7884 8.19753 17.7884H7.10023V17.049H8.04838C8.22594 17.049 8.37225 17.0185 8.4873 16.9574C8.60378 16.8949 8.69043 16.8089 8.74725 16.6996C8.80549 16.5888 8.83461 16.4616 8.83461 16.3182C8.83461 16.1733 8.80549 16.0469 8.74725 15.9389C8.69043 15.8295 8.60378 15.745 8.4873 15.6854C8.37083 15.6243 8.2231 15.5938 8.04412 15.5938H7.42196V19.2031H6.49938ZM11.931 19.2031H10.3841V14.8395H11.9438C12.3827 14.8395 12.7606 14.9268 13.0773 15.1016C13.3941 15.2749 13.6377 15.5241 13.8082 15.8494C13.98 16.1747 14.066 16.5639 14.066 17.017C14.066 17.4716 13.98 17.8622 13.8082 18.1889C13.6377 18.5156 13.3927 18.7663 13.0731 18.9411C12.7549 19.1158 12.3742 19.2031 11.931 19.2031ZM11.3067 18.4126H11.8927C12.1654 18.4126 12.3948 18.3643 12.5809 18.2678C12.7684 18.1697 12.909 18.0185 13.0028 17.8139C13.0979 17.608 13.1455 17.3423 13.1455 17.017C13.1455 16.6946 13.0979 16.4311 13.0028 16.2266C12.909 16.022 12.7691 15.8714 12.583 15.7749C12.3969 15.6783 12.1675 15.63 11.8948 15.63H11.3067V18.4126ZM14.7494 19.2031V14.8395H17.6386V15.6001H15.672V16.6399H17.4468V17.4006H15.672V19.2031H14.7494Z" fill="#01A9F3"/>
</g>
<defs>
<clipPath id="clip0_14303_57807">
<rect width="24" height="24" fill="white"/>
</clipPath>
</defs>
</svg>
