<svg width="39" height="44" viewBox="0 0 39 44" fill="none" xmlns="http://www.w3.org/2000/svg">
<path d="M25.8102 37.4796H7.35547V39.8376C7.35547 40.7166 7.70462 41.5596 8.32611 42.1812C8.94761 42.8028 9.79056 43.1521 10.6696 43.1522H35.6863C36.5652 43.1521 37.4081 42.8028 38.0296 42.1814C38.6511 41.5599 39.0003 40.717 39.0004 39.8381V11.6266L27.3733 0H10.6696C9.79061 0 8.94765 0.349161 8.32614 0.970673C7.70463 1.59219 7.35547 2.43514 7.35547 3.31409V20.2954H25.8102C26.2248 20.2954 26.6223 20.4601 26.9155 20.7532C27.2086 21.0464 27.3733 21.4439 27.3733 21.8585V35.9165C27.3732 36.331 27.2084 36.7285 26.9153 37.0216C26.6222 37.3147 26.2247 37.4795 25.8102 37.4796Z" fill="#EAEAE4"/>
<path d="M39.0002 11.6266L27.373 0V8.31255C27.3732 9.19146 27.7224 10.0343 28.3439 10.6558C28.9653 11.2773 29.8082 11.6265 30.6871 11.6266H39.0002Z" fill="#BABAB9"/>
<path d="M25.8098 20.2949H1.56307C0.699809 20.2949 0 20.9947 0 21.858V35.916C0 36.7793 0.699809 37.4791 1.56307 37.4791H25.8098C26.6731 37.4791 27.3729 36.7793 27.3729 35.916V21.858C27.3729 20.9947 26.6731 20.2949 25.8098 20.2949Z" fill="#F24646"/>
<path d="M6.477 30.1007C7.97678 30.1007 9.08435 29.1345 9.08435 27.7652C9.08435 26.3958 7.97678 25.4297 6.477 25.4297H3.36621V32.346H4.84633V30.1007H6.477ZM4.84681 26.789H6.31446C7.04949 26.789 7.55245 27.1726 7.55245 27.7652C7.55245 28.3578 7.04949 28.7419 6.31446 28.7419H4.84633L4.84681 26.789Z" fill="#FFFCEE"/>
<path d="M17.0279 28.8819C17.0279 26.8585 15.3771 25.4297 13.0516 25.4297H10.5752V32.3451H13.0516C15.3761 32.3451 17.0279 30.9052 17.0279 28.8819ZM13.243 30.9963H12.0548V26.777H13.243C13.5314 26.7585 13.8205 26.7994 14.0924 26.8971C14.3644 26.9948 14.6135 27.1471 14.8243 27.3449C15.035 27.5426 15.203 27.7814 15.3178 28.0466C15.4327 28.3118 15.4919 28.5977 15.4919 28.8867C15.4919 29.1756 15.4327 29.4616 15.3178 29.7267C15.203 29.9919 15.035 30.2307 14.8243 30.4285C14.6135 30.6262 14.3644 30.7786 14.0924 30.8762C13.8205 30.9739 13.5314 31.0148 13.243 30.9963Z" fill="#FFFCEE"/>
<path d="M24.0061 26.7688V25.4297H18.6807V32.346H20.1704V29.6078H23.6436V28.2686H20.1704V26.7688H24.0061Z" fill="#FFFCEE"/>
</svg>
