<svg width="21" height="21" viewBox="0 0 21 21" fill="none" xmlns="http://www.w3.org/2000/svg">
<path d="M10.474 18.8346C15.0763 18.8346 18.8073 15.1037 18.8073 10.5013C18.8073 5.89893 15.0763 2.16797 10.474 2.16797C5.87158 2.16797 2.14062 5.89893 2.14062 10.5013C2.14062 15.1037 5.87158 18.8346 10.474 18.8346Z" fill="#FDB022"/>
<path d="M11.5182 14.524C13.3057 14.0531 14.6224 12.4281 14.6224 10.4948C14.6224 8.19479 12.7724 6.32812 10.4557 6.32812C7.67656 6.32812 6.28906 8.64479 6.28906 8.64479M6.28906 8.64479V6.74479M6.28906 8.64479H7.12656H8.13906" stroke="white" stroke-linecap="round" stroke-linejoin="round"/>
<path d="M10.8984 8.42188V11.1302" stroke="white" stroke-linecap="round" stroke-linejoin="round"/>
<path d="M9.02344 11.9583L10.8984 11.125" stroke="white" stroke-linecap="round" stroke-linejoin="round"/>
<path d="M5.96875 10C5.96875 12.76 7.76075 15 9.96875 15" stroke="white" stroke-linecap="round" stroke-linejoin="round" stroke-dasharray="1.5 1.5"/>
</svg>
