<svg width="20" height="21" viewBox="0 0 20 21" fill="none" xmlns="http://www.w3.org/2000/svg">
<path d="M9.97396 18.8346C14.5763 18.8346 18.3073 15.1037 18.3073 10.5013C18.3073 5.89893 14.5763 2.16797 9.97396 2.16797C5.37159 2.16797 1.64062 5.89893 1.64062 10.5013C1.64062 15.1037 5.37159 18.8346 9.97396 18.8346Z" fill="#7CD4FD"/>
<path d="M4.96875 8.28391H5.97375H7.18875" fill="#7CD4FD"/>
<path d="M11.2438 15.3389C13.3888 14.7739 14.9688 12.8239 14.9688 10.5039C14.9688 7.74391 12.7487 5.50391 9.96875 5.50391C6.63375 5.50391 4.96875 8.28391 4.96875 8.28391M4.96875 8.28391V6.00391M4.96875 8.28391H5.97375H7.18875" stroke="white" stroke-linecap="round" stroke-linejoin="round"/>
<path d="M4.96875 10.5039C4.96875 13.2639 7.20875 15.5039 9.96875 15.5039L4.96875 10.5039Z" fill="#7CD4FD"/>
<path d="M4.96875 10.5039C4.96875 13.2639 7.20875 15.5039 9.96875 15.5039" stroke="white" stroke-linecap="round" stroke-linejoin="round" stroke-dasharray="1.5 1.5"/>
</svg>
