<svg xmlns="http://www.w3.org/2000/svg" width="31" height="31" viewBox="0 0 31 31">
  <g id="work-reopen" transform="translate(-952 -1414)">
    <circle id="Ellipse_105" data-name="Ellipse 105" cx="15.5" cy="15.5" r="15.5" transform="translate(952 1414)" fill="#92c603" opacity="0.15"/>
    <g id="arrow-clockwise" transform="translate(959.499 1422.358)">
      <path id="Path_3654" data-name="Path 3654" d="M8,3a5,5,0,1,0,4.546,2.914.5.5,0,0,1,.908-.417A6,6,0,1,1,8,2Z" fill="#92c603" stroke="#92c603" stroke-width="0.5" fill-rule="evenodd"/>
      <path id="Path_3655" data-name="Path 3655" d="M8,4.466V.534A.25.25,0,0,1,8.41.342l2.36,1.966a.25.25,0,0,1,0,.384L8.41,4.658A.25.25,0,0,1,8,4.466Z" fill="#92c603" stroke="#92c603" stroke-width="0.5"/>
    </g>
  </g>
</svg>
