<svg xmlns="http://www.w3.org/2000/svg" width="31" height="31" viewBox="0 0 31 31">
  <g id="resume-icon" transform="translate(-618.992 -376.786)">
    <g id="Group_1945" data-name="Group 1945" transform="translate(262.492 -36.969)">
      <circle id="Ellipse_102" data-name="Ellipse 102" cx="15.5" cy="15.5" r="15.5" transform="translate(356.5 413.755)" fill="#2c99ff" opacity="0.15"/>
    </g>
    <g id="resume" transform="translate(381.996 -60.959)">
      <g id="Group_2437" data-name="Group 2437" transform="translate(244.996 445.789)">
        <g id="Group_2434" data-name="Group 2434">
          <path id="Path_1066" data-name="Path 1066" d="M5.083,14.612a1.428,1.428,0,0,1-1.506.289,1.323,1.323,0,0,1-.855-1.221V1.323A1.323,1.323,0,0,1,3.576.1,1.428,1.428,0,0,1,5.083.39l6.106,5.87a1.7,1.7,0,0,1,0,2.477Z" transform="translate(-2.722 -0.001)" fill="#2c99ff"/>
        </g>
        <g id="Group_2436" data-name="Group 2436" transform="translate(11.691)">
          <g id="Group_2435" data-name="Group 2435">
            <path id="Path_1067" data-name="Path 1067" d="M34.752,13.956a1.49,1.49,0,0,1-1.061-.445,1.529,1.529,0,0,1-.439-1.075V1.51a1.524,1.524,0,0,1,.74-1.345,1.483,1.483,0,0,1,1.52,0,1.524,1.524,0,0,1,.74,1.345v10.93a1.51,1.51,0,0,1-1.5,1.516Z" transform="translate(-33.252)" fill="#2c99ff"/>
          </g>
        </g>
      </g>
    </g>
  </g>
</svg>
