<svg width="15" height="48" viewBox="0 0 15 48" fill="none" xmlns="http://www.w3.org/2000/svg">
<path d="M14.3984 0H4.39844C2.1893 0 0.398438 1.79086 0.398438 4V44C0.398438 46.2091 2.1893 48 4.39844 48H14.3984V0Z" fill="#5F63F2"/>
<path d="M4.69844 29.3C5.08504 29.6866 5.71184 29.6866 6.09844 29.3L10.6913 24.7071C11.0819 24.3166 11.0819 23.6834 10.6913 23.2929L6.09844 18.7C5.71184 18.3134 5.08504 18.3134 4.69844 18.7V18.7C4.31184 19.0866 4.31184 19.7134 4.69844 20.1L8.24488 23.6464C8.44015 23.8417 8.44015 24.1583 8.24488 24.3536L4.69844 27.9C4.31184 28.2866 4.31184 28.9134 4.69844 29.3V29.3Z" fill="white"/>
</svg>
