<svg width="361" height="497" viewBox="0 0 361 497" fill="none" xmlns="http://www.w3.org/2000/svg">
<g filter="url(#filter0_d_1059_1510)">
<path d="M165.228 391.846C208.709 396.392 250.859 334.06 259.372 252.623C267.886 171.187 239.538 101.485 196.056 96.9395C152.575 92.3941 110.425 154.726 101.912 236.163C93.3984 317.599 121.746 387.301 165.228 391.846Z" fill="#00ACA9"/>
</g>
<g clip-path="url(#clip0_1059_1510)">
<g filter="url(#filter1_diiiiiii_1059_1510)">
<path d="M69.2902 98.265C69.734 90.2777 76.5687 84.1625 84.556 84.6062L271.36 94.9848L291.412 114.837L309.323 129.734L294.257 400.901C293.813 408.888 286.979 415.003 278.991 414.56L66.879 402.775C58.8917 402.331 52.7765 395.496 53.2203 387.509L69.2902 98.265Z" fill="white"/>
</g>
<path d="M255.936 160.964L253.149 160.809C251.631 164.383 249.08 170.315 247.675 173.567C247.535 173.88 247.368 174.178 247.168 174.46L249.096 174.567C249.623 174.562 250.109 174.296 250.387 173.847C250.432 173.781 250.477 173.709 250.508 173.635L251.85 170.523C253.515 166.65 255.769 161.391 255.936 160.964Z" fill="#B8E3E2"/>
<path d="M285.17 169.58L283.827 172.699C283.578 173.252 283.032 173.611 282.423 173.618L280.494 173.511C280.71 173.209 280.898 172.885 281.04 172.545L282.383 169.426L279.589 169.271L278.253 172.39C278.004 172.943 277.451 173.301 276.849 173.309L274.907 173.201C275.122 172.899 275.304 172.575 275.453 172.235L276.795 169.116L274.001 168.961L272.666 172.08C272.416 172.633 271.87 172.992 271.261 172.999L262.335 172.504C262.556 172.209 262.738 171.891 262.887 171.558L263.225 170.758C264.105 168.705 263.115 166.958 261.023 166.842L257.848 166.666L256.678 169.392L259.867 169.569C260.419 169.599 260.68 170.057 260.445 170.597L260.093 171.397C259.844 171.942 259.298 172.294 258.697 172.295L254.104 172.04L252.934 174.773L281.273 176.345C283.372 176.462 285.741 174.907 286.62 172.868L287.971 169.729L285.17 169.58Z" fill="#B8E3E2"/>
<path d="M240.503 174.091L233.123 173.681L234.294 170.948L241.68 171.358C242.289 171.351 242.842 170.993 243.098 170.44L243.428 169.667C243.656 169.127 243.402 168.669 242.85 168.639L238.264 168.384L239.434 165.651L244.013 165.905C246.112 166.022 247.088 167.775 246.215 169.822L245.885 170.595C245.005 172.648 242.595 174.2 240.503 174.091Z" fill="#B8E3E2"/>
<path d="M252.744 177.957L252.403 177.938L252.254 178.278L252.595 178.297L252.744 177.957Z" fill="#B8E3E2"/>
<path d="M253.415 179.024C253.367 179.157 253.265 179.268 253.138 179.336C253.027 179.377 252.903 179.391 252.78 179.377L251.922 179.33C251.785 179.336 251.644 179.294 251.532 179.206C251.448 179.119 251.449 178.976 251.536 178.776L251.763 178.263L251.415 178.244L251.188 178.757C250.937 179.337 251.139 179.648 251.813 179.685L252.951 179.749C253.258 179.766 253.542 179.577 253.647 179.282L254.039 178.376L253.698 178.357L253.415 179.024Z" fill="#B8E3E2"/>
<path d="M253.343 177.99L252.996 177.971L252.854 178.311L253.194 178.33L253.343 177.99Z" fill="#B8E3E2"/>
<path d="M255.639 179.202C255.686 179.089 255.76 178.991 255.854 178.907C255.94 178.823 256.059 178.782 256.181 178.789C256.345 178.798 256.422 178.884 256.413 179.047L256.775 178.924C256.781 178.692 256.601 178.498 256.369 178.492C256.355 178.491 256.342 178.491 256.328 178.49C256.11 178.478 255.894 178.548 255.716 178.674C255.531 178.8 255.379 178.969 255.285 179.176C255.238 179.276 255.212 179.39 255.212 179.506L254.646 179.475C254.557 179.483 254.463 179.458 254.39 179.406C254.345 179.356 254.351 179.254 254.407 179.107L254.964 177.82L254.623 177.802L254.018 179.221C253.949 179.347 253.935 179.49 253.975 179.629C254.037 179.748 254.162 179.823 254.3 179.81L256.351 179.924L256.5 179.571L255.608 179.521C255.566 179.41 255.573 179.287 255.626 179.188" fill="#B8E3E2"/>
<path d="M260.521 178.094L260.18 178.076L260.031 178.416L260.372 178.435L260.521 178.094Z" fill="#B8E3E2"/>
<path d="M260.092 178.684C259.648 178.68 259.244 178.945 259.077 179.352C259.023 179.465 259.002 179.593 259.009 179.723L258.15 179.675L258.307 179.316C258.48 178.916 258.346 178.608 257.951 178.586C257.521 178.576 257.124 178.834 256.952 179.227C256.779 179.634 256.952 179.957 257.334 179.978L257.668 179.997C257.57 180.148 257.395 180.227 257.218 180.217L257.1 180.484C257.474 180.525 257.826 180.34 258.002 180.008L259.48 180.09C259.925 180.095 260.322 179.83 260.488 179.423C260.661 179.023 260.515 178.688 260.093 178.664M257.797 179.642L257.483 179.625C257.292 179.614 257.234 179.434 257.314 179.226C257.393 179.026 257.585 178.9 257.804 178.899C257.988 178.909 258.042 179.042 257.977 179.229L257.797 179.642ZM259.621 179.778C259.41 179.766 259.345 179.578 259.439 179.358C259.513 179.144 259.713 178.991 259.945 178.983C260.157 178.995 260.229 179.177 260.127 179.41C260.046 179.624 259.847 179.77 259.621 179.778Z" fill="#B8E3E2"/>
<path d="M266.499 179.811C266.467 179.891 266.429 179.964 266.377 180.03C266.305 180.101 266.208 180.129 266.113 180.117L265.322 180.073C265.423 179.977 265.506 179.852 265.547 179.717L266.097 178.431L265.75 178.412L265.193 179.698C265.161 179.785 265.115 179.864 265.057 179.929C264.985 180 264.887 180.036 264.792 180.023L264.267 179.994L264.306 179.908C264.39 179.749 264.401 179.551 264.335 179.384C264.255 179.229 264.089 179.138 263.918 179.149C263.707 179.138 263.491 179.201 263.321 179.321C263.136 179.447 262.996 179.617 262.91 179.824C262.908 179.858 262.879 179.89 262.87 179.924L262.141 179.883C262.368 179.357 262.299 179.012 261.939 178.848C261.885 178.825 261.825 178.801 261.771 178.791L261.444 178.773L261.31 179.087C261.413 179.092 261.514 179.105 261.616 179.131C261.905 179.215 261.966 179.457 261.793 179.864L260.655 179.801L260.506 180.147L262.871 180.279C262.936 180.466 263.121 180.579 263.32 180.563C263.565 180.576 263.816 180.495 264.002 180.341L266.067 180.456C266.414 180.482 266.734 180.261 266.834 179.925L267.44 178.498L267.086 178.479L266.499 179.811ZM263.731 180.183C263.645 180.253 263.54 180.288 263.431 180.282C263.213 180.27 263.155 180.083 263.249 179.863C263.296 179.763 263.363 179.671 263.448 179.601C263.535 179.524 263.646 179.489 263.755 179.495C263.851 179.494 263.937 179.546 263.966 179.636C263.988 179.733 263.975 179.835 263.93 179.921C263.89 180.014 263.824 180.106 263.731 180.183Z" fill="#B8E3E2"/>
<path d="M269.054 179.264C269 179.241 268.94 179.217 268.886 179.207L268.559 179.189L268.425 179.502C268.527 179.508 268.629 179.52 268.73 179.546C269.019 179.631 269.081 179.873 268.908 180.28L267.777 180.217L267.628 180.563L269.12 180.646L269.269 180.3C269.483 179.772 269.414 179.427 269.054 179.264Z" fill="#B8E3E2"/>
<path d="M269.432 180.663L269.78 180.682L270.635 178.696L270.288 178.677L269.432 180.663Z" fill="#B8E3E2"/>
<path d="M274.577 180.239C274.482 180.465 274.339 180.573 274.162 180.564L273.828 180.545C273.937 180.442 274.019 180.317 274.061 180.176L274.358 179.503L274.01 179.484L273.711 180.191C273.617 180.417 273.474 180.525 273.297 180.516L272.97 180.497L272.971 180.477C273.065 180.373 273.134 180.254 273.182 180.12L273.479 179.448L273.104 179.427L272.807 180.106C272.704 180.353 272.562 180.461 272.384 180.451L271.737 180.415C271.957 179.902 271.895 179.544 271.535 179.381C271.482 179.357 271.421 179.333 271.367 179.324L271.04 179.305L270.907 179.619C271.009 179.624 271.111 179.637 271.212 179.663C271.501 179.747 271.563 179.99 271.39 180.396L270.252 180.333L270.103 180.68L274.055 180.899C274.48 180.875 274.844 180.601 274.975 180.199L275.265 179.54L274.897 179.519L274.577 180.239Z" fill="#B8E3E2"/>
<path d="M277.824 179.696L276.939 179.647C276.447 179.64 276.005 179.957 275.843 180.426L275.393 181.506L275.747 181.526L276.187 180.499C276.329 180.166 276.572 179.968 276.804 179.981L277.063 179.995C276.961 180.099 276.873 180.217 276.817 180.35C276.645 180.75 276.797 181.079 277.22 181.103C277.657 181.106 278.055 180.842 278.228 180.435C278.401 180.028 278.255 179.7 277.832 179.676M277.367 180.79C277.156 180.778 277.084 180.59 277.185 180.37C277.259 180.156 277.459 180.003 277.692 179.996C277.91 180.008 277.968 180.189 277.873 180.422C277.793 180.636 277.593 180.782 277.367 180.79Z" fill="#B8E3E2"/>
<path d="M281.921 179.288L281.581 179.269L281.432 179.609L281.773 179.628L281.921 179.288Z" fill="#B8E3E2"/>
<path d="M283.778 179.391L283.437 179.372L283.295 179.713L283.636 179.732L283.778 179.391Z" fill="#B8E3E2"/>
<path d="M283.163 179.992L282.864 180.712C282.832 180.792 282.793 180.865 282.742 180.93C282.67 181.001 282.572 181.03 282.477 181.018L281.912 180.987C282.211 180.287 282.081 179.918 281.549 179.888C281.215 179.87 280.845 180.02 280.395 180.37L280.914 179.259L280.567 179.24L279.868 180.873L279.145 180.833C279.056 180.842 278.962 180.816 278.889 180.764C278.844 180.714 278.85 180.612 278.906 180.465L279.463 179.179L279.122 179.16L278.517 180.58C278.448 180.706 278.427 180.848 278.474 180.987C278.535 181.107 278.661 181.182 278.799 181.169L282.403 181.369C282.75 181.395 283.07 181.174 283.171 180.838L283.532 179.998L283.163 179.992ZM281.53 180.972L280.133 180.895C280.525 180.48 281.027 180.18 281.375 180.199C281.674 180.216 281.749 180.479 281.583 180.873C281.575 180.907 281.559 180.94 281.537 180.973" fill="#B8E3E2"/>
<path d="M87.0421 166.05L87.1273 164.517L88.4578 164.591L88.8483 157.563L87.5178 157.489L87.6029 155.956L92.1875 156.211L92.1023 157.744L90.7573 157.669L90.3668 164.697L91.7118 164.772L91.6266 166.305L87.0421 166.05ZM93.4612 166.407L93.8806 158.858L95.7318 158.961L95.6619 160.219L95.7342 160.223C95.9109 159.827 96.1707 159.502 96.5135 159.251C96.8665 158.99 97.3371 158.876 97.9252 158.908C98.7062 158.952 99.2897 159.241 99.6759 159.775C100.062 160.309 100.229 161.048 100.177 161.993L99.9113 166.765L98.0602 166.662L98.3149 162.078C98.3449 161.538 98.271 161.128 98.0931 160.847C97.9153 160.567 97.6046 160.414 97.1611 160.389C96.9683 160.379 96.7787 160.397 96.5923 160.445C96.416 160.483 96.2527 160.552 96.1022 160.65C95.9618 160.738 95.844 160.858 95.7486 161.007C95.6538 161.147 95.6008 161.318 95.5896 161.521L95.3123 166.51L93.4612 166.407ZM103.47 166.963L101.373 159.274L103.195 159.375L104.07 162.688L104.659 165.419L104.76 165.425L105.647 162.776L106.854 159.579L108.619 159.677L105.668 167.085L103.47 166.963ZM112.306 167.628C111.766 167.598 111.284 167.479 110.86 167.272C110.446 167.065 110.095 166.78 109.805 166.416C109.526 166.052 109.317 165.625 109.18 165.133C109.044 164.633 108.992 164.078 109.026 163.471C109.06 162.864 109.172 162.323 109.363 161.851C109.553 161.378 109.807 160.981 110.125 160.66C110.453 160.33 110.834 160.085 111.268 159.925C111.712 159.766 112.204 159.702 112.744 159.732C113.284 159.762 113.766 159.88 114.19 160.088C114.613 160.295 114.965 160.581 115.245 160.944C115.535 161.299 115.748 161.722 115.885 162.213C116.022 162.704 116.074 163.253 116.04 163.861C116.006 164.468 115.894 165.013 115.703 165.496C115.512 165.969 115.253 166.37 114.925 166.7C114.607 167.031 114.226 167.275 113.782 167.434C113.338 167.593 112.846 167.658 112.306 167.628ZM112.388 166.138C112.88 166.166 113.274 166.038 113.57 165.755C113.867 165.471 114.031 165.04 114.063 164.462L114.141 163.059C114.172 162.49 114.057 162.048 113.794 161.734C113.531 161.42 113.153 161.249 112.662 161.221C112.18 161.195 111.79 161.323 111.494 161.606C111.198 161.89 111.034 162.316 111.002 162.885L110.925 164.287C110.892 164.866 111.008 165.312 111.271 165.627C111.534 165.941 111.906 166.112 112.388 166.138ZM118.877 159.144C118.491 159.123 118.216 159.02 118.052 158.837C117.898 158.655 117.829 158.428 117.844 158.158L117.86 157.869C117.875 157.599 117.969 157.382 118.142 157.217C118.326 157.053 118.61 156.982 118.996 157.004C119.372 157.025 119.642 157.127 119.806 157.31C119.97 157.493 120.044 157.72 120.029 157.99L120.013 158.279C119.998 158.549 119.899 158.766 119.716 158.93C119.532 159.093 119.253 159.165 118.877 159.144ZM117.89 160.192L119.741 160.295L119.322 167.844L117.471 167.741L117.89 160.192ZM124.437 168.302C123.878 168.271 123.387 168.152 122.963 167.944C122.539 167.737 122.188 167.452 121.908 167.088C121.638 166.725 121.439 166.298 121.312 165.807C121.185 165.307 121.138 164.753 121.172 164.146C121.206 163.538 121.313 162.998 121.494 162.525C121.675 162.051 121.92 161.654 122.228 161.332C122.546 161.002 122.927 160.757 123.371 160.598C123.815 160.439 124.317 160.375 124.876 160.406C125.638 160.448 126.255 160.652 126.728 161.016C127.211 161.382 127.546 161.869 127.735 162.48L126.178 163.075C126.109 162.752 125.96 162.482 125.73 162.267C125.51 162.042 125.198 161.918 124.793 161.895C124.273 161.867 123.873 162.009 123.594 162.322C123.326 162.636 123.176 163.058 123.147 163.588L123.071 164.962C123.041 165.492 123.143 165.929 123.375 166.27C123.618 166.603 123.999 166.784 124.52 166.812C124.963 166.837 125.312 166.745 125.565 166.537C125.819 166.319 126.023 166.045 126.177 165.715L127.556 166.473C127.269 167.125 126.86 167.605 126.33 167.914C125.801 168.213 125.17 168.343 124.437 168.302ZM131.854 168.714C131.294 168.683 130.798 168.564 130.365 168.356C129.942 168.139 129.585 167.853 129.295 167.498C129.016 167.135 128.807 166.707 128.67 166.216C128.534 165.715 128.482 165.161 128.516 164.554C128.549 163.956 128.656 163.421 128.837 162.947C129.028 162.474 129.282 162.077 129.6 161.756C129.918 161.426 130.299 161.181 130.743 161.022C131.188 160.853 131.685 160.784 132.234 160.815C132.823 160.847 133.328 160.977 133.751 161.204C134.173 161.43 134.515 161.725 134.775 162.087C135.035 162.45 135.22 162.866 135.329 163.337C135.449 163.798 135.494 164.289 135.465 164.809L135.431 165.417L130.413 165.138L130.403 165.326C130.372 165.876 130.502 166.328 130.791 166.682C131.082 167.027 131.531 167.216 132.138 167.25C132.601 167.276 132.982 167.2 133.282 167.024C133.592 166.847 133.871 166.616 134.119 166.33L135.055 167.499C134.722 167.916 134.279 168.235 133.725 168.455C133.181 168.667 132.557 168.753 131.854 168.714ZM132.186 162.205C131.695 162.177 131.295 162.32 130.987 162.631C130.68 162.943 130.512 163.359 130.483 163.88L130.476 163.996L133.571 164.167L133.579 164.037C133.608 163.517 133.501 163.09 133.258 162.757C133.026 162.416 132.668 162.231 132.186 162.205Z" fill="#26313D" fill-opacity="0.5"/>
<path d="M244.932 365.242L243.076 365.139L241.327 361.802L241.291 361.8L239.207 364.924L237.472 364.828L240.435 360.665L238.06 356.422L239.916 356.525L241.533 359.613L241.569 359.615L243.543 356.727L245.279 356.823L242.424 360.775L244.932 365.242ZM252.829 365.681L250.973 365.578L249.224 362.241L249.188 362.239L247.105 365.363L245.369 365.267L248.333 361.103L245.957 356.861L247.813 356.964L249.431 360.052L249.467 360.054L251.441 357.166L253.176 357.262L250.321 361.214L252.829 365.681ZM260.726 366.12L258.87 366.017L257.122 362.68L257.085 362.678L255.002 365.802L253.266 365.705L256.23 361.542L253.854 357.3L255.71 357.403L257.328 360.491L257.364 360.493L259.338 357.605L261.073 357.701L258.218 361.653L260.726 366.12ZM268.624 366.559L266.768 366.455L265.019 363.118L264.983 363.116L262.899 366.241L261.164 366.144L264.127 361.981L261.752 357.739L263.607 357.842L265.225 360.93L265.261 360.932L267.235 358.043L268.971 358.14L266.116 362.091L268.624 366.559ZM276.521 366.997L274.665 366.894L272.916 363.557L272.88 363.555L270.796 366.679L269.061 366.583L272.024 362.42L269.649 358.177L271.505 358.281L273.122 361.368L273.159 361.37L275.132 358.482L276.868 358.578L274.013 362.53L276.521 366.997Z" fill="#26313D" fill-opacity="0.5"/>
<g filter="url(#filter2_di_1059_1510)">
<path d="M271.359 94.9854L284.996 95.743C288.984 95.9645 292.703 97.8228 295.275 100.878L300.317 106.87L305.713 112.545C308.465 115.439 309.9 119.342 309.678 123.329L308.921 136.966L278.791 135.292C273.466 134.996 269.39 130.44 269.685 125.115L271.359 94.9854Z" fill="white"/>
</g>
<path d="M237.213 214.863L283.644 217.443" stroke="#26313D" stroke-opacity="0.1" stroke-width="3.62113" stroke-linecap="round"/>
<path d="M85.9062 206.457L152.124 210.136" stroke="#26313D" stroke-opacity="0.1" stroke-width="3.62113" stroke-linecap="round"/>
<path d="M255.445 243.895L282.091 245.376" stroke="#26313D" stroke-opacity="0.1" stroke-width="3.62113" stroke-linecap="round"/>
<path d="M84.3535 234.389L169.193 239.103" stroke="#26313D" stroke-opacity="0.1" stroke-width="3.62113" stroke-linecap="round"/>
<path d="M238.764 270.988L280.54 273.309" stroke="#26313D" stroke-opacity="0.1" stroke-width="3.62113" stroke-linecap="round"/>
<path d="M82.8027 262.323L131.562 265.032" stroke="#26313D" stroke-opacity="0.1" stroke-width="3.62113" stroke-linecap="round"/>
<path d="M245.359 299.374L278.988 301.242" stroke="#26313D" stroke-opacity="0.1" stroke-width="3.62113" stroke-linecap="round"/>
<path d="M81.25 290.257L177.729 295.617" stroke="#26313D" stroke-opacity="0.1" stroke-width="3.62113" stroke-linecap="round"/>
</g>
<g filter="url(#filter3_d_1059_1510)">
<path d="M176.094 31H171.024C168.631 37.6344 164.602 48.6506 162.382 54.6909C162.159 55.2727 161.886 55.8296 161.552 56.3619H165.06C166.015 56.3 166.87 55.7678 167.329 54.9261C167.403 54.8023 167.478 54.6661 167.527 54.53L169.647 48.7496C172.276 41.5582 175.834 31.7922 176.094 31Z" fill="url(#paint0_linear_1059_1510)"/>
<path d="M229.987 43.6871L227.867 49.4799C227.471 50.5072 226.516 51.2128 225.413 51.287H221.904C222.264 50.7177 222.574 50.1112 222.797 49.4799L224.917 43.6871H219.834L217.726 49.4799C217.329 50.5072 216.362 51.2128 215.271 51.287H211.738C212.097 50.7177 212.395 50.1112 212.63 49.4799L214.751 43.6871H209.667L207.56 49.4799C207.163 50.5072 206.208 51.2128 205.105 51.287H188.864C189.236 50.73 189.533 50.1359 189.769 49.517L190.302 48.0317C191.691 44.2194 189.719 41.1497 185.913 41.1497H180.136L178.289 46.2122H184.091C185.095 46.2122 185.616 47.0167 185.244 48.0193L184.686 49.5046C184.289 50.5196 183.335 51.2128 182.244 51.2747H173.887L172.04 56.3495H223.603C227.421 56.3495 231.562 53.2922 232.95 49.5046L235.083 43.6748L229.987 43.6871Z" fill="url(#paint1_linear_1059_1510)"/>
<path d="M149.427 56.3619H136L137.847 51.287H151.286C152.39 51.2128 153.357 50.5072 153.766 49.4799L154.287 48.0441C154.646 47.0415 154.138 46.2369 153.134 46.2369H144.79L146.637 41.1621H154.969C158.787 41.1621 160.734 44.2441 159.357 48.0441L158.837 49.4799C157.448 53.2922 153.233 56.3495 149.427 56.3619Z" fill="url(#paint2_linear_1059_1510)"/>
<path d="M172.015 62.1423H171.396L171.16 62.7735H171.78L172.015 62.1423Z" fill="url(#paint3_linear_1059_1510)"/>
<path d="M173.342 64.0113C173.268 64.2589 173.094 64.4693 172.871 64.6054C172.673 64.6921 172.449 64.7292 172.226 64.7168H170.664C170.416 64.7416 170.156 64.6797 169.945 64.5312C169.784 64.3826 169.772 64.1227 169.908 63.7514L170.267 62.7983H169.635L169.276 63.7514C168.879 64.8282 169.276 65.3728 170.503 65.3728H172.573C173.131 65.3728 173.627 65.0015 173.788 64.4569L174.408 62.7735H173.788L173.342 64.0113Z" fill="url(#paint4_linear_1059_1510)"/>
<path d="M173.107 62.1423H172.474L172.251 62.7735H172.871L173.107 62.1423Z" fill="url(#paint5_linear_1059_1510)"/>
<path d="M177.396 64.1103C177.471 63.8999 177.595 63.7142 177.756 63.5533C177.905 63.3924 178.115 63.3058 178.338 63.3058C178.636 63.3058 178.785 63.4543 178.785 63.7514L179.429 63.4914C179.417 63.0706 179.07 62.7364 178.648 62.7488C178.624 62.7488 178.599 62.7488 178.574 62.7488C178.177 62.7488 177.793 62.8973 177.483 63.1449C177.161 63.3924 176.9 63.7142 176.752 64.098C176.677 64.2836 176.64 64.494 176.652 64.7045H175.623C175.462 64.7292 175.289 64.6921 175.152 64.6054C175.065 64.5188 175.065 64.3331 175.152 64.0608L176.032 61.6719H175.413L174.458 64.3084C174.346 64.5436 174.334 64.8035 174.421 65.051C174.545 65.2615 174.78 65.3852 175.028 65.3481H178.76L178.996 64.6921H177.371C177.285 64.494 177.285 64.2712 177.371 64.0856" fill="url(#paint6_linear_1059_1510)"/>
<path d="M186.137 61.61H185.517L185.281 62.2413H185.901L186.137 61.61Z" fill="url(#paint7_linear_1059_1510)"/>
<path d="M185.418 62.724C184.612 62.7612 183.905 63.281 183.645 64.0361C183.558 64.2465 183.533 64.4817 183.558 64.7168H181.996L182.244 64.0484C182.517 63.3058 182.244 62.7612 181.525 62.7612C180.744 62.7859 180.049 63.2934 179.777 64.0237C179.504 64.7787 179.851 65.3481 180.545 65.3481H181.153C180.992 65.6328 180.682 65.7937 180.359 65.7937L180.173 66.2888C180.855 66.3259 181.475 65.9546 181.76 65.3357H184.451C185.256 65.2986 185.951 64.7787 186.211 64.0237C186.484 63.281 186.186 62.6869 185.418 62.6869M181.351 64.6921H180.781C180.434 64.6921 180.31 64.3703 180.434 63.9865C180.558 63.6152 180.892 63.3677 181.289 63.3429C181.624 63.3429 181.735 63.5781 181.636 63.9247L181.351 64.6921ZM184.674 64.754C184.289 64.754 184.153 64.4198 184.302 64.0113C184.413 63.6152 184.761 63.3182 185.182 63.281C185.566 63.281 185.715 63.6028 185.554 64.0361C185.43 64.4321 185.083 64.7168 184.674 64.754Z" fill="url(#paint8_linear_1059_1510)"/>
<path d="M197.158 64.1227C197.109 64.2712 197.047 64.4074 196.96 64.5312C196.836 64.6673 196.662 64.7292 196.489 64.7168H195.051C195.224 64.5312 195.361 64.296 195.423 64.0484L196.29 61.6596H195.658L194.778 64.0484C194.728 64.2094 194.654 64.3579 194.555 64.4817C194.431 64.6178 194.257 64.6921 194.084 64.6797H193.129L193.191 64.5188C193.327 64.2217 193.327 63.8628 193.191 63.5657C193.03 63.2934 192.72 63.1449 192.41 63.182C192.026 63.182 191.641 63.3182 191.344 63.5533C191.021 63.8009 190.786 64.1227 190.649 64.5064C190.649 64.5683 190.6 64.6302 190.587 64.6921H189.261C189.62 63.7143 189.459 63.0954 188.79 62.8354C188.691 62.7983 188.579 62.7612 188.48 62.7488H187.885L187.674 63.3305C187.86 63.3305 188.046 63.3429 188.232 63.3801C188.765 63.5038 188.901 63.937 188.629 64.6921H186.558L186.323 65.3357H190.625C190.761 65.6699 191.108 65.8556 191.468 65.8061C191.914 65.8061 192.36 65.6328 192.683 65.3357H196.439C197.071 65.3481 197.629 64.9149 197.778 64.296L198.733 61.6472H198.088L197.158 64.1227ZM192.174 65.0758C192.026 65.212 191.84 65.2862 191.641 65.2862C191.244 65.2862 191.121 64.952 191.269 64.5436C191.344 64.3579 191.455 64.1846 191.604 64.0484C191.753 63.8999 191.951 63.8256 192.15 63.8256C192.323 63.8133 192.484 63.8999 192.546 64.0608C192.596 64.2341 192.583 64.4198 192.509 64.5807C192.447 64.754 192.335 64.9273 192.174 65.0758Z" fill="url(#paint9_linear_1059_1510)"/>
<path d="M201.733 62.8726C201.634 62.8354 201.522 62.7983 201.423 62.7859H200.828L200.617 63.3677C200.803 63.3677 200.989 63.38 201.175 63.4172C201.708 63.541 201.845 63.9742 201.572 64.7292H199.514L199.278 65.3729H201.993L202.229 64.7292C202.564 63.7514 202.402 63.1325 201.733 62.8726Z" fill="url(#paint10_linear_1059_1510)"/>
<path d="M202.564 65.3728H203.196L204.547 61.6843H203.915L202.564 65.3728Z" fill="url(#paint11_linear_1059_1510)"/>
<path d="M211.849 64.0856C211.701 64.5064 211.453 64.7168 211.13 64.7168H210.523C210.709 64.5188 210.845 64.2836 210.907 64.0237L211.378 62.7735H210.746L210.275 64.0856C210.126 64.5064 209.878 64.7168 209.556 64.7168H208.961V64.6797C209.122 64.4817 209.234 64.2589 209.308 64.0113L209.779 62.7612H209.097L208.626 64.0237C208.465 64.4817 208.217 64.6921 207.895 64.6921H206.717C207.064 63.739 206.915 63.0954 206.246 62.8354C206.146 62.7983 206.035 62.7612 205.936 62.7488H205.341L205.13 63.3305C205.316 63.3305 205.502 63.3429 205.688 63.38C206.221 63.5038 206.357 63.937 206.084 64.6921H204.014L203.778 65.3357H210.969C211.738 65.2491 212.37 64.7168 212.569 63.9742L213.027 62.7488H212.358L211.849 64.0856Z" fill="url(#paint12_linear_1059_1510)"/>
<path d="M217.689 62.7735H216.077C215.185 62.8107 214.416 63.4295 214.168 64.296L213.461 66.3012H214.106L214.8 64.395C215.023 63.7761 215.445 63.3924 215.867 63.3924H216.338C216.164 63.5904 216.015 63.8132 215.928 64.0608C215.656 64.8035 215.966 65.3852 216.734 65.3852C217.528 65.3481 218.222 64.8282 218.495 64.0732C218.768 63.3181 218.47 62.7364 217.701 62.7364M216.97 64.8035C216.586 64.8035 216.437 64.4693 216.598 64.0608C216.71 63.6647 217.057 63.3677 217.478 63.3305C217.875 63.3305 217.999 63.6523 217.85 64.0856C217.726 64.4816 217.379 64.7663 216.97 64.8035Z" fill="url(#paint13_linear_1059_1510)"/>
<path d="M225.078 61.6224H224.458L224.222 62.2537H224.842L225.078 61.6224Z" fill="url(#paint14_linear_1059_1510)"/>
<path d="M228.45 61.6224H227.83L227.607 62.2537H228.227L228.45 61.6224Z" fill="url(#paint15_linear_1059_1510)"/>
<path d="M227.396 62.7735L226.925 64.1103C226.876 64.2589 226.814 64.395 226.727 64.5188C226.603 64.655 226.429 64.7168 226.256 64.7045H225.227C225.698 63.4048 225.425 62.7488 224.458 62.7488C223.851 62.7488 223.193 63.0582 222.412 63.739L223.243 61.6719H222.611L221.507 64.7045H220.193C220.032 64.7292 219.858 64.6921 219.722 64.6054C219.635 64.5188 219.635 64.3331 219.722 64.0608L220.602 61.6719H219.982L219.028 64.3084C218.916 64.5436 218.891 64.8035 218.991 65.051C219.115 65.2615 219.35 65.3852 219.598 65.3481H226.157C226.789 65.3605 227.347 64.9273 227.495 64.3084L228.066 62.7488L227.396 62.7735ZM224.532 64.7168H221.991C222.66 63.9247 223.541 63.3305 224.173 63.3305C224.718 63.3305 224.88 63.8009 224.619 64.5312C224.607 64.5931 224.582 64.655 224.545 64.7168" fill="url(#paint16_linear_1059_1510)"/>
</g>
<defs>
<filter id="filter0_d_1059_1510" x="0.401733" y="0.705811" width="360.481" height="495.374" filterUnits="userSpaceOnUse" color-interpolation-filters="sRGB">
<feFlood flood-opacity="0" result="BackgroundImageFix"/>
<feColorMatrix in="SourceAlpha" type="matrix" values="0 0 0 0 0 0 0 0 0 0 0 0 0 0 0 0 0 0 127 0" result="hardAlpha"/>
<feOffset dy="4"/>
<feGaussianBlur stdDeviation="50"/>
<feComposite in2="hardAlpha" operator="out"/>
<feColorMatrix type="matrix" values="0 0 0 0 0 0 0 0 0 0 0 0 0 0 0 0 0 0 0.25 0"/>
<feBlend mode="normal" in2="BackgroundImageFix" result="effect1_dropShadow_1059_1510"/>
<feBlend mode="normal" in="SourceGraphic" in2="effect1_dropShadow_1059_1510" result="shape"/>
</filter>
<filter id="filter1_diiiiiii_1059_1510" x="30.2638" y="66.4779" width="292.337" height="366.21" filterUnits="userSpaceOnUse" color-interpolation-filters="sRGB">
<feFlood flood-opacity="0" result="BackgroundImageFix"/>
<feColorMatrix in="SourceAlpha" type="matrix" values="0 0 0 0 0 0 0 0 0 0 0 0 0 0 0 0 0 0 127 0" result="hardAlpha"/>
<feOffset dx="-4.82817"/>
<feGaussianBlur stdDeviation="9.05282"/>
<feComposite in2="hardAlpha" operator="out"/>
<feColorMatrix type="matrix" values="0 0 0 0 0.901961 0 0 0 0 0.968627 0 0 0 0 0.964706 0 0 0 1 0"/>
<feBlend mode="normal" in2="BackgroundImageFix" result="effect1_dropShadow_1059_1510"/>
<feBlend mode="normal" in="SourceGraphic" in2="effect1_dropShadow_1059_1510" result="shape"/>
<feColorMatrix in="SourceAlpha" type="matrix" values="0 0 0 0 0 0 0 0 0 0 0 0 0 0 0 0 0 0 127 0" result="hardAlpha"/>
<feOffset/>
<feGaussianBlur stdDeviation="4.82817"/>
<feComposite in2="hardAlpha" operator="arithmetic" k2="-1" k3="1"/>
<feColorMatrix type="matrix" values="0 0 0 0 0 0 0 0 0 0.67451 0 0 0 0 0.662745 0 0 0 0.15 0"/>
<feBlend mode="normal" in2="shape" result="effect2_innerShadow_1059_1510"/>
<feColorMatrix in="SourceAlpha" type="matrix" values="0 0 0 0 0 0 0 0 0 0 0 0 0 0 0 0 0 0 127 0" result="hardAlpha"/>
<feOffset/>
<feGaussianBlur stdDeviation="1.16568"/>
<feComposite in2="hardAlpha" operator="arithmetic" k2="-1" k3="1"/>
<feColorMatrix type="matrix" values="0 0 0 0 1 0 0 0 0 1 0 0 0 0 1 0 0 0 1 0"/>
<feBlend mode="normal" in2="effect2_innerShadow_1059_1510" result="effect3_innerShadow_1059_1510"/>
<feColorMatrix in="SourceAlpha" type="matrix" values="0 0 0 0 0 0 0 0 0 0 0 0 0 0 0 0 0 0 127 0" result="hardAlpha"/>
<feOffset/>
<feGaussianBlur stdDeviation="1.16568"/>
<feComposite in2="hardAlpha" operator="arithmetic" k2="-1" k3="1"/>
<feColorMatrix type="matrix" values="0 0 0 0 1 0 0 0 0 1 0 0 0 0 1 0 0 0 1 0"/>
<feBlend mode="normal" in2="effect3_innerShadow_1059_1510" result="effect4_innerShadow_1059_1510"/>
<feColorMatrix in="SourceAlpha" type="matrix" values="0 0 0 0 0 0 0 0 0 0 0 0 0 0 0 0 0 0 127 0" result="hardAlpha"/>
<feOffset/>
<feGaussianBlur stdDeviation="1.16568"/>
<feComposite in2="hardAlpha" operator="arithmetic" k2="-1" k3="1"/>
<feColorMatrix type="matrix" values="0 0 0 0 1 0 0 0 0 1 0 0 0 0 1 0 0 0 1 0"/>
<feBlend mode="normal" in2="effect4_innerShadow_1059_1510" result="effect5_innerShadow_1059_1510"/>
<feColorMatrix in="SourceAlpha" type="matrix" values="0 0 0 0 0 0 0 0 0 0 0 0 0 0 0 0 0 0 127 0" result="hardAlpha"/>
<feOffset/>
<feGaussianBlur stdDeviation="1.16568"/>
<feComposite in2="hardAlpha" operator="arithmetic" k2="-1" k3="1"/>
<feColorMatrix type="matrix" values="0 0 0 0 1 0 0 0 0 1 0 0 0 0 1 0 0 0 1 0"/>
<feBlend mode="normal" in2="effect5_innerShadow_1059_1510" result="effect6_innerShadow_1059_1510"/>
<feColorMatrix in="SourceAlpha" type="matrix" values="0 0 0 0 0 0 0 0 0 0 0 0 0 0 0 0 0 0 127 0" result="hardAlpha"/>
<feOffset/>
<feGaussianBlur stdDeviation="1.16568"/>
<feComposite in2="hardAlpha" operator="arithmetic" k2="-1" k3="1"/>
<feColorMatrix type="matrix" values="0 0 0 0 1 0 0 0 0 1 0 0 0 0 1 0 0 0 1 0"/>
<feBlend mode="normal" in2="effect6_innerShadow_1059_1510" result="effect7_innerShadow_1059_1510"/>
<feColorMatrix in="SourceAlpha" type="matrix" values="0 0 0 0 0 0 0 0 0 0 0 0 0 0 0 0 0 0 127 0" result="hardAlpha"/>
<feOffset/>
<feGaussianBlur stdDeviation="1.16568"/>
<feComposite in2="hardAlpha" operator="arithmetic" k2="-1" k3="1"/>
<feColorMatrix type="matrix" values="0 0 0 0 1 0 0 0 0 1 0 0 0 0 1 0 0 0 1 0"/>
<feBlend mode="normal" in2="effect7_innerShadow_1059_1510" result="effect8_innerShadow_1059_1510"/>
</filter>
<filter id="filter2_di_1059_1510" x="235.873" y="73.2586" width="95.5545" height="97.5047" filterUnits="userSpaceOnUse" color-interpolation-filters="sRGB">
<feFlood flood-opacity="0" result="BackgroundImageFix"/>
<feColorMatrix in="SourceAlpha" type="matrix" values="0 0 0 0 0 0 0 0 0 0 0 0 0 0 0 0 0 0 127 0" result="hardAlpha"/>
<feOffset dx="-6.03521" dy="6.03521"/>
<feGaussianBlur stdDeviation="13.881"/>
<feComposite in2="hardAlpha" operator="out"/>
<feColorMatrix type="matrix" values="0 0 0 0 0.901961 0 0 0 0 0.968627 0 0 0 0 0.964706 0 0 0 1 0"/>
<feBlend mode="normal" in2="BackgroundImageFix" result="effect1_dropShadow_1059_1510"/>
<feBlend mode="normal" in="SourceGraphic" in2="effect1_dropShadow_1059_1510" result="shape"/>
<feColorMatrix in="SourceAlpha" type="matrix" values="0 0 0 0 0 0 0 0 0 0 0 0 0 0 0 0 0 0 127 0" result="hardAlpha"/>
<feOffset/>
<feGaussianBlur stdDeviation="2.41409"/>
<feComposite in2="hardAlpha" operator="arithmetic" k2="-1" k3="1"/>
<feColorMatrix type="matrix" values="0 0 0 0 0 0 0 0 0 0.67451 0 0 0 0 0.662745 0 0 0 0.05 0"/>
<feBlend mode="normal" in2="shape" result="effect2_innerShadow_1059_1510"/>
</filter>
<filter id="filter3_d_1059_1510" x="132" y="31" width="107.083" height="43.3013" filterUnits="userSpaceOnUse" color-interpolation-filters="sRGB">
<feFlood flood-opacity="0" result="BackgroundImageFix"/>
<feColorMatrix in="SourceAlpha" type="matrix" values="0 0 0 0 0 0 0 0 0 0 0 0 0 0 0 0 0 0 127 0" result="hardAlpha"/>
<feOffset dy="4"/>
<feGaussianBlur stdDeviation="2"/>
<feComposite in2="hardAlpha" operator="out"/>
<feColorMatrix type="matrix" values="0 0 0 0 0 0 0 0 0 0 0 0 0 0 0 0 0 0 0.1 0"/>
<feBlend mode="normal" in2="BackgroundImageFix" result="effect1_dropShadow_1059_1510"/>
<feBlend mode="normal" in="SourceGraphic" in2="effect1_dropShadow_1059_1510" result="shape"/>
</filter>
<linearGradient id="paint0_linear_1059_1510" x1="275.882" y1="50.9782" x2="96.3669" y2="50.9782" gradientUnits="userSpaceOnUse">
<stop stop-color="#B8E3E2"/>
<stop offset="0.572115" stop-color="white"/>
<stop offset="1" stop-color="#B8E3E2"/>
</linearGradient>
<linearGradient id="paint1_linear_1059_1510" x1="275.882" y1="50.9782" x2="96.3669" y2="50.9782" gradientUnits="userSpaceOnUse">
<stop stop-color="#B8E3E2"/>
<stop offset="0.572115" stop-color="white"/>
<stop offset="1" stop-color="#B8E3E2"/>
</linearGradient>
<linearGradient id="paint2_linear_1059_1510" x1="275.882" y1="50.9782" x2="96.3669" y2="50.9782" gradientUnits="userSpaceOnUse">
<stop stop-color="#B8E3E2"/>
<stop offset="0.572115" stop-color="white"/>
<stop offset="1" stop-color="#B8E3E2"/>
</linearGradient>
<linearGradient id="paint3_linear_1059_1510" x1="275.882" y1="50.9782" x2="96.3669" y2="50.9782" gradientUnits="userSpaceOnUse">
<stop stop-color="#B8E3E2"/>
<stop offset="0.572115" stop-color="white"/>
<stop offset="1" stop-color="#B8E3E2"/>
</linearGradient>
<linearGradient id="paint4_linear_1059_1510" x1="275.882" y1="50.9782" x2="96.3669" y2="50.9782" gradientUnits="userSpaceOnUse">
<stop stop-color="#B8E3E2"/>
<stop offset="0.572115" stop-color="white"/>
<stop offset="1" stop-color="#B8E3E2"/>
</linearGradient>
<linearGradient id="paint5_linear_1059_1510" x1="275.882" y1="50.9782" x2="96.3669" y2="50.9782" gradientUnits="userSpaceOnUse">
<stop stop-color="#B8E3E2"/>
<stop offset="0.572115" stop-color="white"/>
<stop offset="1" stop-color="#B8E3E2"/>
</linearGradient>
<linearGradient id="paint6_linear_1059_1510" x1="275.882" y1="50.9782" x2="96.3669" y2="50.9782" gradientUnits="userSpaceOnUse">
<stop stop-color="#B8E3E2"/>
<stop offset="0.572115" stop-color="white"/>
<stop offset="1" stop-color="#B8E3E2"/>
</linearGradient>
<linearGradient id="paint7_linear_1059_1510" x1="275.882" y1="50.9782" x2="96.3669" y2="50.9782" gradientUnits="userSpaceOnUse">
<stop stop-color="#B8E3E2"/>
<stop offset="0.572115" stop-color="white"/>
<stop offset="1" stop-color="#B8E3E2"/>
</linearGradient>
<linearGradient id="paint8_linear_1059_1510" x1="275.882" y1="50.9782" x2="96.3669" y2="50.9782" gradientUnits="userSpaceOnUse">
<stop stop-color="#B8E3E2"/>
<stop offset="0.572115" stop-color="white"/>
<stop offset="1" stop-color="#B8E3E2"/>
</linearGradient>
<linearGradient id="paint9_linear_1059_1510" x1="275.882" y1="50.9782" x2="96.3669" y2="50.9782" gradientUnits="userSpaceOnUse">
<stop stop-color="#B8E3E2"/>
<stop offset="0.572115" stop-color="white"/>
<stop offset="1" stop-color="#B8E3E2"/>
</linearGradient>
<linearGradient id="paint10_linear_1059_1510" x1="275.882" y1="50.9782" x2="96.3669" y2="50.9782" gradientUnits="userSpaceOnUse">
<stop stop-color="#B8E3E2"/>
<stop offset="0.572115" stop-color="white"/>
<stop offset="1" stop-color="#B8E3E2"/>
</linearGradient>
<linearGradient id="paint11_linear_1059_1510" x1="275.882" y1="50.9782" x2="96.3669" y2="50.9782" gradientUnits="userSpaceOnUse">
<stop stop-color="#B8E3E2"/>
<stop offset="0.572115" stop-color="white"/>
<stop offset="1" stop-color="#B8E3E2"/>
</linearGradient>
<linearGradient id="paint12_linear_1059_1510" x1="275.882" y1="50.9782" x2="96.3669" y2="50.9782" gradientUnits="userSpaceOnUse">
<stop stop-color="#B8E3E2"/>
<stop offset="0.572115" stop-color="white"/>
<stop offset="1" stop-color="#B8E3E2"/>
</linearGradient>
<linearGradient id="paint13_linear_1059_1510" x1="275.882" y1="50.9782" x2="96.3669" y2="50.9782" gradientUnits="userSpaceOnUse">
<stop stop-color="#B8E3E2"/>
<stop offset="0.572115" stop-color="white"/>
<stop offset="1" stop-color="#B8E3E2"/>
</linearGradient>
<linearGradient id="paint14_linear_1059_1510" x1="275.882" y1="50.9782" x2="96.3669" y2="50.9782" gradientUnits="userSpaceOnUse">
<stop stop-color="#B8E3E2"/>
<stop offset="0.572115" stop-color="white"/>
<stop offset="1" stop-color="#B8E3E2"/>
</linearGradient>
<linearGradient id="paint15_linear_1059_1510" x1="275.882" y1="50.9782" x2="96.3669" y2="50.9782" gradientUnits="userSpaceOnUse">
<stop stop-color="#B8E3E2"/>
<stop offset="0.572115" stop-color="white"/>
<stop offset="1" stop-color="#B8E3E2"/>
</linearGradient>
<linearGradient id="paint16_linear_1059_1510" x1="275.882" y1="50.9782" x2="96.3669" y2="50.9782" gradientUnits="userSpaceOnUse">
<stop stop-color="#B8E3E2"/>
<stop offset="0.572115" stop-color="white"/>
<stop offset="1" stop-color="#B8E3E2"/>
</linearGradient>
<clipPath id="clip0_1059_1510">
<rect width="302" height="367" fill="white" transform="translate(30 66)"/>
</clipPath>
</defs>
</svg>
