<svg width="86" height="23" viewBox="0 0 86 23" fill="none" xmlns="http://www.w3.org/2000/svg">
<path d="M31.8565 14.8693C31.9183 14.9202 31.9974 14.9884 32.0938 15.0739C32.1901 15.1594 32.3002 15.2439 32.4238 15.3276C32.6093 15.4512 32.7929 15.5476 32.9748 15.6167C33.1566 15.6858 33.3476 15.7203 33.5476 15.7203C33.7331 15.7203 33.8885 15.6994 34.014 15.6576C34.1395 15.6158 34.2386 15.5603 34.3113 15.4912C34.384 15.4221 34.4359 15.3421 34.4668 15.2512C34.4977 15.1603 34.5131 15.0639 34.5131 14.9621C34.5131 14.8493 34.4704 14.7484 34.3849 14.6593C34.2995 14.5702 34.1949 14.4911 34.0713 14.422C33.9476 14.3529 33.8185 14.2938 33.684 14.2447C33.5494 14.1956 33.433 14.1547 33.3348 14.122C32.8984 13.9692 32.5165 13.8047 32.1892 13.6283C31.8619 13.4519 31.5892 13.2555 31.3709 13.0391C31.1527 12.8227 30.9891 12.5845 30.88 12.3245C30.7709 12.0644 30.7163 11.7744 30.7163 11.4544C30.7163 11.1161 30.7845 10.8088 30.9209 10.5324C31.0573 10.256 31.2518 10.0196 31.5046 9.82326C31.7574 9.62687 32.0619 9.47503 32.4183 9.36775C32.7748 9.26046 33.173 9.20682 33.613 9.20682C33.944 9.20682 34.2613 9.2441 34.565 9.31865C34.8686 9.39321 35.1678 9.51231 35.4624 9.67597C35.586 9.7487 35.7033 9.82417 35.8142 9.90236C35.9251 9.98055 36.0224 10.056 36.1061 10.1288C36.1897 10.2015 36.2561 10.2706 36.3052 10.336C36.3543 10.4015 36.3788 10.4579 36.3788 10.5052C36.3788 10.5524 36.367 10.5961 36.3434 10.6361C36.3197 10.6761 36.2843 10.7215 36.237 10.7725L35.4023 11.6617C35.3405 11.7235 35.2787 11.7544 35.2169 11.7544C35.166 11.7544 35.1196 11.7399 35.0778 11.7108C35.0359 11.6817 34.9896 11.6453 34.9387 11.6017L34.8896 11.558C34.8168 11.4962 34.7359 11.4325 34.6468 11.3671C34.5577 11.3016 34.4622 11.2425 34.3604 11.1898C34.2586 11.1371 34.1513 11.0934 34.0385 11.0589C33.9258 11.0243 33.8112 11.007 33.6949 11.007C33.5749 11.007 33.4621 11.017 33.3566 11.037C33.2512 11.057 33.1584 11.0889 33.0784 11.1325C32.9984 11.1762 32.9348 11.2334 32.8875 11.3043C32.8402 11.3753 32.8166 11.4616 32.8166 11.5635C32.8166 11.6653 32.842 11.7535 32.8929 11.828C32.9439 11.9026 33.0202 11.9717 33.1221 12.0353C33.2239 12.099 33.3503 12.159 33.5012 12.2154C33.6521 12.2717 33.8276 12.3327 34.0276 12.3981C34.4131 12.5254 34.7686 12.6591 35.0941 12.7991C35.4196 12.9391 35.7006 13.1046 35.937 13.2955C36.1733 13.4864 36.3579 13.7146 36.4907 13.9801C36.6234 14.2456 36.6898 14.5675 36.6898 14.9457C36.6898 15.3457 36.6079 15.7085 36.4443 16.034C36.2806 16.3595 36.0561 16.6368 35.7706 16.8659C35.4851 17.0951 35.1496 17.2723 34.7641 17.3978C34.3786 17.5233 33.964 17.586 33.5203 17.586C33.1021 17.586 32.6911 17.5115 32.2874 17.3624C31.8837 17.2132 31.5073 17.0132 31.1582 16.7623C31.0127 16.6568 30.89 16.5532 30.79 16.4513C30.69 16.3495 30.6109 16.2677 30.5527 16.2059L30.5363 16.1895C30.5327 16.1822 30.529 16.1777 30.5254 16.1758C30.5218 16.174 30.5181 16.1713 30.5145 16.1677C30.5108 16.1604 30.5072 16.1558 30.5036 16.154C30.4999 16.1522 30.4963 16.1495 30.4927 16.1458C30.409 16.0549 30.3672 15.9822 30.3672 15.9276C30.3672 15.8658 30.409 15.7967 30.4927 15.7203L31.4364 14.8202C31.5128 14.7657 31.5746 14.7384 31.6219 14.7384C31.6546 14.7384 31.6892 14.7493 31.7255 14.7711C31.7619 14.793 31.8055 14.8257 31.8565 14.8693ZM44.8999 17.0787C44.8999 17.1405 44.889 17.1996 44.8671 17.256C44.8453 17.3124 44.8089 17.3569 44.758 17.3896C44.718 17.4296 44.6707 17.4551 44.6162 17.466C44.5616 17.4769 44.5144 17.4824 44.4744 17.4824H43.3997C43.3233 17.4824 43.2615 17.4724 43.2142 17.4524C43.1669 17.4324 43.1287 17.4042 43.0996 17.3678C43.0706 17.3314 43.046 17.2869 43.026 17.2342C43.006 17.1814 42.9851 17.1241 42.9633 17.0623L42.8051 16.6532C42.7069 16.7514 42.5996 16.8559 42.4832 16.9669C42.3668 17.0778 42.2386 17.1805 42.0986 17.2751C41.9586 17.3696 41.8068 17.4487 41.6431 17.5124C41.4795 17.576 41.3049 17.6078 41.1194 17.6078C40.7885 17.6078 40.4711 17.566 40.1675 17.4824C39.8638 17.3987 39.5801 17.2796 39.3165 17.1251C39.0528 16.9705 38.8137 16.785 38.5991 16.5686C38.3845 16.3522 38.2 16.1113 38.0454 15.8458C37.8908 15.5803 37.7717 15.2939 37.6881 14.9866C37.6044 14.6793 37.5626 14.3584 37.5626 14.0238C37.5626 13.5183 37.6553 13.0482 37.8408 12.6136C38.0263 12.179 38.2791 11.8008 38.5991 11.4789C38.9191 11.1571 39.2955 10.9043 39.7283 10.7206C40.1611 10.537 40.6248 10.4452 41.1194 10.4452C41.3449 10.4452 41.5522 10.4788 41.7413 10.5461C41.9304 10.6134 42.1023 10.7015 42.2568 10.8107C42.4114 10.9198 42.5514 11.0434 42.6769 11.1816C42.8023 11.3198 42.9142 11.4598 43.0124 11.6017L43.2251 10.9416C43.2615 10.8507 43.2915 10.777 43.3151 10.7206C43.3388 10.6643 43.3642 10.6224 43.3915 10.5952C43.4188 10.5679 43.4524 10.5497 43.4924 10.5406C43.5324 10.5315 43.5888 10.527 43.6615 10.527H44.4744C44.5144 10.527 44.5616 10.5324 44.6162 10.5433C44.6707 10.5543 44.718 10.5797 44.758 10.6197C44.8089 10.6597 44.8453 10.7052 44.8671 10.7561C44.889 10.807 44.8999 10.8652 44.8999 10.9307V17.0787ZM39.5265 14.0238C39.5265 14.2638 39.5638 14.4884 39.6383 14.6975C39.7129 14.9066 39.8192 15.0875 39.9574 15.2403C40.0956 15.393 40.262 15.514 40.4566 15.6031C40.6512 15.6922 40.8666 15.7367 41.103 15.7367C41.3467 15.7367 41.5731 15.6922 41.7822 15.6031C41.9913 15.514 42.1732 15.393 42.3277 15.2403C42.4823 15.0875 42.6032 14.9066 42.6905 14.6975C42.7778 14.4884 42.8214 14.2638 42.8214 14.0238C42.8214 13.791 42.7778 13.5692 42.6905 13.3582C42.6032 13.1473 42.4823 12.9618 42.3277 12.8018C42.1732 12.6418 41.9913 12.5154 41.7822 12.4227C41.5731 12.3299 41.3467 12.2836 41.103 12.2836C40.8666 12.2836 40.6512 12.3299 40.4566 12.4227C40.262 12.5154 40.0956 12.6418 39.9574 12.8018C39.8192 12.9618 39.7129 13.1473 39.6383 13.3582C39.5638 13.5692 39.5265 13.791 39.5265 14.0238ZM46.351 10.647C46.3982 10.607 46.4482 10.5815 46.501 10.5706C46.5537 10.5597 46.6037 10.5543 46.651 10.5543H47.4747C47.5402 10.5543 47.5966 10.5661 47.6438 10.5897C47.6911 10.6134 47.7311 10.6452 47.7639 10.6852C47.7966 10.7252 47.823 10.7706 47.843 10.8216C47.863 10.8725 47.882 10.9252 47.9002 10.9798L48.0693 11.678C48.1239 11.5653 48.203 11.4371 48.3066 11.2934C48.4103 11.1498 48.5421 11.0152 48.7021 10.8898C48.8622 10.7643 49.0522 10.6588 49.2722 10.5733C49.4922 10.4879 49.7477 10.4452 50.0387 10.4452C50.4533 10.4452 50.8297 10.5252 51.1679 10.6852C51.5061 10.8452 51.7943 11.0634 52.0326 11.3398C52.2708 11.6162 52.4553 11.939 52.5863 12.3081C52.7172 12.6772 52.7826 13.0709 52.7826 13.4892V17.0623C52.7826 17.2005 52.7526 17.3051 52.6926 17.376C52.6326 17.4469 52.5372 17.4824 52.4062 17.4824H51.1461C50.9897 17.4824 50.8824 17.456 50.8242 17.4033C50.766 17.3505 50.7369 17.2478 50.7369 17.0951V13.5437C50.7369 13.3873 50.7015 13.2391 50.6306 13.0991C50.5596 12.9591 50.466 12.8354 50.3496 12.7282C50.2332 12.6209 50.1014 12.5363 49.9541 12.4745C49.8068 12.4127 49.6568 12.3818 49.5041 12.3818C49.3731 12.3818 49.2395 12.4108 49.1031 12.469C48.9667 12.5272 48.8413 12.6081 48.7267 12.7118C48.6121 12.8154 48.5158 12.9373 48.4376 13.0773C48.3594 13.2173 48.3148 13.3691 48.3039 13.5328V17.0787C48.3039 17.1405 48.2921 17.2023 48.2685 17.2642C48.2448 17.326 48.2094 17.3733 48.1621 17.406C48.1148 17.4351 48.0703 17.4551 48.0284 17.466C47.9866 17.4769 47.9384 17.4824 47.8839 17.4824H46.651C46.4946 17.4824 46.3819 17.4442 46.3128 17.3678C46.2437 17.2914 46.2091 17.1896 46.2091 17.0623V10.9579C46.2091 10.8888 46.2246 10.8252 46.2555 10.767C46.2864 10.7088 46.3291 10.6634 46.3837 10.6306L46.351 10.647ZM58.8652 16.6368C58.767 16.735 58.6588 16.8405 58.5406 16.9532C58.4224 17.066 58.2924 17.1714 58.1506 17.2696C58.0087 17.3678 57.856 17.4487 57.6923 17.5124C57.5287 17.576 57.3523 17.6078 57.1632 17.6078C56.6686 17.6078 56.2131 17.5151 55.7966 17.3296C55.3802 17.1441 55.022 16.8905 54.722 16.5686C54.4219 16.2468 54.1874 15.8676 54.0183 15.4312C53.8491 14.9948 53.7646 14.5256 53.7646 14.0238C53.7646 13.5183 53.8491 13.0482 54.0183 12.6136C54.1874 12.179 54.4219 11.8008 54.722 11.4789C55.022 11.1571 55.3802 10.9043 55.7966 10.7206C56.2131 10.537 56.6686 10.4452 57.1632 10.4452C57.3632 10.4452 57.546 10.4742 57.7114 10.5324C57.8769 10.5906 58.0278 10.6652 58.1642 10.7561C58.3006 10.847 58.4261 10.9498 58.5406 11.0643C58.6552 11.1789 58.7634 11.2907 58.8652 11.3998V8.90678C58.8652 8.79041 58.9007 8.69221 58.9716 8.6122C59.0425 8.53219 59.1489 8.49219 59.2907 8.49219H60.5181C60.5654 8.49219 60.6154 8.50219 60.6682 8.52219C60.7209 8.54219 60.7691 8.57038 60.8127 8.60675C60.8564 8.64311 60.8918 8.68676 60.9191 8.73767C60.9464 8.78859 60.96 8.84496 60.96 8.90678V17.0623C60.96 17.3424 60.8127 17.4824 60.5181 17.4824H59.4489C59.3762 17.4824 59.3198 17.4733 59.2798 17.4551C59.2398 17.4369 59.2062 17.4105 59.1789 17.376C59.1516 17.3414 59.1271 17.2978 59.1052 17.2451C59.0834 17.1923 59.0561 17.1314 59.0234 17.0623L58.8652 16.6368ZM55.7285 14.0238C55.7285 14.2638 55.7657 14.4884 55.8403 14.6975C55.9148 14.9066 56.0212 15.0875 56.1594 15.2403C56.2976 15.393 56.464 15.514 56.6586 15.6031C56.8531 15.6922 57.0686 15.7367 57.305 15.7367C57.5378 15.7367 57.7569 15.6949 57.9624 15.6112C58.1678 15.5276 58.347 15.4121 58.4997 15.2648C58.6525 15.1175 58.7752 14.9439 58.8679 14.7439C58.9607 14.5438 59.0125 14.3293 59.0234 14.1001V14.0238C59.0234 13.791 58.9798 13.5692 58.8925 13.3582C58.8052 13.1473 58.6843 12.9618 58.5297 12.8018C58.3751 12.6418 58.1933 12.5154 57.9842 12.4227C57.7751 12.3299 57.5487 12.2836 57.305 12.2836C57.0686 12.2836 56.8531 12.3299 56.6586 12.4227C56.464 12.5154 56.2976 12.6418 56.1594 12.8018C56.0212 12.9618 55.9148 13.1473 55.8403 13.3582C55.7657 13.5692 55.7285 13.791 55.7285 14.0238ZM62.1983 14.0238C62.1983 13.6892 62.2411 13.3673 62.3265 13.0582C62.412 12.7491 62.532 12.4627 62.6866 12.199C62.8411 11.9353 63.0266 11.6953 63.243 11.4789C63.4594 11.2625 63.7003 11.078 63.9658 10.9252C64.2313 10.7725 64.5177 10.6543 64.825 10.5706C65.1323 10.487 65.4533 10.4452 65.7879 10.4452C66.2825 10.4452 66.7471 10.537 67.1817 10.7206C67.6163 10.9043 67.9945 11.1571 68.3164 11.4789C68.6382 11.8008 68.8928 12.179 69.0801 12.6136C69.2674 13.0482 69.361 13.5183 69.361 14.0238C69.361 14.3584 69.3183 14.6793 69.2328 14.9866C69.1474 15.2939 69.0274 15.5803 68.8728 15.8458C68.7182 16.1113 68.5327 16.3522 68.3164 16.5686C68.1 16.785 67.859 16.9705 67.5935 17.1251C67.3281 17.2796 67.0435 17.3987 66.7398 17.4824C66.4361 17.566 66.1188 17.6078 65.7879 17.6078C65.4533 17.6078 65.1323 17.566 64.825 17.4824C64.5177 17.3987 64.2313 17.2796 63.9658 17.1251C63.7003 16.9705 63.4594 16.785 63.243 16.5686C63.0266 16.3522 62.8411 16.1113 62.6866 15.8458C62.532 15.5803 62.412 15.2939 62.3265 14.9866C62.2411 14.6793 62.1983 14.3584 62.1983 14.0238ZM64.1895 14.0238C64.1895 14.2638 64.2268 14.4884 64.3013 14.6975C64.3759 14.9066 64.4813 15.0875 64.6177 15.2403C64.7541 15.393 64.9196 15.514 65.1141 15.6031C65.3087 15.6922 65.5278 15.7367 65.7715 15.7367C66.0079 15.7367 66.2216 15.6922 66.4125 15.6031C66.6034 15.514 66.7653 15.393 66.898 15.2403C67.0307 15.0875 67.1326 14.9066 67.2035 14.6975C67.2744 14.4884 67.3099 14.2638 67.3099 14.0238C67.3099 13.791 67.2744 13.5692 67.2035 13.3582C67.1326 13.1473 67.0307 12.9618 66.898 12.8018C66.7653 12.6418 66.6034 12.5154 66.4125 12.4227C66.2216 12.3299 66.0079 12.2836 65.7715 12.2836C65.5278 12.2836 65.3087 12.3299 65.1141 12.4227C64.9196 12.5154 64.7541 12.6418 64.6177 12.8018C64.4813 12.9618 64.3759 13.1473 64.3013 13.3582C64.2268 13.5692 64.1895 13.791 64.1895 14.0238ZM70.2339 14.0238C70.2339 13.6892 70.2766 13.3673 70.3621 13.0582C70.4475 12.7491 70.5675 12.4627 70.7221 12.199C70.8767 11.9353 71.0621 11.6953 71.2785 11.4789C71.4949 11.2625 71.7359 11.078 72.0014 10.9252C72.2668 10.7725 72.5532 10.6543 72.8605 10.5706C73.1679 10.487 73.4888 10.4452 73.8234 10.4452C74.318 10.4452 74.7826 10.537 75.2172 10.7206C75.6518 10.9043 76.03 11.1571 76.3519 11.4789C76.6737 11.8008 76.9283 12.179 77.1156 12.6136C77.3029 13.0482 77.3966 13.5183 77.3966 14.0238C77.3966 14.3584 77.3538 14.6793 77.2684 14.9866C77.1829 15.2939 77.0629 15.5803 76.9083 15.8458C76.7537 16.1113 76.5683 16.3522 76.3519 16.5686C76.1355 16.785 75.8946 16.9705 75.6291 17.1251C75.3636 17.2796 75.079 17.3987 74.7753 17.4824C74.4717 17.566 74.1543 17.6078 73.8234 17.6078C73.4888 17.6078 73.1679 17.566 72.8605 17.4824C72.5532 17.3987 72.2668 17.2796 72.0014 17.1251C71.7359 16.9705 71.4949 16.785 71.2785 16.5686C71.0621 16.3522 70.8767 16.1113 70.7221 15.8458C70.5675 15.5803 70.4475 15.2939 70.3621 14.9866C70.2766 14.6793 70.2339 14.3584 70.2339 14.0238ZM72.225 14.0238C72.225 14.2638 72.2623 14.4884 72.3368 14.6975C72.4114 14.9066 72.5169 15.0875 72.6532 15.2403C72.7896 15.393 72.9551 15.514 73.1497 15.6031C73.3442 15.6922 73.5634 15.7367 73.807 15.7367C74.0434 15.7367 74.2571 15.6922 74.448 15.6031C74.6389 15.514 74.8008 15.393 74.9335 15.2403C75.0663 15.0875 75.1681 14.9066 75.239 14.6975C75.3099 14.4884 75.3454 14.2638 75.3454 14.0238C75.3454 13.791 75.3099 13.5692 75.239 13.3582C75.1681 13.1473 75.0663 12.9618 74.9335 12.8018C74.8008 12.6418 74.6389 12.5154 74.448 12.4227C74.2571 12.3299 74.0434 12.2836 73.807 12.2836C73.5634 12.2836 73.3442 12.3299 73.1497 12.4227C72.9551 12.5154 72.7896 12.6418 72.6532 12.8018C72.5169 12.9618 72.4114 13.1473 72.3368 13.3582C72.2623 13.5692 72.225 13.791 72.225 14.0238ZM85.3612 10.6197C85.4012 10.6597 85.4348 10.7034 85.4621 10.7506C85.4894 10.7979 85.503 10.8579 85.503 10.9307V19.2008C85.503 19.2626 85.4884 19.3181 85.4594 19.3671C85.4303 19.4162 85.3939 19.4572 85.3503 19.4899C85.3066 19.5226 85.2593 19.5481 85.2084 19.5663C85.1575 19.5844 85.1102 19.5935 85.0666 19.5935H83.8173C83.6755 19.5935 83.5728 19.5554 83.5091 19.479C83.4455 19.4026 83.4137 19.3099 83.4137 19.2008V16.675C83.3155 16.7841 83.2073 16.8932 83.0891 17.0023C82.9709 17.1114 82.8409 17.2114 82.699 17.3024C82.5572 17.3933 82.4026 17.4669 82.2353 17.5233C82.068 17.5797 81.888 17.6078 81.6953 17.6078C81.197 17.6078 80.7379 17.5151 80.3178 17.3296C79.8978 17.1441 79.5359 16.8905 79.2322 16.5686C78.9286 16.2468 78.6913 15.8676 78.5203 15.4312C78.3494 14.9948 78.2639 14.5256 78.2639 14.0238C78.2639 13.5183 78.3494 13.0482 78.5203 12.6136C78.6913 12.179 78.9286 11.8008 79.2322 11.4789C79.5359 11.1571 79.8978 10.9043 80.3178 10.7206C80.7379 10.537 81.197 10.4452 81.6953 10.4452C81.9135 10.4452 82.1162 10.4815 82.3035 10.5543C82.4908 10.627 82.6636 10.7188 82.8218 10.8297C82.98 10.9407 83.1236 11.0643 83.2527 11.2007C83.3818 11.3371 83.4973 11.4707 83.5991 11.6017L83.8337 10.9416C83.8628 10.8252 83.9046 10.727 83.9592 10.647C84.0137 10.567 84.1065 10.527 84.2374 10.527H85.0666C85.1139 10.527 85.163 10.5324 85.2139 10.5433C85.2648 10.5543 85.3139 10.5797 85.3612 10.6197ZM80.2551 14.0238C80.2551 14.2638 80.2942 14.4893 80.3724 14.7002C80.4506 14.9112 80.5588 15.0939 80.697 15.2485C80.8352 15.403 81.0015 15.5258 81.1961 15.6167C81.3907 15.7076 81.6043 15.7531 81.8371 15.7531C82.0735 15.7531 82.2972 15.7076 82.5081 15.6167C82.719 15.5258 82.9027 15.403 83.0591 15.2485C83.2154 15.0939 83.3391 14.9112 83.43 14.7002C83.5209 14.4893 83.5664 14.2638 83.5664 14.0238V13.9419C83.5555 13.7165 83.5018 13.5037 83.4055 13.3037C83.3091 13.1037 83.1827 12.93 83.0263 12.7827C82.8699 12.6354 82.6899 12.519 82.4863 12.4336C82.2826 12.3481 82.0662 12.3054 81.8371 12.3054C81.6043 12.3054 81.3907 12.3508 81.1961 12.4418C81.0015 12.5327 80.8352 12.6563 80.697 12.8127C80.5588 12.9691 80.4506 13.1518 80.3724 13.361C80.2942 13.5701 80.2551 13.791 80.2551 14.0238Z" fill="#393E46"/>
<path d="M11.5272 5.2111L22.1227 8.22607C22.1536 8.23532 22.1844 8.2384 22.2152 8.2384C22.2892 8.2384 22.3601 8.21374 22.4187 8.17058C22.505 8.10584 22.5543 8.00719 22.5543 7.8993V5.00763C22.5543 4.86274 22.4618 4.73326 22.3262 4.68702L11.6381 1.0185C11.632 1.01541 11.6289 1.01541 11.6227 1.01541C11.6166 1.01541 11.6135 1.01233 11.6073 1.01233C11.5981 1.00925 11.5919 1.00925 11.5826 1.00617C11.5765 1.00617 11.5703 1.00308 11.5672 1.00308C11.5611 1.00308 11.5518 1.00308 11.5457 1C11.5395 1 11.5333 1 11.5272 1C11.521 1 11.5148 1 11.5087 1C11.5025 1 11.4932 1 11.4871 1.00308C11.4809 1.00308 11.4748 1.00617 11.4717 1.00617C11.4624 1.00617 11.4563 1.00925 11.447 1.01233C11.4408 1.01233 11.4378 1.01541 11.4316 1.01541C11.4254 1.01541 11.4223 1.0185 11.4162 1.0185L0.728127 4.68702C0.592484 4.73326 0.5 4.86274 0.5 5.00763V12.5636C0.5 12.6653 0.546242 12.7609 0.623312 12.8256C0.684968 12.8749 0.762038 12.9027 0.839108 12.9027C0.860687 12.9027 0.882267 12.8996 0.900763 12.8965L11.5272 10.8804L19.7829 12.4464V13.6179L11.5796 12.357C11.5734 12.357 11.5672 12.357 11.5642 12.3539C11.558 12.3539 11.5518 12.3539 11.5487 12.3509C11.5426 12.3509 11.5364 12.3509 11.5302 12.3509C11.5241 12.3509 11.5179 12.3509 11.5117 12.3509C11.5056 12.3509 11.4994 12.3509 11.4963 12.3539C11.4902 12.3539 11.484 12.3539 11.4809 12.357L0.792866 14.0001C0.626395 14.0248 0.506165 14.1666 0.506165 14.3362V21.8921C0.506165 22.0802 0.657222 22.2312 0.845273 22.2312H11.5272H22.2152C22.4033 22.2312 22.5543 22.0802 22.5543 21.8921V19.0004C22.5543 18.8216 22.4156 18.6737 22.2337 18.6613L11.5457 18.0324H11.5426C11.5364 18.0324 11.5302 18.0324 11.5241 18.0324C11.5179 18.0324 11.5148 18.0324 11.5087 18.0324H11.5056L3.27143 18.5164V17.3388L11.5272 16.5527L22.1844 17.5639C22.1936 17.5639 22.206 17.5639 22.2152 17.5639C22.2984 17.5639 22.3817 17.533 22.4433 17.4745C22.5142 17.4097 22.5543 17.3203 22.5543 17.2248V9.6719C22.5543 9.51468 22.4495 9.37904 22.2984 9.34204L11.6104 6.68468C11.6073 6.68468 11.6042 6.68468 11.6042 6.68468C11.5981 6.68468 11.595 6.68159 11.5888 6.68159C11.5827 6.68159 11.5734 6.67851 11.5672 6.67851C11.5611 6.67851 11.5549 6.67851 11.5487 6.67851C11.5426 6.67851 11.5364 6.67851 11.5302 6.67851C11.5241 6.67851 11.5179 6.67851 11.5087 6.67851C11.5025 6.67851 11.4963 6.67851 11.4902 6.67851C11.484 6.67851 11.4748 6.68159 11.4686 6.68159C11.4624 6.68159 11.4593 6.68468 11.4532 6.68468C11.4501 6.68468 11.447 6.68468 11.447 6.68468L3.27143 8.71624V7.56019L11.5272 5.2111ZM11.8663 1.81386L21.8761 5.25118V7.45229L11.8663 4.60379V1.81386ZM11.8663 18.7292L21.8761 19.318V21.5499H11.8663V18.7292ZM11.1881 15.9053L2.9015 16.6914C2.72886 16.7068 2.59322 16.8548 2.59322 17.0305V18.8771C2.59322 18.9696 2.63021 19.059 2.70112 19.1238C2.76894 19.1885 2.86142 19.2224 2.9539 19.2162L11.1881 18.7292V21.5499H1.17822V14.626L11.1881 13.0876V15.9053ZM11.8663 7.44921L21.8761 9.93703V16.8548L11.8663 15.9053V13.0876L20.0696 14.3485C20.1682 14.3639 20.2669 14.3362 20.3409 14.2714C20.4149 14.2067 20.458 14.1142 20.458 14.0156V12.169C20.458 12.0056 20.3409 11.8669 20.1806 11.836L11.8663 10.2546V7.44921ZM2.7227 9.41911C2.80593 9.48385 2.91075 9.50543 3.01248 9.48077L11.1881 7.44921V10.2546L1.17822 12.1536V5.25118L11.1881 1.81386V4.60379L2.83984 6.98062C2.69495 7.0207 2.59322 7.15634 2.59322 7.3074V9.15399C2.59322 9.25573 2.64254 9.35437 2.7227 9.41911Z" fill="#FD7014" stroke="#FD7014" stroke-width="0.9"/>
</svg>
