<svg width="16" height="18" viewBox="0 0 16 18" fill="none" xmlns="http://www.w3.org/2000/svg">
<g clip-path="url(#clip0_5288_80211)">
<path d="M15.4534 11.5251C15.739 10.9588 15.9277 10.3439 16 9.69931L11.2934 10.595V8.87319L15.4533 8.08223C15.7388 7.51591 15.9276 6.90107 15.9999 6.25643L11.2933 7.15131V0.959346C10.5721 1.32165 9.93157 1.80392 9.41093 2.37279V7.50941L7.5286 7.86739V0.117188C6.80741 0.479368 6.16692 0.961766 5.64627 1.53063V8.22524L1.43455 9.02601C1.14904 9.59233 0.960165 10.2072 0.887719 10.8518L5.64627 9.947V12.1152L0.546551 13.0849C0.261035 13.6512 0.0723042 14.266 0 14.9107L5.33798 13.8957C5.77252 13.8148 6.146 13.585 6.38881 13.2686L7.36777 11.9701V11.9698C7.46939 11.8355 7.5286 11.6735 7.5286 11.499V9.58902L9.41093 9.23104V12.6746L15.4533 11.5249L15.4534 11.5251Z" fill="#01A9F3"/>
<path d="M9.96061 16.0633C9.6751 16.6297 9.48637 17.2444 9.41406 17.8891L15.4562 16.7399C15.7417 16.1735 15.9303 15.5587 16.0027 14.9141L9.96061 16.0633Z" fill="#01A9F3"/>
</g>
<defs>
<clipPath id="clip0_5288_80211">
<rect width="16" height="17.7685" fill="white" transform="translate(0 0.117188)"/>
</clipPath>
</defs>
</svg>
