<svg width="20" height="20" viewBox="0 0 20 20" fill="none" xmlns="http://www.w3.org/2000/svg">
<g clip-path="url(#clip0_8687_51760)">
<path d="M12.4488 17.7177C12.0919 18.4258 11.856 19.1942 11.7656 20L19.3182 18.5635C19.6751 17.8556 19.9109 17.0871 20.0014 16.2812L12.4488 17.7177Z" fill="#231F20"/>
<path d="M19.3168 14.2599C19.6737 13.552 19.9096 12.7835 20 11.9777L14.1167 13.0972V10.945L19.3166 9.9563C19.6735 9.2484 19.9094 8.47985 19.9998 7.67405L14.1166 8.79265V1.0527C13.2151 1.50558 12.4145 2.10842 11.7637 2.81951V9.24028L9.41075 9.68776V0C8.50926 0.452726 7.70865 1.05572 7.05784 1.76681V10.1351L1.79319 11.136C1.4363 11.8439 1.20021 12.6125 1.10965 13.4183L7.05784 12.2873V14.9976L0.683189 16.2096C0.326294 16.9175 0.0903802 17.6861 0 18.4919L6.67248 17.2232C7.21565 17.1221 7.68249 16.8347 7.98602 16.4393L9.20971 14.8161V14.8158C9.33674 14.6478 9.41075 14.4454 9.41075 14.2273V11.8398L11.7637 11.3923V15.6967L19.3166 14.2596L19.3168 14.2599Z" fill="#231F20"/>
</g>
<defs>
<clipPath id="clip0_8687_51760">
<rect width="20" height="20" fill="white"/>
</clipPath>
</defs>
</svg>
