<svg width="17" height="20" viewBox="0 0 17 20" fill="none" xmlns="http://www.w3.org/2000/svg">
<path d="M16.57 5.23L11.9 0.45C11.7605 0.307669 11.594 0.194568 11.4103 0.117303C11.2266 0.0400391 11.0293 0.000161402 10.83 0H3.5C3.10218 0 2.72064 0.158035 2.43934 0.43934C2.15804 0.720644 2 1.10218 2 1.5V2H1.5C1.10218 2 0.720644 2.15804 0.43934 2.43934C0.158035 2.72064 0 3.10218 0 3.5V6C0 6.13261 0.0526785 6.25979 0.146447 6.35355C0.240215 6.44732 0.367392 6.5 0.5 6.5C0.632608 6.5 0.759785 6.44732 0.853553 6.35355C0.947321 6.25979 1 6.13261 1 6V3.5C1 3.36739 1.05268 3.24021 1.14645 3.14645C1.24021 3.05268 1.36739 3 1.5 3H2V16.5C2 16.8978 2.15804 17.2794 2.43934 17.5607C2.72064 17.842 3.10218 18 3.5 18H14V18.5C14 18.6326 13.9473 18.7598 13.8536 18.8536C13.7598 18.9473 13.6326 19 13.5 19H1.5C1.36739 19 1.24021 18.9473 1.14645 18.8536C1.05268 18.7598 1 18.6326 1 18.5V8C1 7.86739 0.947321 7.74021 0.853553 7.64645C0.759785 7.55268 0.632608 7.5 0.5 7.5C0.367392 7.5 0.240215 7.55268 0.146447 7.64645C0.0526785 7.74021 0 7.86739 0 8V18.5C0 18.8978 0.158035 19.2794 0.43934 19.5607C0.720644 19.842 1.10218 20 1.5 20H13.5C13.8978 20 14.2794 19.842 14.5607 19.5607C14.842 19.2794 15 18.8978 15 18.5V18H15.5C15.8978 18 16.2794 17.842 16.5607 17.5607C16.842 17.2794 17 16.8978 17 16.5V6.275C17.0011 6.08102 16.9636 5.88876 16.8898 5.70937C16.816 5.52998 16.7073 5.36704 16.57 5.23ZM12 2L15.44 5.5H12.5C12.3674 5.5 12.2402 5.44732 12.1464 5.35355C12.0527 5.25979 12 5.13261 12 5V2ZM16 16.5C16 16.6326 15.9473 16.7598 15.8536 16.8536C15.7598 16.9473 15.6326 17 15.5 17H3.5C3.36739 17 3.24021 16.9473 3.14645 16.8536C3.05268 16.7598 3 16.6326 3 16.5V1.5C3 1.36739 3.05268 1.24021 3.14645 1.14645C3.24021 1.05268 3.36739 1 3.5 1H10.83C10.8883 1.00167 10.9458 1.01351 11 1.035V5C11 5.39782 11.158 5.77936 11.4393 6.06066C11.7206 6.34196 12.1022 6.5 12.5 6.5H16V16.5ZM12.355 11.645C12.4019 11.6915 12.4391 11.7468 12.4644 11.8077C12.4898 11.8686 12.5029 11.934 12.5029 12C12.5029 12.066 12.4898 12.1314 12.4644 12.1923C12.4391 12.2532 12.4019 12.3085 12.355 12.355L9.855 14.855C9.80852 14.9019 9.75322 14.9391 9.69229 14.9644C9.63136 14.9898 9.56601 15.0029 9.5 15.0029C9.43399 15.0029 9.36864 14.9898 9.30771 14.9644C9.24678 14.9391 9.19148 14.9019 9.145 14.855L6.645 12.355C6.55085 12.2608 6.49795 12.1332 6.49795 12C6.49795 11.8668 6.55085 11.7392 6.645 11.645C6.73915 11.5508 6.86685 11.498 7 11.498C7.13315 11.498 7.26085 11.5508 7.355 11.645L9 13.3V8C9 7.86739 9.05268 7.74021 9.14645 7.64645C9.24021 7.55268 9.36739 7.5 9.5 7.5C9.63261 7.5 9.75979 7.55268 9.85355 7.64645C9.94732 7.74021 10 7.86739 10 8V13.3L11.645 11.65C11.6915 11.6031 11.7468 11.5659 11.8077 11.5406C11.8686 11.5152 11.934 11.5021 12 11.5021C12.066 11.5021 12.1314 11.5152 12.1923 11.5406C12.2532 11.5659 12.3085 11.6031 12.355 11.65V11.645Z" fill="#6A6DEB"/>
</svg>
