<svg xmlns="http://www.w3.org/2000/svg" width="103.355" height="101.571" viewBox="0 0 103.355 101.571">
  <g id="skipped-workorder" transform="translate(-466.276 -33.292)">
    <path id="Path_1113" data-name="Path 1113" d="M301.884,245.4a1.288,1.288,0,0,0-.892,1.586l21.5,76.8a1.288,1.288,0,0,0,1.586.892l79.277-22.2a1.288,1.288,0,0,0,.892-1.586l-21.5-76.8a1.288,1.288,0,0,0-1.586-.892Z" transform="translate(165.331 -189.865)" fill="#e6e6e6"/>
    <path id="Path_1114" data-name="Path 1114" d="M334.512,330.487l75.546-21.154L389.6,236.264l-75.546,21.153Z" transform="translate(155.898 -199.298)" fill="#fff"/>
    <g id="Group_2782" data-name="Group 2782" transform="translate(479.37 51.58)">
      <path id="Path_1115" data-name="Path 1115" d="M348.225,321.712c-.5.141-.712.978-.463,1.866s.861,1.5,1.365,1.354l34.455-9.648c.5-.141.712-.978.463-1.866s-.861-1.5-1.365-1.354Z" transform="translate(-347.657 -305.416)" fill="#e6e6e6"/>
      <path id="Path_1116" data-name="Path 1116" d="M358.123,357.064c-.5.141-.712.978-.463,1.866s.861,1.5,1.365,1.354l34.456-9.648c.5-.141.712-.978.463-1.866s-.861-1.5-1.365-1.354Z" transform="translate(-354.78 -330.858)" fill="#e6e6e6"/>
      <path id="Path_1117" data-name="Path 1117" d="M367.908,392.008c-.5.141-.712.978-.463,1.866s.861,1.5,1.365,1.354l34.455-9.648c.5-.141.712-.978.463-1.866s-.861-1.5-1.365-1.354Z" transform="translate(-361.822 -356.007)" fill="#e6e6e6"/>
      <path id="Path_1118" data-name="Path 1118" d="M377.807,427.36c-.5.141-.712.978-.463,1.866s.861,1.5,1.365,1.354l34.455-9.648c.5-.141.712-.978.463-1.866s-.861-1.5-1.365-1.354Z" transform="translate(-368.946 -381.449)" fill="#e6e6e6"/>
      <path id="Path_1119" data-name="Path 1119" d="M531.843,290.266a1.672,1.672,0,0,0,.9,3.221l6.441-1.8a1.672,1.672,0,1,0-.9-3.221Z" transform="translate(-479.333 -288.4)" fill="#e6e6e6"/>
      <path id="Path_1120" data-name="Path 1120" d="M541.55,324.933a1.672,1.672,0,0,0,.9,3.221l6.441-1.8a1.672,1.672,0,1,0-.9-3.221Z" transform="translate(-486.32 -313.35)" fill="#e6e6e6"/>
      <path id="Path_1121" data-name="Path 1121" d="M551.257,359.6a1.672,1.672,0,1,0,.9,3.221l6.441-1.8a1.672,1.672,0,1,0-.9-3.221Z" transform="translate(-493.306 -338.299)" fill="#e6e6e6"/>
      <path id="Path_1122" data-name="Path 1122" d="M560.964,394.266a1.672,1.672,0,0,0,.9,3.221l6.441-1.8a1.672,1.672,0,0,0-.9-3.221Z" transform="translate(-500.292 -363.248)" fill="#e6e6e6"/>
      <path id="Path_1123" data-name="Path 1123" d="M569.378,453.042a2.131,2.131,0,1,0,1.149,4.1l8.208-2.3a2.131,2.131,0,1,0-1.149-4.1h0Z" transform="translate(-506.106 -405.179)" fill="#6c63ff"/>
      <rect id="Rectangle_613" data-name="Rectangle 613" width="63.071" height="0.561" transform="matrix(0.963, -0.27, 0.27, 0.963, 10.984, 56.581)" fill="#e6e6e6"/>
    </g>
  </g>
</svg>
