<svg width="197" height="197" viewBox="0 0 197 197" fill="none" xmlns="http://www.w3.org/2000/svg">
<path d="M114.605 164.137C107.972 177.403 89.0391 177.403 82.4057 164.137L13.3638 26.0528C7.37971 14.0846 16.0826 0.00293868 29.4635 0.00293751L167.547 0.00292544C180.928 0.00292427 189.631 14.0845 183.647 26.0528L114.605 164.137Z" fill="#15B79E" fill-opacity="0.06"/>
<path d="M111.028 140.753C105.869 151.072 91.1432 151.072 85.9839 140.753L30.1032 28.9915C25.4489 19.6829 32.2178 8.73048 42.6251 8.73048L154.387 8.73047C164.794 8.73047 171.563 19.6828 166.909 28.9915L111.028 140.753Z" fill="#15B79E" fill-opacity="0.06"/>
<path d="M103.873 93.9778C101.662 98.4001 95.3514 98.4001 93.1403 93.9778L63.5819 34.861C61.5872 30.8716 64.4882 26.1777 68.9484 26.1777L128.065 26.1777C132.526 26.1777 135.426 30.8716 133.432 34.861L103.873 93.9778Z" fill="#15B79E" fill-opacity="0.06"/>
<path d="M109.239 113.792C104.817 122.636 92.1955 122.636 87.7732 113.792L48.2897 34.8246C44.3003 26.8458 50.1023 17.458 59.0229 17.458L137.99 17.458C146.91 17.458 152.712 26.8458 148.723 34.8246L109.239 113.792Z" fill="#15B79E" fill-opacity="0.06"/>
<path d="M102.085 67.0165C100.611 69.9646 96.4037 69.9647 94.9296 67.0165L81.7685 40.6941C80.4387 38.0345 82.3726 34.9053 85.3462 34.9053L111.668 34.9053C114.642 34.9053 116.576 38.0345 115.246 40.6941L102.085 67.0165Z" fill="#15B79E" fill-opacity="0.06"/>
</svg>
