<svg width="92" height="92" viewBox="0 0 92 92" fill="none" xmlns="http://www.w3.org/2000/svg">
<g clip-path="url(#clip0_43_508)">
<path d="M90.8147 73.0239L53.0778 10.4402C51.5911 7.97471 48.879 6.44305 45.9999 6.44305C43.1208 6.44305 40.4087 7.97471 38.9218 10.4404L1.18512 73.0239C-0.351389 75.5723 -0.39685 78.7649 1.06634 81.356C2.5299 83.9471 5.28738 85.5568 8.26301 85.5568H83.7368C86.7124 85.5568 89.4701 83.9471 90.9336 81.3559C92.3968 78.7646 92.3514 75.5719 90.8147 73.0239ZM85.718 78.4106C85.3152 79.1238 84.556 79.5671 83.7368 79.5671H8.26301C7.44381 79.5671 6.68463 79.124 6.28195 78.4108C5.87909 77.6974 5.89167 76.8184 6.31448 76.1171L44.0515 13.5333C44.4609 12.8547 45.2075 12.4329 46.0001 12.4329C46.7925 12.4329 47.5391 12.8547 47.9484 13.5333L85.6851 76.1171C86.1083 76.8186 86.1209 77.6974 85.718 78.4106Z" fill="#EE404C"/>
<path d="M46.0273 31.0869C43.7489 31.0869 41.9707 32.3094 41.9707 34.4768C41.9707 41.0897 42.7486 50.5923 42.7486 57.2053C42.7487 58.928 44.2493 59.6503 46.0275 59.6503C47.3611 59.6503 49.2506 58.928 49.2506 57.2053C49.2506 50.5925 50.0284 41.0899 50.0284 34.4768C50.0284 32.3096 48.1947 31.0869 46.0273 31.0869Z" fill="#EE404C"/>
<path d="M46.0838 63.4847C43.6388 63.4847 41.8047 65.4296 41.8047 67.7638C41.8047 70.0422 43.6386 72.0428 46.0838 72.0428C48.3622 72.0428 50.3073 70.0422 50.3073 67.7638C50.3073 65.4296 48.362 63.4847 46.0838 63.4847Z" fill="#EE404C"/>
</g>
<defs>
<clipPath id="clip0_43_508">
<rect width="92" height="92" fill="white"/>
</clipPath>
</defs>
</svg>
