<svg xmlns="http://www.w3.org/2000/svg" width="29.634" height="29.634" viewBox="0 0 29.634 29.634">
  <g id="ad-wo-icon" transform="translate(0)">
    <g id="Group_2515" data-name="Group 2515" transform="translate(0)">
      <g id="Group_2514" data-name="Group 2514" transform="translate(0 0)">
        <path id="Path_1100" data-name="Path 1100" d="M27.671,11.586,26.024,11.3a11.69,11.69,0,0,0-.792-1.917l.96-1.368a2.37,2.37,0,0,0-.265-3.04L24.662,3.708a2.37,2.37,0,0,0-3.04-.265l-1.368.96a11.69,11.69,0,0,0-1.917-.792l-.289-1.647A2.373,2.373,0,0,0,15.711,0H13.923a2.37,2.37,0,0,0-2.337,1.963L11.3,3.61A11.678,11.678,0,0,0,9.38,4.4l-1.368-.96a2.37,2.37,0,0,0-3.04.265L3.708,4.972a2.37,2.37,0,0,0-.265,3.04L4.4,9.38A11.69,11.69,0,0,0,3.609,11.3l-1.647.289A2.37,2.37,0,0,0,0,13.923v1.787a2.373,2.373,0,0,0,1.963,2.337l1.647.289A11.677,11.677,0,0,0,4.4,20.254l-.96,1.368a2.37,2.37,0,0,0,.265,3.04l1.264,1.264a2.37,2.37,0,0,0,3.04.265l1.368-.959a11.673,11.673,0,0,0,1.917.792l.289,1.647a2.37,2.37,0,0,0,2.337,1.962h1.787a2.37,2.37,0,0,0,2.337-1.963.752.752,0,0,0-1.482-.26.868.868,0,0,1-.855.718H13.923a.868.868,0,0,1-.855-.718L12.7,25.3a.752.752,0,0,0-.543-.6A10.165,10.165,0,0,1,9.71,23.7a.752.752,0,0,0-.81.036L7.149,24.959a.868.868,0,0,1-1.112-.1L4.772,23.6a.868.868,0,0,1-.1-1.112L5.9,20.735a.752.752,0,0,0,.036-.81A10.174,10.174,0,0,1,4.928,17.48a.752.752,0,0,0-.6-.546l-2.108-.37a.868.868,0,0,1-.718-.853V13.923a.868.868,0,0,1,.718-.855l2.109-.37a.752.752,0,0,0,.6-.544A10.179,10.179,0,0,1,5.939,9.709.752.752,0,0,0,5.9,8.9L4.675,7.149a.868.868,0,0,1,.1-1.112L6.036,4.772a.868.868,0,0,1,1.112-.1L8.9,5.9a.752.752,0,0,0,.81.036,10.168,10.168,0,0,1,2.445-1.011.752.752,0,0,0,.546-.6l.37-2.109a.868.868,0,0,1,.853-.718h1.787a.868.868,0,0,1,.855.718l.37,2.109a.752.752,0,0,0,.543.6A10.179,10.179,0,0,1,19.924,5.94a.752.752,0,0,0,.81-.036l1.751-1.228a.868.868,0,0,1,1.112.1l1.264,1.264a.868.868,0,0,1,.1,1.112L23.731,8.9a.752.752,0,0,0-.036.81,10.184,10.184,0,0,1,1.011,2.445.752.752,0,0,0,.6.546l2.109.37a.868.868,0,0,1,.718.853v1.787a.868.868,0,0,1-.718.855.752.752,0,0,0,.26,1.482,2.37,2.37,0,0,0,1.963-2.338V13.923A2.373,2.373,0,0,0,27.671,11.586Z" transform="translate(0 0)" fill="#fff"/>
      </g>
    </g>
    <g id="Group_2517" data-name="Group 2517" transform="translate(7.462 7.463)">
      <g id="Group_2516" data-name="Group 2516">
        <path id="Path_1101" data-name="Path 1101" d="M148.964,144.142l-4.813-4.96a3.081,3.081,0,0,1-.863-2.431,7.182,7.182,0,0,0-7.791-7.78,1.407,1.407,0,0,0-.873.4,1.456,1.456,0,0,0-.02,2.056l2.074,2.114a1.089,1.089,0,0,1-.014,1.54h0l-1.606,1.575a1.089,1.089,0,0,1-1.54-.015l-2.074-2.114a1.456,1.456,0,0,0-2.056-.02,1.407,1.407,0,0,0-.417.865,7.182,7.182,0,0,0,7.63,7.938,3.078,3.078,0,0,1,2.41.906l4.81,4.956a.753.753,0,1,0,1.08-1.048l-4.813-4.959a4.585,4.585,0,0,0-3.589-1.357,5.677,5.677,0,0,1-6.046-6.141l1.989,2.026a2.577,2.577,0,0,0,1.827.777h.025a2.576,2.576,0,0,0,1.815-.74l1.606-1.575a2.594,2.594,0,0,0,.035-3.668l-1.989-2.026a5.678,5.678,0,0,1,6.026,6.161,4.581,4.581,0,0,0,1.285,3.611l4.81,4.957a.753.753,0,1,0,1.08-1.048Z" transform="translate(-128.929 -128.943)" fill="#fff"/>
      </g>
    </g>
  </g>
</svg>
