<svg xmlns="http://www.w3.org/2000/svg" width="24.825" height="26.685" viewBox="0 0 24.825 26.685">
  <g id="all-main-req" transform="translate(-129.038 -163.773)">
    <path id="Ellipse_2" data-name="Ellipse 2" d="M10.525,21.492H3a3,3,0,0,1-3-3V3A3,3,0,0,1,3,0h11.36a3,3,0,0,1,3,3v9.3h-.008a6.794,6.794,0,0,0-2.766.585,1.376,1.376,0,0,0-1.033-.469H3.865a1.376,1.376,0,1,0,0,2.752h7.883a7.42,7.42,0,0,0-1.456,4.451,7.591,7.591,0,0,0,.233,1.873ZM3.865,8.2a1.376,1.376,0,1,0,0,2.752h9.687a1.376,1.376,0,0,0,0-2.752Zm0-4.217a1.376,1.376,0,1,0,0,2.752H9.2a1.376,1.376,0,0,0,0-2.752Z" transform="translate(129.038 163.773)" fill="#c1c1ec"/>
    <path id="Ellipse_1_copy" data-name="Ellipse 1 copy" d="M7.8,13.58h0a.674.674,0,0,1-.381-.142,2.151,2.151,0,0,1-.426-.427,1.635,1.635,0,0,0-1.27-.731,1.9,1.9,0,0,0-1.038.366,1.535,1.535,0,0,1-.784.315.48.48,0,0,1-.248-.064.529.529,0,0,1-.183-.192,1.686,1.686,0,0,1-.171-.766,1.54,1.54,0,0,0-1.653-1.653,2.031,2.031,0,0,1-.64-.11.591.591,0,0,1-.331-.268.591.591,0,0,1-.022-.425A2.031,2.031,0,0,1,.934,8.9,1.54,1.54,0,0,0,.569,6.592a2.031,2.031,0,0,1-.453-.466.591.591,0,0,1-.11-.411.591.591,0,0,1,.232-.357,2.031,2.031,0,0,1,.575-.3A1.54,1.54,0,0,0,1.873,2.973a2.135,2.135,0,0,1-.094-.6.663.663,0,0,1,.114-.393.461.461,0,0,1,.2-.15.818.818,0,0,1,.3-.05,2.2,2.2,0,0,1,.578.095,2.373,2.373,0,0,0,.637.1A1.507,1.507,0,0,0,5.056.812,1.917,1.917,0,0,1,5.388.2a.532.532,0,0,1,.4-.2.675.675,0,0,1,.381.142,2.151,2.151,0,0,1,.426.427,1.635,1.635,0,0,0,1.27.731A1.9,1.9,0,0,0,8.9.934,1.535,1.535,0,0,1,9.685.619a.48.48,0,0,1,.248.064.529.529,0,0,1,.183.192,1.686,1.686,0,0,1,.171.766A1.54,1.54,0,0,0,11.94,3.293a2.031,2.031,0,0,1,.64.11.591.591,0,0,1,.331.268.591.591,0,0,1,.022.425,2.031,2.031,0,0,1-.287.583,1.54,1.54,0,0,0,.366,2.308,2.031,2.031,0,0,1,.453.466.523.523,0,0,1-.122.768,2.031,2.031,0,0,1-.575.3,1.54,1.54,0,0,0-1.061,2.082,2.135,2.135,0,0,1,.094.6.663.663,0,0,1-.114.393.461.461,0,0,1-.2.15.819.819,0,0,1-.3.05,2.2,2.2,0,0,1-.578-.095,2.372,2.372,0,0,0-.637-.1,1.507,1.507,0,0,0-1.445,1.158,1.917,1.917,0,0,1-.332.609A.533.533,0,0,1,7.8,13.58Zm-1-11.134a4.373,4.373,0,1,0,4.373,4.373A4.378,4.378,0,0,0,6.791,2.446Z" transform="translate(140.283 176.878)" fill="#7171b4"/>
    <path id="Polygon_1" data-name="Polygon 1" d="M0,3.482l1.085-.015V.777a.777.777,0,0,1,1.553,0V3.445l1.11-.016L1.92,6.7Z" transform="translate(143.745 180.474)" fill="#7171b4"/>
    <path id="Polygon_1_copy" data-name="Polygon 1 copy" d="M1.11,5.926V3.257L0,3.272,1.829,0l1.92,3.22-1.085.015v2.69a.777.777,0,0,1-1.554,0Z" transform="translate(146.68 180.186)" fill="#7171b4"/>
  </g>
</svg>
