<svg id="contracts-cost" xmlns="http://www.w3.org/2000/svg" width="27.797" height="30.672" viewBox="0 0 27.797 30.672">
  <path id="Path_1069" data-name="Path 1069" d="M23.668,11a7.668,7.668,0,1,0,7.668,7.668A7.668,7.668,0,0,0,23.668,11Zm-.479,6.71h.959a2.4,2.4,0,0,1,.479,4.744V22.5a.959.959,0,1,1-1.917,0h-.959a.959.959,0,0,1,0-1.917h2.4a.479.479,0,1,0,0-.958h-.959a2.4,2.4,0,0,1-.479-4.744v-.049a.959.959,0,1,1,1.917,0h.959a.959.959,0,0,1,0,1.917h-2.4a.479.479,0,0,0,0,.959Z" transform="translate(-3.539 -0.456)" fill="#7171b4"/>
  <path id="Path_1070" data-name="Path 1070" d="M24.087,8.674v-5.8A2.884,2.884,0,0,0,21.212,0H5.876A2.884,2.884,0,0,0,3,2.876V27.8a2.884,2.884,0,0,0,2.876,2.876H21.212A2.884,2.884,0,0,0,24.087,27.8v-.048c-.316.029-.633.048-.958.048A9.552,9.552,0,0,1,16.4,25.023a.949.949,0,0,1-.937.857H7.793a.959.959,0,1,1,0-1.917h7.668c.009,0,.016,0,.024,0a9.577,9.577,0,0,1-1.254-2.216.952.952,0,0,1-.687.294H7.793a.959.959,0,1,1,0-1.917h5.751a.916.916,0,0,1,.2.041,9.569,9.569,0,0,1-.2-1.958H7.793a.959.959,0,0,1,0-1.917h5.751a.912.912,0,0,1,.188.038,9.494,9.494,0,0,1,.62-1.955H7.793a.959.959,0,1,1,0-1.917H14.5a.944.944,0,0,1,.721.345,9.667,9.667,0,0,1,2.182-2.262H7.793a.959.959,0,1,1,0-1.917h11.5a.946.946,0,0,1,.821.493,9.519,9.519,0,0,1,3.013-.493C23.454,8.627,23.771,8.646,24.087,8.674ZM17.378,6.71H9.71a.959.959,0,1,1,0-1.917h7.668a.959.959,0,1,1,0,1.917Z" transform="translate(-3)" fill="#c1c1ec"/>
</svg>
