<svg id="pass-fail" xmlns="http://www.w3.org/2000/svg" width="37.593" height="30.256" viewBox="0 0 37.593 30.256">
  <path id="Path_1071" data-name="Path 1071" d="M17.7,73.608V51.07a5.478,5.478,0,0,0-3.3-1.1H1.613A1.717,1.717,0,0,0,0,51.8V73.608ZM7.819,57.527,10.345,55A1.1,1.1,0,1,1,11.9,56.559l-3.3,3.3a1.1,1.1,0,0,1-1.557,0l-1.8-1.8A1.1,1.1,0,0,1,6.8,56.506ZM13.228,69.5H4.461a1.1,1.1,0,0,1,0-2.2h8.767a1.1,1.1,0,0,1,0,2.2Zm0-4.7H4.461a1.1,1.1,0,1,1,0-2.2h8.767a1.1,1.1,0,1,1,0,2.2Z" transform="translate(0 -49.966)" fill="#e9b7cb"/>
  <path id="Path_1072" data-name="Path 1072" d="M271,73.608h17.7V51.8a1.717,1.717,0,0,0-1.613-1.836H274.3a5.478,5.478,0,0,0-3.3,1.1ZM282.278,58.77a1.1,1.1,0,1,1-1.557,1.558l-.873-.873-.873.873a1.1,1.1,0,0,1-1.557-1.558l.873-.873-.873-.873a1.1,1.1,0,0,1,1.558-1.558l.873.873.873-.873a1.1,1.1,0,0,1,1.558,1.558l-.873.873ZM284.234,69.5h-8.767a1.1,1.1,0,0,1,0-2.2h8.767a1.1,1.1,0,0,1,0,2.2Zm0-4.406h-8.767a1.1,1.1,0,0,1,0-2.2h8.767a1.1,1.1,0,0,1,0,2.2Z" transform="translate(-251.102 -49.966)" fill="#dc8dad"/>
  <path id="Path_1073" data-name="Path 1073" d="M0,401.955v2.576a1.838,1.838,0,0,0,1.836,1.836H35.757a1.838,1.838,0,0,0,1.836-1.836v-2.576Z" transform="translate(0 -376.111)" fill="#d27da0"/>
</svg>
