<svg xmlns="http://www.w3.org/2000/svg" width="25.241" height="26.439" viewBox="0 0 25.241 26.439">
  <g id="pending-main-req" transform="translate(-851.247 -163.931)">
    <path id="Ellipse_2" data-name="Ellipse 2" d="M10.914,21H3a3,3,0,0,1-3-3V3A3,3,0,0,1,3,0H15a3,3,0,0,1,3,3v9.017h-.009a7.415,7.415,0,0,0-2.853.565,1.347,1.347,0,0,0-1-.451H3.925a1.345,1.345,0,1,0,0,2.689h8.256A7.024,7.024,0,0,0,10.913,21ZM3.925,8.011a1.345,1.345,0,1,0,0,2.689H14.134a1.345,1.345,0,1,0,0-2.689Zm0-4.12a1.345,1.345,0,1,0,0,2.69H9.619a1.345,1.345,0,0,0,0-2.69Z" transform="translate(851.247 163.931)" fill="#c1c1ec"/>
    <path id="Ellipse_1_copy" data-name="Ellipse 1 copy" d="M7.7,13.415h0a.666.666,0,0,1-.377-.14,2.125,2.125,0,0,1-.421-.421,1.615,1.615,0,0,0-1.255-.722,1.875,1.875,0,0,0-1.025.361,1.517,1.517,0,0,1-.775.311A.474.474,0,0,1,3.6,12.74a.522.522,0,0,1-.181-.189,1.665,1.665,0,0,1-.169-.757,1.521,1.521,0,0,0-1.632-1.632,2.006,2.006,0,0,1-.632-.109.584.584,0,0,1-.327-.265.584.584,0,0,1-.022-.42,2.006,2.006,0,0,1,.283-.576,1.521,1.521,0,0,0-.361-2.28,2.006,2.006,0,0,1-.447-.46.584.584,0,0,1-.109-.406.584.584,0,0,1,.229-.353,2.006,2.006,0,0,1,.568-.3A1.521,1.521,0,0,0,1.85,2.937a2.109,2.109,0,0,1-.093-.595.654.654,0,0,1,.113-.388.455.455,0,0,1,.2-.148.808.808,0,0,1,.3-.049,2.17,2.17,0,0,1,.571.093,2.343,2.343,0,0,0,.629.1A1.489,1.489,0,0,0,4.994.8,1.894,1.894,0,0,1,5.322.2.526.526,0,0,1,5.714,0a.666.666,0,0,1,.377.14,2.125,2.125,0,0,1,.421.421,1.615,1.615,0,0,0,1.255.722A1.875,1.875,0,0,0,8.792.923,1.517,1.517,0,0,1,9.567.612a.474.474,0,0,1,.245.063.522.522,0,0,1,.181.189,1.665,1.665,0,0,1,.169.757,1.521,1.521,0,0,0,1.632,1.632,2.007,2.007,0,0,1,.632.109.584.584,0,0,1,.327.265.584.584,0,0,1,.022.42,2.007,2.007,0,0,1-.283.576,1.521,1.521,0,0,0,.361,2.28,2.006,2.006,0,0,1,.447.46.517.517,0,0,1-.12.759,2.006,2.006,0,0,1-.568.3,1.521,1.521,0,0,0-1.048,2.057,2.109,2.109,0,0,1,.093.595.654.654,0,0,1-.113.388.456.456,0,0,1-.2.148.809.809,0,0,1-.3.049,2.17,2.17,0,0,1-.571-.093,2.343,2.343,0,0,0-.629-.1,1.489,1.489,0,0,0-1.428,1.143,1.894,1.894,0,0,1-.328.6A.526.526,0,0,1,7.7,13.415Zm-.992-11a4.32,4.32,0,1,0,4.32,4.32A4.325,4.325,0,0,0,6.708,2.416Z" transform="translate(863.073 176.955)" fill="#7171b4"/>
    <path id="Rounded_Rectangle_3_copy" data-name="Rounded Rectangle 3 copy" d="M3.392,4.178H.653a.654.654,0,0,1,0-1.308H2.927V.653a.654.654,0,0,1,1.308,0v2.9a.654.654,0,0,1-.843.626Z" transform="translate(866.826 180.536)" fill="#7171b4"/>
  </g>
</svg>
