<svg xmlns="http://www.w3.org/2000/svg" width="22" height="22" viewBox="0 0 22 22">
  <g id="plus-add-wo" transform="translate(-27.317 -23.317)">
    <g id="Path_1103" data-name="Path 1103" transform="translate(27.317 23.317)" fill="#fff">
      <path d="M 11 21 C 5.485980033874512 21 1 16.5140209197998 1 11 C 1 5.485980033874512 5.485980033874512 1 11 1 C 16.5140209197998 1 21 5.485980033874512 21 11 C 21 16.5140209197998 16.5140209197998 21 11 21 Z" stroke="none"/>
      <path d="M 11 2 C 6.037380218505859 2 2 6.037380218505859 2 11 C 2 15.96261978149414 6.037380218505859 20 11 20 C 15.96261978149414 20 20 15.96261978149414 20 11 C 20 6.037380218505859 15.96261978149414 2 11 2 M 11 0 C 17.07513046264648 0 22 4.924869537353516 22 11 C 22 17.07513046264648 17.07513046264648 22 11 22 C 4.924869537353516 22 0 17.07513046264648 0 11 C 0 4.924869537353516 4.924869537353516 0 11 0 Z" stroke="none" fill="#5f63f2"/>
    </g>
    <path id="plus-add-wo-2" data-name="plus-add-wo" d="M258.158,253.421h-3.025v-3.091a.731.731,0,0,0-1.461,0v3.091h-3.091a.731.731,0,1,0,0,1.461h3.091v3.025a.731.731,0,1,0,1.461,0v-3.025h3.025a.731.731,0,0,0,0-1.461Z" transform="translate(-216.494 -219.422)" fill="#5f63f2" stroke="#5f63f2" stroke-width="1"/>
  </g>
</svg>
