<svg xmlns="http://www.w3.org/2000/svg" width="12.292" height="13.794" viewBox="0 0 12.292 13.794">
  <g id="admin" transform="translate(-27.5)">
    <path id="Path_1123" data-name="Path 1123" d="M39.792,7.38V4.912L38.3,4.556a4.9,4.9,0,0,0-.239-.577l.8-1.307L37.119.927l-1.307.8a4.9,4.9,0,0,0-.577-.239L34.88,0H32.412l-.355,1.492a4.9,4.9,0,0,0-.577.239l-1.307-.8L28.427,2.673l.8,1.307a4.9,4.9,0,0,0-.239.577L27.5,4.912V7.38l1.492.355a4.9,4.9,0,0,0,.239.577l-.808,1.313,1.21,1.159a3.784,3.784,0,0,0-.194,1.2v1.811h8.468V11.983a3.784,3.784,0,0,0-.182-1.159l1.133-1.214-.8-1.3a4.9,4.9,0,0,0,.239-.577Zm-2.7,5.595H30.259v-.992a2.969,2.969,0,0,1,2.969-2.969h.891a2.969,2.969,0,0,1,2.969,2.969ZM33.673,8.16a1.895,1.895,0,1,1,1.895-1.895A1.9,1.9,0,0,1,33.673,8.16Zm4.16,1.347-.476.511c-.016-.026-.031-.051-.047-.077A3.773,3.773,0,0,0,35.35,8.4,2.714,2.714,0,1,0,32,8.4a3.773,3.773,0,0,0-1.96,1.542L30,10l-.532-.509.709-1.151-.536-1.292-1.321-.315V5.559l1.321-.315.536-1.292-.712-1.157.83-.83,1.158.712,1.292-.536L33.059.819h1.174l.315,1.321,1.292.536L37,1.965l.83.83-.712,1.157.536,1.292,1.321.315V6.733l-1.321.315L37.115,8.34Z" fill="#adb4d2"/>
  </g>
</svg>
