<svg width="32" height="32" viewBox="0 0 32 32" fill="none" xmlns="http://www.w3.org/2000/svg">
<path fill-rule="evenodd" clip-rule="evenodd" d="M16.0001 10.9244C12.6401 10.9244 9.90234 13.6622 9.90234 17.0222C9.90234 20.3822 12.6401 23.12 16.0001 23.12C19.3601 23.12 22.0979 20.3822 22.0979 17.0222C22.0979 13.6622 19.3601 10.9244 16.0001 10.9244ZM17.0135 19.7689C17.0135 20.3289 16.5601 20.7822 16.0001 20.7822C15.4401 20.7822 14.9868 20.3289 14.9868 19.7689V17.5822C14.9868 17.0222 15.4401 16.5689 16.0001 16.5689C16.5601 16.5689 17.0135 17.0222 17.0135 17.5822V19.7689ZM16.0001 15.3155C15.4401 15.3155 14.9868 14.8622 14.9868 14.3022C14.9868 13.7422 15.4401 13.2889 16.0001 13.2889C16.5601 13.2889 17.0135 13.7422 17.0135 14.3022C17.0135 14.8622 16.5601 15.3155 16.0001 15.3155Z" fill="#F15642"/>
<path fill-rule="evenodd" clip-rule="evenodd" d="M26.1601 1.77783H9.73348C9.19125 1.77783 8.6757 1.99117 8.29348 2.37339L4.40903 6.25783C4.02681 6.64005 3.81348 7.15561 3.81348 7.69783V28.1867C3.81348 28.7289 4.02681 29.2445 4.40903 29.6267C4.79125 30.0089 5.30681 30.2223 5.84903 30.2223H26.1601C26.7024 30.2223 27.2179 30.0089 27.6001 29.6267C27.9824 29.2445 28.1957 28.7289 28.1957 28.1867V3.81339C28.1957 2.69339 27.289 1.77783 26.1601 1.77783ZM16.0001 25.1467C11.5201 25.1467 7.8757 21.5023 7.8757 17.0223C7.8757 12.5423 11.5201 8.89783 16.0001 8.89783C20.4801 8.89783 24.1246 12.5423 24.1246 17.0223C24.1246 21.5023 20.4801 25.1467 16.0001 25.1467Z" fill="#E6E8EA"/>
</svg>
