<svg id="layer1" xmlns="http://www.w3.org/2000/svg" width="184.053" height="184.054" viewBox="0 0 184.053 184.054">
  <path id="path824" d="M92.331.264a92.027,92.027,0,1,0,91.985,92,92.185,92.185,0,0,0-91.985-92ZM92.2,42a8.365,8.365,0,0,1,8.462,8.462v63.464l19.194-19.194a8.365,8.365,0,1,1,11.794,11.843L98.2,140.048a8.365,8.365,0,0,1-11.794,0L52.93,106.577A8.381,8.381,0,1,1,64.79,94.733l19.129,19.113V50.464A8.365,8.365,0,0,1,92.2,42Z" transform="translate(-0.264 -0.264)" fill="#20c997" fill-rule="evenodd"/>
</svg>
