<svg id="response" xmlns="http://www.w3.org/2000/svg" width="31.906" height="31.906" viewBox="0 0 31.906 31.906">
  <circle id="Ellipse_199" data-name="Ellipse 199" cx="3.899" cy="3.899" r="3.899" transform="translate(19.295 14.839)" fill="#359b7e"/>
  <path id="Path_1074" data-name="Path 1074" d="M292.935,62.869h3.427v4.287l-.9-.9a.935.935,0,0,0-1.322,1.322l2.493,2.493a.935.935,0,0,0,1.322,0l2.493-2.493a.935.935,0,0,0-1.322-1.322l-.9.9V61.935A.935.935,0,0,0,297.3,61h-4.362a.935.935,0,1,0,0,1.869Z" transform="translate(-273.804 -57.199)" fill="#97efd5"/>
  <path id="Path_1075" data-name="Path 1075" d="M87.789,308.477H84.362v-4.287l.9.9a.935.935,0,0,0,1.322-1.322l-2.493-2.493a.935.935,0,0,0-1.322,0l-2.493,2.493a.935.935,0,0,0,1.322,1.322l.9-.9v5.221a.935.935,0,0,0,.935.935h4.362a.935.935,0,1,0,0-1.869Z" transform="translate(-75.014 -282.243)" fill="#359b7e"/>
  <path id="Path_1076" data-name="Path 1076" d="M254.682,372.747a5.91,5.91,0,0,1-8.538,0,7.176,7.176,0,0,0-4.144,6.5v1.246a.935.935,0,0,0,.935.935h14.956a.935.935,0,0,0,.935-.935v-1.246a7.176,7.176,0,0,0-4.144-6.5Z" transform="translate(-226.92 -349.519)" fill="#78d5ba"/>
  <path id="Path_1077" data-name="Path 1077" d="M16.224,9.723l-1.357-.784c.015-.177.022-.352.022-.527s-.007-.35-.022-.527L16.224,7.1a.935.935,0,0,0,.342-1.277L14.7,2.587a.935.935,0,0,0-1.277-.342l-1.36.785a6.5,6.5,0,0,0-.91-.525V.935A.935.935,0,0,0,10.215,0H6.476a.935.935,0,0,0-.935.935V2.506a6.491,6.491,0,0,0-.91.525l-1.36-.785a.935.935,0,0,0-1.277.342L.125,5.825A.935.935,0,0,0,.467,7.1l1.357.784c-.015.177-.022.352-.022.527s.007.35.022.527L.467,9.723A.935.935,0,0,0,.125,11l1.869,3.238a.935.935,0,0,0,1.277.342l1.36-.785a6.49,6.49,0,0,0,.91.525v1.571a.935.935,0,0,0,.935.935h3.739a.935.935,0,0,0,.935-.935V14.32a6.484,6.484,0,0,0,.91-.525l1.36.785a.935.935,0,0,0,1.277-.342L16.566,11A.935.935,0,0,0,16.224,9.723ZM8.346,10.749a2.337,2.337,0,1,1,2.337-2.337A2.337,2.337,0,0,1,8.346,10.749Z" transform="translate(0 0)" fill="#78d5ba"/>
</svg>
