<svg id="score" xmlns="http://www.w3.org/2000/svg" width="32.263" height="32.263" viewBox="0 0 32.263 32.263">
  <path id="Path_1078" data-name="Path 1078" d="M170.654,9.058l3.546,1.865-.677-3.949,2.871-2.8L172.427,3.6,170.654,0l-1.773,3.6-3.966.576,2.871,2.8-.677,3.949Zm0,0" transform="translate(-154.522 0)" fill="#a1c0d9"/>
  <path id="Path_1079" data-name="Path 1079" d="M334.453,105.7l-1.773-3.593-1.773,3.593-3.964.576,2.869,2.8-.677,3.95,3.546-1.865,3.548,1.865-.679-3.95,3.055-2.8Zm0,0" transform="translate(-306.34 -95.672)" fill="#4a80ac"/>
  <path id="Path_1080" data-name="Path 1080" d="M3.055,109.071l-.679,3.95,3.548-1.865,3.546,1.865-.677-3.95,2.869-2.8L7.7,105.7l-1.773-3.593L4.15,105.7,0,106.275Zm0,0" transform="translate(0 -95.671)" fill="#4a80ac"/>
  <path id="Path_1081" data-name="Path 1081" d="M190.452,215.726a4.726,4.726,0,1,0-4.726,4.726A4.732,4.732,0,0,0,190.452,215.726Zm0,0" transform="translate(-169.594 -197.704)" fill="#4a80ac"/>
  <path id="Path_1082" data-name="Path 1082" d="M151,367.616v2.9h13.233v-2.9a6.616,6.616,0,0,0-13.233,0Zm0,0" transform="translate(-141.485 -338.252)" fill="#4a80ac"/>
  <path id="Path_1083" data-name="Path 1083" d="M389.984,425.726A4.732,4.732,0,0,0,385.258,421a4.661,4.661,0,0,0-1.395.234,8.389,8.389,0,0,1,.45,2.6v2.9h5.671Zm0,0" transform="translate(-359.675 -394.471)" fill="#a1c0d9"/>
  <path id="Path_1084" data-name="Path 1084" d="M353.562,304.781a3.781,3.781,0,0,0-7.562,0c0,.12.024.234.035.352a8.5,8.5,0,0,1,2.167,3.073,3.741,3.741,0,0,0,1.579.356A3.785,3.785,0,0,0,353.562,304.781Zm0,0" transform="translate(-324.197 -282.033)" fill="#a1c0d9"/>
  <path id="Path_1085" data-name="Path 1085" d="M53.527,305.132c.011-.117.035-.231.035-.352a3.781,3.781,0,1,0-3.781,3.781,3.744,3.744,0,0,0,1.579-.356A8.5,8.5,0,0,1,53.527,305.132Zm0,0" transform="translate(-43.102 -282.033)" fill="#a1c0d9"/>
  <path id="Path_1086" data-name="Path 1086" d="M31,425.726v1.008h5.671v-2.9a8.389,8.389,0,0,1,.45-2.6A4.661,4.661,0,0,0,35.726,421,4.732,4.732,0,0,0,31,425.726Zm0,0" transform="translate(-29.047 -394.471)" fill="#a1c0d9"/>
</svg>
