<svg xmlns="http://www.w3.org/2000/svg" width="15.63" height="10.823" viewBox="0 0 15.63 10.823">
  <path id="group" d="M15.377,6.145A4.425,4.425,0,0,0,13.8,4.581a4.354,4.354,0,0,0-.559-.274c.032-.029.064-.059.1-.09a2.47,2.47,0,1,0-4.212-1.88,2.471,2.471,0,0,0-2.621,0A2.47,2.47,0,1,0,2.291,4.217c.031.031.063.061.1.09a4.354,4.354,0,0,0-.559.274A4.425,4.425,0,0,0,.251,6.145a1.773,1.773,0,0,0-.013,1.8,1.793,1.793,0,0,0,1.575.916H3.782a1.815,1.815,0,0,0,1.807,1.961h4.45a1.815,1.815,0,0,0,1.807-1.961h1.969a1.793,1.793,0,0,0,1.575-.916A1.773,1.773,0,0,0,15.377,6.145Zm-.816,1.329a.849.849,0,0,1-.745.434h-2.34a4.425,4.425,0,0,0-1.451-1.366,4.368,4.368,0,0,0-.559-.274c.032-.029.064-.059.1-.09a2.463,2.463,0,0,0,.581-.915,3.437,3.437,0,0,1,4.414,1.368A.828.828,0,0,1,14.561,7.473ZM10.779,8.592a.828.828,0,0,1,.005.842.849.849,0,0,1-.745.434H5.589a.849.849,0,0,1-.745-.434.829.829,0,0,1,.005-.842,3.445,3.445,0,0,1,5.93,0ZM1.068,7.473a.828.828,0,0,1,.005-.842A3.437,3.437,0,0,1,5.487,5.263a2.464,2.464,0,0,0,.581.915q.047.047.1.09a4.378,4.378,0,0,0-.559.274A4.427,4.427,0,0,0,4.153,7.908H1.813A.849.849,0,0,1,1.068,7.473Zm1.9-3.931a1.516,1.516,0,1,1,1.072.444A1.506,1.506,0,0,1,2.966,3.542ZM11.59.956a1.515,1.515,0,1,1-1.072.443A1.511,1.511,0,0,1,11.59.956Zm-2.7,2.4a1.515,1.515,0,1,1-1.072-.444A1.505,1.505,0,0,1,8.886,3.36Zm0,0" transform="translate(0.001)" fill="#adb4d2"/>
</svg>
