<svg id="total-contract" xmlns="http://www.w3.org/2000/svg" width="32.902" height="32.902" viewBox="0 0 32.902 32.902">
  <path id="Path_1067" data-name="Path 1067" d="M19.536,0H3.77A3.768,3.768,0,0,0,0,3.77V25.019a3.768,3.768,0,0,0,3.77,3.77H14.943a11.931,11.931,0,0,1-1.919-6.443V19a1.325,1.325,0,0,1-.685.192H5.484a1.371,1.371,0,1,1,0-2.742h6.855a1.337,1.337,0,0,1,.7.192A4.022,4.022,0,0,1,14.5,13.709H5.484a1.371,1.371,0,1,1,0-2.742H17.822a1.377,1.377,0,0,1,1.275.864L23,10.5a1.089,1.089,0,0,1,.3-.082V3.77A3.768,3.768,0,0,0,19.536,0ZM10.967,8.226H5.484a1.371,1.371,0,0,1,0-2.742h5.484a1.371,1.371,0,1,1,0,2.742Z" transform="translate(0 0)" fill="#c1c1ec"/>
  <path id="Path_1068" data-name="Path 1068" d="M27.707,12.021l-7.2-2.448a1.375,1.375,0,0,0-.884,0l-7.2,2.448a1.372,1.372,0,0,0-.929,1.3v5.508c0,6.946,7.7,10.3,8.031,10.442a1.39,1.39,0,0,0,.539.108,1.356,1.356,0,0,0,.537-.11c.328-.14,8.031-3.494,8.031-10.441V13.319a1.369,1.369,0,0,0-.929-1.3Zm-2.772,5.156-4.113,5.484a1.365,1.365,0,0,1-1,.544c-.033,0-.066,0-.1,0a1.364,1.364,0,0,1-.969-.4l-2.742-2.742a1.371,1.371,0,0,1,1.938-1.938l1.625,1.625,3.164-4.22a1.371,1.371,0,0,1,2.193,1.645Z" transform="translate(4.265 3.524)" fill="#7171b4"/>
</svg>
