<svg width="82" height="82" viewBox="0 0 82 82" fill="none" xmlns="http://www.w3.org/2000/svg">
<path d="M41.0026 75.1663C59.8723 75.1663 75.1693 59.8694 75.1693 40.9997C75.1693 22.1299 59.8723 6.83301 41.0026 6.83301C22.1329 6.83301 6.83594 22.1299 6.83594 40.9997C6.83594 59.8694 22.1329 75.1663 41.0026 75.1663Z" fill="white" fill-opacity="0.45" stroke="white" stroke-width="5" stroke-linecap="round" stroke-linejoin="round"/>
<path d="M29.625 48.9606C29.625 53.3681 33.0075 56.9215 37.21 56.9215H45.7858C49.4417 56.9215 52.4142 53.8123 52.4142 49.9856C52.4142 45.8173 50.6033 44.3481 47.9042 43.3915L34.135 38.6081C31.4358 37.6515 29.625 36.1823 29.625 32.014C29.625 28.1873 32.5975 25.0781 36.2533 25.0781H44.8292C49.0317 25.0781 52.4142 28.6315 52.4142 33.039" stroke="white" stroke-width="5" stroke-linecap="round" stroke-linejoin="round"/>
<path d="M41 20.5V61.5" stroke="white" stroke-width="5" stroke-linecap="round" stroke-linejoin="round"/>
</svg>
