<svg width="80" height="80" viewBox="0 0 80 80" fill="none" xmlns="http://www.w3.org/2000/svg">
<rect width="80" height="80" rx="18" fill="#01A9F3"/>
<path fill-rule="evenodd" clip-rule="evenodd" d="M32.0671 55.668C23.2787 55.668 16 48.3892 16 39.6009C16 30.682 23.2787 23.5257 32.0671 23.5257C40.9778 23.5257 48.1341 30.682 48.1341 39.6009H43.6134C43.6134 33.1953 38.4727 28.0463 32.0671 28.0463C25.792 28.0463 20.643 33.1953 20.643 39.6009C20.643 45.876 25.792 51.0249 32.0671 51.0249V55.668Z" fill="white"/>
<path fill-rule="evenodd" clip-rule="evenodd" d="M48.1354 55.668C39.3471 55.668 32.0684 48.3892 32.0684 39.6009H36.7114C36.7114 45.876 41.8604 51.0249 48.1354 51.0249C54.4186 51.0249 59.5594 45.876 59.5594 39.6009C59.5594 33.1953 54.4186 28.0463 48.1354 28.0463V23.5257C57.0543 23.5257 64.2106 30.682 64.2106 39.6009C64.2106 48.3892 57.0543 55.668 48.1354 55.668Z" fill="white"/>
</svg>
