<svg width="80" height="80" viewBox="0 0 80 80" fill="none" xmlns="http://www.w3.org/2000/svg">
<path d="M0 18C0 8.05888 8.05887 0 18 0H62C71.9411 0 80 8.05887 80 18V62C80 71.9411 71.9411 80 62 80H18C8.05888 80 0 71.9411 0 62V18Z" fill="#25D366"/>
<path d="M56.4301 22.522C52.2257 18.2903 46.5036 15.918 40.5355 15.9317C28.1547 15.9317 18.0779 26.0085 18.0711 38.3961C18.0642 42.3407 19.1034 46.2101 21.0722 49.6283L17.8865 61.2707L29.7955 58.1464C33.0906 59.9376 36.7754 60.881 40.5286 60.881H40.5355C52.9162 60.881 62.993 50.8042 62.9999 38.4166C63.0204 32.4553 60.655 26.7332 56.4301 22.522ZM40.5423 57.0868H40.5355C37.1925 57.0868 33.911 56.1912 31.0329 54.4821L30.3492 54.0788L23.2804 55.9315L25.1672 49.0404L24.7229 48.3362C22.8497 45.3624 21.8653 41.9168 21.8653 38.3961C21.8721 28.1005 30.2467 19.7259 40.5423 19.7259C50.8584 19.7327 59.2125 28.1005 59.2057 38.4098C59.2057 48.7122 50.8311 57.0868 40.5423 57.0868Z" fill="white"/>
<path d="M50.7832 43.1006C50.2226 42.8203 47.4607 41.4599 46.948 41.2753C46.4352 41.0907 46.0592 40.995 45.6832 41.5556C45.3072 42.1162 44.2339 43.3809 43.9058 43.7569C43.5776 44.1329 43.2495 44.1808 42.6889 43.8936C42.1283 43.6065 40.3167 43.0186 38.1769 41.1044C36.5088 39.6141 35.3808 37.7751 35.0526 37.2145C34.7245 36.6539 35.0185 36.3463 35.2988 36.066C35.5517 35.813 35.8593 35.4097 36.1396 35.0815C36.4199 34.7534 36.5156 34.5209 36.7002 34.1449C36.8848 33.7689 36.7959 33.4408 36.6524 33.1605C36.5088 32.8802 35.3876 30.1183 34.9228 28.9903C34.4647 27.8965 34.0067 28.0469 33.658 28.0264C33.3299 28.0127 32.9539 28.0059 32.5847 28.0059C32.2155 28.0059 31.6003 28.1426 31.0875 28.71C30.5748 29.2774 29.1187 30.631 29.1187 33.3998C29.1187 36.1685 31.1286 38.8347 31.4088 39.2039C31.6891 39.5799 35.3671 45.2473 41.0003 47.681C42.0463 48.1322 43.1128 48.5287 44.1997 48.8637C45.5465 49.2876 46.7702 49.2329 47.7342 49.0893C48.8143 48.9252 51.0566 47.7289 51.5215 46.4231C51.9864 45.1174 51.9864 43.9894 51.8497 43.7569C51.7129 43.5245 51.3438 43.3878 50.7832 43.1006Z" fill="white"/>
</svg>
