<svg width="920" height="920" viewBox="0 0 920 920" fill="none" xmlns="http://www.w3.org/2000/svg">
<g clip-path="url(#clip0_1971_72)">
<path d="M439.147 0.372904C439.011 0.5092 432.468 1.05439 424.563 1.46327C416.658 2.00846 409.025 2.68994 407.526 2.96253C406.027 3.23513 402.074 3.91661 398.667 4.3255C395.26 4.73439 390.353 5.41587 387.763 5.82476C362.003 9.23216 326.43 18.5003 297.126 29.6766C224.344 57.0722 160.694 101.777 109.855 161.066C71.1469 206.18 40.4802 260.426 22.3528 316.444C14.7202 339.751 6.26988 376.142 3.95284 395.496C3.54395 399.994 2.86247 404.9 2.58988 406.4C-0.681234 424.391 -0.681234 497.037 2.72617 514.483C2.99877 515.982 3.54395 520.888 4.08914 525.25C5.04321 534.518 10.904 563.958 13.7662 574.726C28.6225 628.699 46.8862 670.269 74.0091 711.703C81.5054 723.152 102.904 752.32 105.494 754.637C105.902 755.046 110.128 759.816 114.898 765.131C159.331 816.106 220.391 859.721 282.815 885.072C310.347 896.249 339.787 905.517 359.822 909.333C362.821 910.014 365.956 910.56 366.637 910.696C378.086 913.149 388.445 914.921 399.348 916.284C403.165 916.693 407.662 917.238 409.571 917.647C428.516 920.782 487.396 920.646 511.793 917.374C517.926 916.557 534.691 914.103 539.052 913.286C540.96 913.013 544.64 912.331 547.23 911.923C549.82 911.514 553.091 910.969 554.317 910.56C555.544 910.151 557.725 909.606 559.36 909.333C560.86 909.06 570.4 906.607 580.623 904.017C678.211 878.257 767.212 817.606 828.818 734.874C839.04 720.971 853.488 699.437 855.668 694.666C856.214 693.576 857.985 690.441 859.485 687.851C879.657 654.731 899.42 602.666 908.96 558.234C912.231 542.696 912.913 539.152 914.685 526.34C915.094 522.524 915.775 518.435 915.911 517.208C919.455 498.536 919.455 421.528 915.911 403.128C915.639 401.766 915.094 397.404 914.548 393.315C914.14 389.226 913.458 385.001 913.185 383.911C912.777 382.82 912.231 379.549 911.959 376.687C909.914 360.468 893.831 304.586 885.926 286.459C874.341 259.745 865.073 241.481 851.852 219.265C823.503 171.697 778.388 123.312 727.959 86.1033C708.741 71.9285 665.671 47.6677 641.138 37.1729C623.965 29.8129 585.12 16.5922 576.125 15.0929C574.08 14.684 570.673 13.8662 568.356 13.1848C564.131 11.9581 547.094 8.41439 538.098 6.91513C535.236 6.50624 531.965 5.82476 530.874 5.68846C529.784 5.41587 525.422 4.87068 521.334 4.3255C517.245 3.91661 512.065 3.23513 509.748 2.96253C495.574 1.19068 440.646 -0.853763 439.147 0.372904ZM487.941 207.271C496.8 208.225 519.289 212.723 526.785 215.04C529.375 215.721 532.51 216.675 533.6 216.948C555.544 221.991 596.433 243.798 619.467 262.607C632.96 273.647 652.996 294.364 662.4 306.903C664.581 309.902 666.898 312.491 667.443 312.764C667.988 313.037 668.534 313.854 668.534 314.536C668.534 315.354 670.987 319.443 673.985 323.804C684.344 339.206 701.654 377.641 704.652 392.088C704.788 392.497 705.879 397.404 707.242 403.128C710.104 415.531 710.24 416.622 711.467 426.163C711.876 430.251 712.557 435.84 712.966 438.429C713.784 444.835 713.784 476.047 712.966 482.044C712.557 484.634 711.876 489.813 711.467 493.357C709.831 506.986 705.47 526.477 701.245 538.607C699.745 543.105 698.246 547.739 697.974 548.829C697.701 549.92 696.202 553.6 694.703 557.007C680.119 590.536 658.72 621.748 635.005 644.1C613.879 664 584.575 683.49 560.86 693.303C555.271 695.62 549.411 698.074 547.911 698.755C539.87 702.299 513.428 709.386 504.297 710.477C502.116 710.749 498.981 711.294 497.482 711.567C482.898 715.111 439.42 715.111 419.793 711.703C365.683 702.299 317.571 677.629 279.953 640.148C260.19 620.385 245.47 600.213 232.794 575.407C226.797 563.686 216.711 539.016 215.348 532.474C215.076 531.383 213.304 523.614 211.396 515.437C206.625 494.447 206.353 492.403 205.808 465.007C205.399 442.927 206.08 430.933 208.397 418.666C208.942 416.349 209.624 412.669 210.033 410.488C213.304 392.361 222.163 366.192 231.295 347.792C235.793 338.66 246.833 319.851 250.377 315.081C270.003 288.912 281.861 276.782 309.802 254.157C310.892 253.339 317.025 249.386 323.431 245.297C346.874 230.441 378.086 217.493 402.756 212.177C418.566 208.77 422.519 208.225 434.785 207.271C440.782 206.726 445.825 206.18 446.098 206.044C446.916 205.363 479.354 206.453 487.941 207.271Z" fill="black"/>
<g clip-path="url(#clip1_1971_72)">
<path d="M443.6 6.37001C443.467 6.50334 437.067 7.03667 429.334 7.43667C421.6 7.97001 414.134 8.63667 412.667 8.90334C411.2 9.17001 407.334 9.83667 404 10.2367C400.667 10.6367 395.867 11.3033 393.334 11.7033C368.134 15.0367 333.334 24.1033 304.667 35.0367C233.467 61.8367 171.2 105.57 121.467 163.57C83.6002 207.703 53.6002 260.77 35.8668 315.57C28.4002 338.37 20.1335 373.97 17.8668 392.903C17.4668 397.303 16.8002 402.103 16.5335 403.57C13.3335 421.17 13.3335 492.237 16.6668 509.303C16.9335 510.77 17.4668 515.57 18.0002 519.837C18.9335 528.903 24.6668 557.703 27.4668 568.237C42.0002 621.037 59.8668 661.703 86.4002 702.237C93.7335 713.437 114.667 741.97 117.2 744.237C117.6 744.637 121.734 749.303 126.4 754.503C169.867 804.37 229.6 847.037 290.667 871.837C317.6 882.77 346.4 891.837 366 895.57C368.934 896.237 372 896.77 372.667 896.903C383.867 899.303 394 901.037 404.667 902.37C408.4 902.77 412.8 903.303 414.667 903.703C433.2 906.77 490.8 906.637 514.667 903.437C520.667 902.637 537.067 900.237 541.334 899.437C543.2 899.17 546.8 898.503 549.334 898.103C551.867 897.703 555.067 897.17 556.267 896.77C557.467 896.37 559.6 895.837 561.2 895.57C562.667 895.303 572 892.903 582 890.37C677.467 865.17 764.534 805.837 824.8 724.903C834.8 711.303 848.934 690.237 851.067 685.57C851.6 684.503 853.334 681.437 854.8 678.903C874.534 646.503 893.867 595.57 903.2 552.103C906.4 536.903 907.067 533.437 908.8 520.903C909.2 517.17 909.867 513.17 910 511.97C913.467 493.703 913.467 418.37 910 400.37C909.734 399.037 909.2 394.77 908.667 390.77C908.267 386.77 907.6 382.637 907.334 381.57C906.934 380.503 906.4 377.303 906.134 374.503C904.134 358.637 888.4 303.97 880.667 286.237C869.334 260.103 860.267 242.237 847.334 220.503C819.6 173.97 775.467 126.637 726.134 90.2367C707.334 76.37 665.2 52.6367 641.2 42.37C624.4 35.17 586.4 22.2367 577.6 20.77C575.6 20.37 572.267 19.57 570 18.9033C565.867 17.7033 549.2 14.2367 540.4 12.77C537.6 12.37 534.4 11.7033 533.334 11.57C532.267 11.3033 528 10.77 524 10.2367C520 9.83667 514.934 9.17001 512.667 8.90334C498.8 7.17001 445.067 5.17001 443.6 6.37001ZM491.334 208.77C500 209.703 522 214.103 529.334 216.37C531.867 217.037 534.934 217.97 536 218.237C557.467 223.17 597.467 244.503 620 262.903C633.2 273.703 652.8 293.97 662 306.237C664.134 309.17 666.4 311.703 666.934 311.97C667.467 312.237 668 313.037 668 313.703C668 314.503 670.4 318.503 673.334 322.77C683.467 337.837 700.4 375.437 703.334 389.57C703.467 389.97 704.534 394.77 705.867 400.37C708.667 412.503 708.8 413.57 710 422.903C710.4 426.903 711.067 432.37 711.467 434.903C712.267 441.17 712.267 471.703 711.467 477.57C711.067 480.103 710.4 485.17 710 488.637C708.4 501.97 704.134 521.037 700 532.903C698.534 537.303 697.067 541.837 696.8 542.903C696.534 543.97 695.067 547.57 693.6 550.903C679.334 583.703 658.4 614.237 635.2 636.103C614.534 655.57 585.867 674.637 562.667 684.237C557.2 686.503 551.467 688.903 550 689.57C542.134 693.037 516.267 699.97 507.334 701.037C505.2 701.303 502.134 701.837 500.667 702.103C486.4 705.57 443.867 705.57 424.667 702.237C371.734 693.037 324.667 668.903 287.867 632.237C268.534 612.903 254.134 593.17 241.734 568.903C235.867 557.437 226 533.303 224.667 526.903C224.4 525.837 222.667 518.237 220.8 510.237C216.134 489.703 215.867 487.703 215.334 460.903C214.934 439.303 215.6 427.57 217.867 415.57C218.4 413.303 219.067 409.703 219.467 407.57C222.667 389.837 231.334 364.237 240.267 346.237C244.667 337.303 255.467 318.903 258.934 314.237C278.134 288.637 289.734 276.77 317.067 254.637C318.134 253.837 324.134 249.97 330.4 245.97C353.334 231.437 383.867 218.77 408 213.57C423.467 210.237 427.334 209.703 439.334 208.77C445.2 208.237 450.134 207.703 450.4 207.57C451.2 206.903 482.934 207.97 491.334 208.77Z" fill="black"/>
<rect y="0.236572" width="920" height="920" fill="#2A2A69"/>
<path d="M339.336 674.232C295.551 674.232 252.751 661.251 216.345 636.925C179.94 612.6 151.565 578.023 134.81 537.572C118.054 497.12 113.671 452.607 122.212 409.664C130.754 366.721 151.839 327.28 182.799 296.32C213.759 265.36 253.204 244.274 296.147 235.732C339.09 227.19 383.602 231.58 424.053 248.335C464.505 265.091 499.079 293.455 523.404 329.86C547.729 366.266 560.712 409.069 560.712 452.854H497.46C497.46 421.58 488.184 391.006 470.81 365.003C453.435 339 428.74 318.739 399.847 306.771C370.954 294.803 339.16 291.666 308.487 297.767C277.814 303.868 249.639 318.927 227.525 341.041C205.411 363.154 190.351 391.331 184.25 422.004C178.149 452.677 181.28 484.477 193.248 513.37C205.216 542.263 225.483 566.95 251.486 584.325C277.49 601.7 308.062 610.978 339.336 610.978V674.232Z" fill="white"/>
<path d="M560.714 674.237C502.021 674.172 445.75 650.834 404.247 609.332C362.745 567.83 339.402 511.551 339.337 452.858H402.591C402.591 484.132 411.865 514.706 429.24 540.709C446.615 566.712 471.309 586.985 500.202 598.953C529.095 610.921 560.889 614.046 591.562 607.945C622.235 601.844 650.41 586.785 672.524 564.671C694.638 542.557 709.698 514.381 715.799 483.708C721.9 453.035 718.769 421.247 706.801 392.354C694.833 363.461 674.566 338.762 648.563 321.387C622.56 304.012 591.988 294.734 560.714 294.734V231.48C619.427 231.48 675.736 254.808 717.252 296.324C758.768 337.841 782.091 394.145 782.091 452.858C782.091 511.571 758.768 567.887 717.252 609.404C675.736 650.92 619.427 674.237 560.714 674.237Z" fill="white"/>
</g>
</g>
<defs>
<clipPath id="clip0_1971_72">
<rect width="920" height="920" fill="white"/>
</clipPath>
<clipPath id="clip1_1971_72">
<rect width="920" height="920" fill="white" transform="translate(0 0.236572)"/>
</clipPath>
</defs>
</svg>
