<svg xmlns="http://www.w3.org/2000/svg" width="191.418" height="127.612" viewBox="0 0 191.418 127.612">
  <g id="email" transform="translate(0 -85.333)">
    <path id="Path_1061" data-name="Path 1061" d="M194.54,305.416a19.939,19.939,0,0,1-15.313,7.178H27.687a19.939,19.939,0,0,1-15.313-7.178l73.137-60.935,7.577,5.184a18.256,18.256,0,0,0,20.737,0l7.577-5.184Z" transform="translate(-7.748 -99.648)" fill="#1e88e5"/>
    <path id="Path_1062" data-name="Path 1062" d="M193.786,94.027l-74.254,50.805-7.577,5.184a18.256,18.256,0,0,1-20.737,0l-7.577-5.184L9.388,93.947a20.026,20.026,0,0,1,16.43-8.614H177.357A19.675,19.675,0,0,1,193.786,94.027Z" transform="translate(-5.878 0)" fill="#64b5f6"/>
    <g id="Group_2869" data-name="Group 2869" transform="translate(0 93.948)">
      <path id="Path_1063" data-name="Path 1063" d="M77.764,159.26,4.626,220.194A19.85,19.85,0,0,1,0,207.433V119.7A19.651,19.651,0,0,1,3.51,108.375Z" transform="translate(0 -108.375)" fill="#2196f3"/>
      <path id="Path_1064" data-name="Path 1064" d="M381.764,119.834v87.733a19.851,19.851,0,0,1-4.626,12.761L304,159.393l74.254-50.805A19.585,19.585,0,0,1,381.764,119.834Z" transform="translate(-190.347 -108.508)" fill="#2196f3"/>
    </g>
  </g>
</svg>
