<svg width="118" height="36" viewBox="0 0 118 36" fill="none" xmlns="http://www.w3.org/2000/svg">
<path d="M101 29C99.22 29 97.4799 28.4722 95.9999 27.4832C94.5198 26.4943 93.3663 25.0887 92.6851 23.4442C92.0039 21.7996 91.8257 19.99 92.1729 18.2442C92.5202 16.4984 93.3774 14.8947 94.636 13.636C95.8947 12.3774 97.4984 11.5202 99.2442 11.1729C100.99 10.8257 102.8 11.0039 104.444 11.6851C106.089 12.3663 107.494 13.5198 108.483 14.9999C109.472 16.4799 110 18.22 110 20H107.432C107.432 18.7295 107.055 17.4875 106.35 16.4312C105.644 15.3748 104.64 14.5514 103.467 14.0652C102.293 13.579 101.001 13.4518 99.7552 13.6997C98.5091 13.9475 97.3645 14.5593 96.4662 15.4577C95.5678 16.3561 94.956 17.5007 94.7081 18.7468C94.4603 19.9929 94.5875 21.2845 95.0737 22.4583C95.5599 23.6321 96.3832 24.6353 97.4396 25.3412C98.496 26.047 99.7379 26.4238 101.008 26.4238L101 29Z" fill="#18ACF4"/>
<path d="M109.5 28.9859C107.246 28.9859 105.084 28.0377 103.49 26.3499C101.896 24.6621 101 22.3729 101 19.9859H103.428C103.426 21.2566 103.781 22.4991 104.446 23.5565C105.111 24.6139 106.058 25.4385 107.166 25.9262C108.274 26.4138 109.494 26.5426 110.671 26.2961C111.849 26.0497 112.93 25.4391 113.78 24.5416C114.629 23.6441 115.208 22.5001 115.444 21.2541C115.679 20.0082 115.56 18.7163 115.102 17.542C114.644 16.3676 113.867 15.3634 112.87 14.6565C111.873 13.9496 110.7 13.5717 109.5 13.5706V11C110.616 11 111.722 11.2328 112.753 11.6851C113.784 12.1374 114.721 12.8003 115.51 13.636C116.3 14.4718 116.926 15.4639 117.353 16.5558C117.78 17.6478 118 18.8181 118 20C118 21.1819 117.78 22.3522 117.353 23.4441C116.926 24.5361 116.3 25.5282 115.51 26.364C114.721 27.1997 113.784 27.8626 112.753 28.3149C111.722 28.7672 110.616 29 109.5 29" fill="#18ACF4"/>
<path d="M82 7H76V5.10744H77.518C77.0488 4.40925 76.7872 3.57193 76.7683 2.70769C76.7683 1.02671 78.4491 -0.645582 81.8613 0.249977L81.6105 1.93676C79.743 1.18611 78.4464 1.64693 78.4464 3.08157C78.4464 4.24087 79.2121 5.11034 80.5273 5.11034H82V7Z" fill="#2A2A69"/>
<path d="M81 9H79V28H81V9Z" fill="#2A2A69"/>
<path d="M67.2509 14C61.801 14 59.0469 19.0521 56.3816 23.9377C56.071 24.5084 55.752 25.0928 55.4275 25.6718C54.1407 25.4233 53.3724 24.4292 53.3724 21.4499V16.3376H50.8374V21.4499C50.8374 24.0988 50.3549 25.7401 47.953 25.7401H35.4973C35.4973 25.6609 35.4973 24.2545 35.4973 24.2545C35.4973 21.3925 34.9759 19.1068 33.9442 17.4655C32.7488 15.5539 30.8933 14.5571 28.5525 14.5571C27.5593 14.555 26.5758 14.7486 25.6598 15.1266C24.7438 15.5047 23.9139 16.0594 23.2191 16.7582C21.7788 18.2118 20.9812 20.1674 21.0003 22.1981C21.0003 28.2361 26.3226 28.2361 28.0699 28.2361H32.8154C32.599 29.7736 32.097 31.15 30.9876 32.0785C29.2875 33.4985 26.1867 33.8535 21.7741 33.1353L21.3609 35.5931C22.8163 35.8458 24.2902 35.9819 25.768 36C28.7494 36 31.0126 35.3337 32.6212 33.9873C34.4184 32.4881 35.1174 30.4372 35.3642 28.2525H47.9419C50.4186 28.2525 51.4642 27.0864 52.1021 26.0678C52.7317 27.1 53.7662 28.2525 56.2624 28.2525H75V20.961C75 17.501 72.3402 14 67.2565 14H67.2509ZM32.9651 25.7401H28.0644C24.6724 25.7401 23.5298 24.8471 23.5298 22.1899C23.5298 19.3034 25.7485 17.0422 28.5525 17.0422C30.0003 17.0422 31.0487 17.6075 31.7892 18.7709C32.5574 19.9943 32.9651 21.8868 32.9651 24.2326V25.7182V25.7401ZM72.4595 25.7182H58.2759C58.3896 25.5107 58.5006 25.3004 58.6143 25.0956C61.1354 20.4695 63.3153 16.4714 67.2509 16.4714C70.8287 16.4714 72.4595 18.7872 72.4595 20.9392V25.7182Z" fill="#2A2A69"/>
<path d="M8.72373 35.9993C6.459 36.0268 4.27051 35.1988 2.6127 33.6874C0.924566 32.0947 -1.50915 28.3609 1.24531 21.2378L3.6509 22.1278C1.99653 26.4072 2.261 29.8654 4.39367 31.8715C6.16621 33.5386 9.02478 33.9602 11.5091 32.9241C13.9935 31.888 15.4312 29.634 15.4312 26.7517V8H18V26.7517C18 30.6315 15.9517 33.8059 12.5164 35.2388C11.3176 35.7405 10.0274 35.9993 8.72373 35.9993Z" fill="#2A2A69"/>
</svg>
