<svg width="20" height="20" viewBox="0 0 20 20" fill="none" xmlns="http://www.w3.org/2000/svg">
<ellipse cx="10" cy="18.75" rx="7" ry="1.25" fill="black" fill-opacity="0.05"/>
<path d="M10.0966 18.4753L10.0966 18.4753C9.95202 18.6363 9.69893 18.6366 9.55412 18.4753L9.36809 18.6423L9.55411 18.4753C9.42761 18.3344 7.84444 16.5578 6.2944 14.2378C5.51938 13.0778 4.75598 11.7868 4.18709 10.5003C3.61682 9.21069 3.25 7.94322 3.25 6.82533C3.25 3.19991 6.19991 0.25 9.82537 0.25C13.4508 0.25 16.4007 3.19991 16.4007 6.82533C16.4007 7.94322 16.0339 9.21069 15.4637 10.5003C14.8948 11.7868 14.1314 13.0778 13.3563 14.2378C11.8063 16.5578 10.2231 18.3344 10.0966 18.4753ZM6.14139 6.82533C6.14139 8.85693 7.79377 10.5093 9.82537 10.5093C11.8569 10.5093 13.5093 8.85697 13.5093 6.82537C13.5093 4.79378 11.8569 3.14135 9.82537 3.14135C7.79381 3.14135 6.14139 4.79374 6.14139 6.82533Z" fill="url(#paint0_linear_1980_10)" stroke="white" stroke-width="0.5"/>
<defs>
<linearGradient id="paint0_linear_1980_10" x1="9.82537" y1="0" x2="9.82537" y2="18.8462" gradientUnits="userSpaceOnUse">
<stop stop-color="#2A2A69"/>
<stop offset="1" stop-color="#4141BC"/>
</linearGradient>
</defs>
</svg>
