<svg xmlns="http://www.w3.org/2000/svg" width="278.872" height="195.654" viewBox="0 0 278.872 195.654">
  <g id="Group_81" data-name="Group 81" transform="translate(-2840.564 -5196.411)">
    <g id="Group_76" data-name="Group 76">
      <g id="Group_69" data-name="Group 69">
        <path id="Path_39" data-name="Path 39" d="M2870.319,5391.206a29.755,29.755,0,1,1,29.754-29.754A29.789,29.789,0,0,1,2870.319,5391.206Zm0-51.008a21.253,21.253,0,1,0,21.253,21.254A21.278,21.278,0,0,0,2870.319,5340.2Z" fill="#fff"/>
      </g>
      <g id="Group_70" data-name="Group 70">
        <path id="Path_40" data-name="Path 40" d="M2997.782,5391.206a29.755,29.755,0,1,1,29.755-29.754A29.789,29.789,0,0,1,2997.782,5391.206Zm0-51.008a21.253,21.253,0,1,0,21.253,21.254A21.278,21.278,0,0,0,2997.782,5340.2Z" fill="#fff"/>
      </g>
      <g id="Group_71" data-name="Group 71">
        <path id="Path_41" data-name="Path 41" d="M3066.218,5391.206a29.755,29.755,0,1,1,29.754-29.754A29.789,29.789,0,0,1,3066.218,5391.206Zm0-51.008a21.253,21.253,0,1,0,21.253,21.254A21.278,21.278,0,0,0,3066.218,5340.2Z" fill="#fff"/>
      </g>
      <g id="Group_72" data-name="Group 72">
        <rect id="Rectangle_13" data-name="Rectangle 13" width="8.501" height="76.199" transform="translate(3107.427 5313.733)" fill="#fff"/>
      </g>
      <g id="Group_75" data-name="Group 75">
        <g id="Group_74" data-name="Group 74">
          <g id="Group_73" data-name="Group 73">
            <path id="Path_42" data-name="Path 42" d="M2959.8,5374.2v.1c0,5.963-3.268,11-9.2,14.184a34.913,34.913,0,0,1-16.113,3.581c-10.559,0-20.686-3.644-27.816-10.008l4.237-7.031c9.977,9.13,26.227,11.382,35.324,6.513,2.22-1.182,4.876-4.093,4.918-7.209-.172-5.275-6.716-7.116-17.746-9.138-10.816-1.993-24.276-4.476-24.441-17.073,0-5.493,2.821-10.215,7.942-13.3,9.874-5.958,28.96-5.692,41.743,4.159l-4.24,7.018c-10.158-7.693-25.489-9.093-33.255-4.418a8,8,0,0,0-3.961,6.475c.065,4.936,7.092,6.773,17.387,8.665C2946.279,5358.875,2959.545,5361.315,2959.8,5374.2Z" fill="#fff"/>
          </g>
        </g>
      </g>
    </g>
    <g id="Group_80" data-name="Group 80">
      <g id="Group_77" data-name="Group 77">
        <path id="Path_43" data-name="Path 43" d="M3119.436,5218.886h-20.93v-6.078h5.292a13.617,13.617,0,0,1-2.61-7.707c0-5.39,5.862-10.762,17.763-7.889l-.879,5.415c-6.478-2.41-11.039-.965-11.039,3.677,0,3.745,2.673,6.5,7.26,6.5h5.143Z" fill="#fff"/>
        <rect id="Rectangle_14" data-name="Rectangle 14" width="8.501" height="64.398" transform="translate(3107.502 5227.561)" fill="#fff"/>
      </g>
      <g id="Group_78" data-name="Group 78">
        <path id="Path_44" data-name="Path 44" d="M3067.633,5243.664c-18.29,0-27.531,17.215-36.47,33.865-1.042,1.942-2.113,3.936-3.2,5.908-4.319-.846-6.9-4.23-6.9-14.384v-17.386h-8.5v17.386c0,9.024-1.62,14.617-9.679,14.617h-41.788c0-.271,0-5.062,0-5.062,0-9.755-1.751-17.538-5.211-23.128-4.013-6.486-10.27-9.917-18.095-9.917a24.948,24.948,0,0,0-17.887,7.5,26.2,26.2,0,0,0-7.464,18.533c0,20.573,17.852,20.573,23.718,20.573h15.919c-.727,5.241-2.406,9.934-6.129,13.092-5.709,4.841-16.11,6.057-30.915,3.609l-1.386,8.386a91.359,91.359,0,0,0,14.8,1.348c10.006,0,17.6-2.274,23-6.861,6.023-5.109,8.357-12.1,9.2-19.574h42.234c8.31,0,11.821-3.97,13.934-7.485,2.108,3.515,5.615,7.485,13.925,7.485h62.867V5267.39C3093.609,5255.6,3084.687,5243.664,3067.633,5243.664Zm-115.039,40.006h-16.438c-11.379,0-15.217-3.043-15.217-12.071,0-9.832,7.4-17.534,16.85-17.534,4.862,0,8.416,1.925,10.864,5.887,2.58,4.17,3.941,10.618,3.941,18.656C2952.594,5278.608,2952.6,5283.4,2952.594,5283.67Zm132.514,0h-47.595c.383-.709.761-1.419,1.139-2.12,8.463-15.766,15.774-29.385,28.981-29.385,12,0,17.475,7.893,17.475,15.225Z" fill="#fff"/>
      </g>
      <g id="Group_79" data-name="Group 79">
        <path id="Path_45" data-name="Path 45" d="M2869.418,5317.863a29.124,29.124,0,0,1-20.209-7.8c-5.6-5.375-13.633-17.983-4.523-42.045l7.951,3.01c-5.469,14.446-4.6,26.13,2.458,32.9,5.863,5.627,15.319,7.056,23.53,3.554,8.245-3.515,12.974-11.111,12.974-20.841v-63.328h8.5v63.328c0,13.1-6.782,23.819-18.141,28.661A32.005,32.005,0,0,1,2869.418,5317.863Z" fill="#fff"/>
      </g>
    </g>
  </g>
</svg>
