<svg width="216" height="38" viewBox="0 0 216 38" fill="none" xmlns="http://www.w3.org/2000/svg">
<g clip-path="url(#clip0_82_81)">
<path d="M103.387 29.4183C101.599 29.4183 99.8514 28.8882 98.3648 27.8948C96.8782 26.9015 95.7195 25.4896 95.0353 23.8377C94.3511 22.1859 94.1721 20.3682 94.5209 18.6146C94.8697 16.861 95.7307 15.2504 96.9949 13.9861C98.2592 12.7219 99.87 11.8608 101.624 11.512C103.377 11.1632 105.195 11.3425 106.847 12.0267C108.498 12.7109 109.91 13.8692 110.904 15.3558C111.897 16.8424 112.427 18.5903 112.427 20.3782H109.844C109.844 19.1012 109.465 17.8527 108.756 16.7908C108.046 15.729 107.038 14.9016 105.858 14.4129C104.678 13.9242 103.38 13.7961 102.127 14.0452C100.875 14.2944 99.7244 14.9093 98.8214 15.8123C97.9183 16.7153 97.3033 17.8659 97.0542 19.1185C96.8051 20.371 96.9329 21.6696 97.4216 22.8494C97.9104 24.0293 98.738 25.0374 99.7998 25.7469C100.862 26.4564 102.11 26.8353 103.387 26.8353V29.4183Z" fill="#00A9F3"/>
<path d="M112.427 29.4185C110.03 29.4158 107.733 28.4628 106.038 26.7681C104.343 25.0733 103.39 22.7752 103.387 20.3784H105.97C105.97 21.6555 106.349 22.904 107.058 23.9658C107.768 25.0277 108.776 25.8555 109.956 26.3442C111.136 26.833 112.434 26.9606 113.687 26.7114C114.939 26.4623 116.09 25.8474 116.993 24.9443C117.896 24.0413 118.511 22.8907 118.76 21.6382C119.009 20.3856 118.881 19.0876 118.393 17.9077C117.904 16.7279 117.076 15.7193 116.015 15.0098C114.953 14.3003 113.704 13.9214 112.427 13.9214V11.3384C114.825 11.3384 117.124 12.291 118.819 13.9863C120.515 15.6817 121.467 17.9809 121.467 20.3784C121.467 22.776 120.515 25.0757 118.819 26.771C117.124 28.4663 114.825 29.4185 112.427 29.4185Z" fill="#00A9F3"/>
<path d="M141.165 29.4194C139.377 29.4196 137.629 28.8893 136.142 27.896C134.655 26.9027 133.496 25.4909 132.812 23.8389C132.127 22.1869 131.948 20.3691 132.297 18.6152C132.645 16.8614 133.506 15.2504 134.771 13.9858C136.035 12.7213 137.646 11.8602 139.4 11.5112C141.154 11.1623 142.972 11.3411 144.624 12.0254C146.276 12.7097 147.688 13.8687 148.681 15.3555C149.675 16.8423 150.205 18.5902 150.205 20.3784C150.202 22.7753 149.249 25.0732 147.554 26.7681C145.86 28.463 143.562 29.4165 141.165 29.4194ZM141.165 13.9194C139.888 13.9194 138.639 14.2982 137.577 15.0078C136.515 15.7174 135.687 16.7262 135.199 17.9063C134.71 19.0863 134.582 20.3845 134.831 21.6372C135.08 22.8899 135.695 24.0407 136.599 24.9439C137.502 25.847 138.652 26.4623 139.905 26.7114C141.158 26.9606 142.456 26.8326 143.636 26.3438C144.816 25.855 145.825 25.0274 146.535 23.9653C147.244 22.9033 147.623 21.6547 147.623 20.3775C147.621 18.6654 146.94 17.024 145.729 15.8135C144.518 14.603 142.877 13.9213 141.165 13.9194Z" fill="white"/>
<path d="M179.893 29.4194C178.105 29.4196 176.357 28.8893 174.87 27.896C173.383 26.9027 172.224 25.4909 171.54 23.8389C170.855 22.1869 170.676 20.3691 171.025 18.6152C171.373 16.8614 172.234 15.2504 173.499 13.9858C174.763 12.7213 176.374 11.8602 178.128 11.5112C179.882 11.1623 181.7 11.3411 183.352 12.0254C185.004 12.7097 186.416 13.8687 187.409 15.3555C188.403 16.8423 188.933 18.5902 188.933 20.3784C188.93 22.7753 187.977 25.0732 186.282 26.7681C184.588 28.463 182.29 29.4165 179.893 29.4194ZM179.893 13.9194C178.616 13.9192 177.367 14.2978 176.305 15.0073C175.243 15.7168 174.415 16.7253 173.926 17.9053C173.437 19.0853 173.309 20.3839 173.558 21.6367C173.807 22.8895 174.422 24.0401 175.325 24.9434C176.228 25.8466 177.379 26.4622 178.632 26.7114C179.885 26.9607 181.183 26.8325 182.363 26.3438C183.543 25.855 184.552 25.0274 185.262 23.9653C185.971 22.9033 186.35 21.6548 186.35 20.3775C186.348 18.6656 185.667 17.0244 184.457 15.814C183.246 14.6035 181.605 13.9216 179.893 13.9194Z" fill="white"/>
<path d="M200.685 29.4194C198.897 29.4196 197.149 28.8893 195.662 27.896C194.175 26.9027 193.016 25.4909 192.332 23.8389C191.647 22.1869 191.468 20.3691 191.817 18.6152C192.165 16.8614 193.026 15.2504 194.291 13.9858C195.555 12.7213 197.166 11.8602 198.92 11.5112C200.674 11.1623 202.492 11.3411 204.144 12.0254C205.796 12.7097 207.208 13.8687 208.201 15.3555C209.195 16.8423 209.725 18.5902 209.725 20.3784C209.722 22.7753 208.769 25.0732 207.074 26.7681C205.38 28.463 203.082 29.4165 200.685 29.4194ZM200.685 13.9194C199.408 13.9192 198.159 14.2978 197.097 15.0073C196.035 15.7168 195.207 16.7253 194.718 17.9053C194.229 19.0853 194.101 20.3839 194.35 21.6367C194.599 22.8895 195.214 24.0401 196.117 24.9434C197.02 25.8466 198.171 26.4622 199.424 26.7114C200.677 26.9607 201.975 26.8325 203.155 26.3438C204.335 25.855 205.344 25.0274 206.054 23.9653C206.763 22.9033 207.142 21.6548 207.142 20.3775C207.14 18.6656 206.459 17.0244 205.249 15.814C204.038 14.6035 202.397 13.9216 200.685 13.9194Z" fill="white"/>
<path d="M215.789 5.87939H213.206V29.0314H215.789V5.87939Z" fill="white"/>
<path d="M168.352 24.2467V24.2775C168.339 25.1867 168.069 26.074 167.574 26.8366C167.078 27.5991 166.378 28.206 165.552 28.5875C164.029 29.3373 162.349 29.7103 160.652 29.6754C157.56 29.7179 154.557 28.6375 152.2 26.6344L153.487 24.4987C156.518 27.2727 161.456 27.9567 164.22 26.4777C164.629 26.2623 164.979 25.9498 165.239 25.568C165.5 25.1863 165.663 24.747 165.714 24.2877C165.662 22.6877 163.674 22.1254 160.322 21.5114C157.036 20.9064 152.946 20.1514 152.896 16.3244C152.901 15.4968 153.127 14.6857 153.551 13.9752C153.976 13.2647 154.583 12.6807 155.309 12.2843C158.309 10.4743 164.109 10.5555 167.992 13.5485L166.704 15.6803C163.618 13.3433 158.96 12.9175 156.604 14.3385C156.257 14.5414 155.966 14.8272 155.756 15.1706C155.547 15.5139 155.426 15.9037 155.404 16.3053C155.424 17.8053 157.559 18.3636 160.687 18.9386C164.244 19.5946 168.275 20.3357 168.352 24.2467Z" fill="white"/>
<path d="M84.7301 6.8289H78.3711V4.98173H79.9791C79.4825 4.30038 79.2058 3.4838 79.1861 2.64091C79.1861 1.00291 80.9671 -0.629993 84.5861 0.241007L84.3191 1.887C82.3511 1.155 80.9651 1.59419 80.9651 3.00419C80.9628 3.28437 81.02 3.56137 81.1332 3.81767C81.2464 4.07397 81.4129 4.30358 81.6216 4.49052C81.8303 4.67746 82.0765 4.81773 82.3436 4.90214C82.6108 4.98655 82.8929 5.01288 83.1711 4.97978H84.7341L84.7301 6.8289Z" fill="white"/>
<path d="M83.687 9.46411H81.104V29.0301H83.687V9.46411Z" fill="white"/>
<path d="M68.9912 14.3572C63.4342 14.3572 60.6262 19.5872 57.9102 24.6462C57.5942 25.2362 57.2683 25.8462 56.9383 26.4412C55.6263 26.1842 54.8382 25.156 54.8382 22.071V16.7893H52.2552V22.071C52.2552 24.813 51.7632 26.512 49.3142 26.512H36.6233C36.6233 26.429 36.6233 24.9739 36.6233 24.9739C36.748 22.5307 36.2001 20.1003 35.0392 17.947C34.4761 16.9985 33.6687 16.2187 32.7012 15.6887C31.7337 15.1587 30.6417 14.8983 29.5392 14.9343C28.527 14.9321 27.5247 15.1323 26.5912 15.5237C25.6578 15.9151 24.8121 16.4897 24.1042 17.2131C22.6342 18.7169 21.8188 20.7411 21.8362 22.844C21.8362 29.095 27.2602 29.095 29.0422 29.095H33.8792C33.7756 30.6066 33.1116 32.0251 32.0172 33.073C30.2832 34.544 27.1222 34.9131 22.6242 34.1731L22.2032 36.7209C23.6896 36.9796 25.1946 37.1169 26.7032 37.1311C29.7432 37.1311 32.0503 36.4401 33.6913 35.0471C35.3708 33.5105 36.3768 31.3734 36.4912 29.0999H49.3232C50.1729 29.1683 51.0243 28.9905 51.7753 28.5872C52.5263 28.1838 53.145 27.5721 53.5572 26.8259C53.9687 27.5721 54.5868 28.1838 55.3373 28.5872C56.0879 28.9905 56.9389 29.1684 57.7882 29.0999H76.8882V21.571C76.8842 17.984 74.1732 14.3572 68.9912 14.3572ZM34.0382 26.512H29.0442C25.5872 26.512 24.4212 25.587 24.4212 22.844C24.4004 22.1563 24.5171 21.4714 24.7644 20.8293C25.0117 20.1873 25.3846 19.6008 25.8614 19.1047C26.3381 18.6086 26.909 18.2128 27.5407 17.9402C28.1724 17.6675 28.8522 17.5235 29.5403 17.5168C30.2016 17.4826 30.8596 17.6319 31.4419 17.9475C32.0241 18.2631 32.508 18.733 32.8402 19.3059C33.7353 21.0556 34.1495 23.0116 34.0403 24.9739C34.0403 24.9739 34.0392 26.43 34.0382 26.512ZM74.3003 26.512H59.8402C59.9562 26.296 60.0712 26.0799 60.1862 25.8669C62.7572 21.0769 64.9792 16.9392 68.9912 16.9392C72.6382 16.9392 74.3003 19.3392 74.3003 21.5652V26.512Z" fill="white"/>
<path d="M8.76723 36.9011C6.49182 36.9298 4.29284 36.0805 2.62722 34.53C0.92722 32.897 -1.5148 29.0671 1.2532 21.7561L3.66921 22.6711C2.00721 27.0601 2.26922 30.6101 4.41622 32.6711C5.3764 33.5221 6.56236 34.0767 7.83096 34.2683C9.09955 34.46 10.3965 34.2806 11.5652 33.7512C12.7913 33.226 13.8267 32.3372 14.5316 31.2048C15.2366 30.0725 15.5771 28.7512 15.5072 27.4192V8.1731H18.0902V27.4143C18.1582 29.2526 17.668 31.0685 16.6841 32.6228C15.7002 34.1771 14.2688 35.3972 12.5782 36.1223C11.3733 36.6359 10.0771 36.9006 8.76723 36.9011Z" fill="white"/>
</g>
<defs>
<clipPath id="clip0_82_81">
<rect width="215.79" height="37.127" fill="white"/>
</clipPath>
</defs>
</svg>
