<svg width="16" height="16" viewBox="0 0 16 16" fill="none" xmlns="http://www.w3.org/2000/svg">
<g clip-path="url(#clip0_182_126)">
<path d="M9.95768 14.1746C9.67217 14.741 9.48344 15.3557 9.41113 16.0004L15.4532 14.8512C15.7387 14.2849 15.9273 13.67 15.9998 13.0254L9.95768 14.1746Z" fill="#152B70"/>
<path d="M15.4532 11.4079C15.7387 10.8416 15.9275 10.2268 15.9998 9.58212L11.2932 10.4778V8.75601L15.4531 7.96504C15.7386 7.39872 15.9273 6.78388 15.9996 6.13924L11.293 7.03412V0.842159C10.5718 1.20447 9.93133 1.68674 9.41068 2.25561V7.39223L7.52836 7.75021V0C6.80716 0.362181 6.16667 0.844579 5.64603 1.41345V8.10806L1.43431 8.90883C1.14879 9.47515 0.959921 10.09 0.887474 10.7346L5.64603 9.82982V11.9981L0.546307 12.9677C0.260791 13.534 0.07206 14.1489 -0.000244141 14.7935L5.33774 13.7785C5.77227 13.6977 6.14575 13.4678 6.38857 13.1515L7.36752 11.8529V11.8526C7.46915 11.7183 7.52836 11.5563 7.52836 11.3818V9.47184L9.41068 9.11386V12.5574L15.4531 11.4077L15.4532 11.4079Z" fill="#152B70"/>
</g>
<defs>
<clipPath id="clip0_182_126">
<rect width="16" height="16" fill="white"/>
</clipPath>
</defs>
</svg>
