<svg width="17" height="17" viewBox="0 0 17 17" fill="none" xmlns="http://www.w3.org/2000/svg">
<rect width="16.2126" height="16.2126" rx="4.22938" fill="#01A9F3" fill-opacity="0.1"/>
<path d="M8.23301 4.63052L11.4051 5.89933C11.5284 5.94867 11.6271 6.0967 11.6271 6.2271V7.39723C11.6271 7.59108 11.4685 7.74968 11.2746 7.74968H4.93057C4.73673 7.74968 4.57812 7.59108 4.57812 7.39723V6.2271C4.57812 6.0967 4.67681 5.94867 4.80017 5.89933L7.97221 4.63052C8.0427 4.60233 8.16252 4.60233 8.23301 4.63052Z" stroke="#01A9F3" stroke-width="0.528673" stroke-miterlimit="10" stroke-linecap="round" stroke-linejoin="round"/>
<path d="M11.6271 11.6285H4.57812V10.5712C4.57812 10.3774 4.73673 10.2188 4.93057 10.2188H11.2746C11.4685 10.2188 11.6271 10.3774 11.6271 10.5712V11.6285Z" stroke="#01A9F3" stroke-width="0.528673" stroke-miterlimit="10" stroke-linecap="round" stroke-linejoin="round"/>
<path d="M5.28125 10.2171V7.75" stroke="#01A9F3" stroke-width="0.528673" stroke-miterlimit="10" stroke-linecap="round" stroke-linejoin="round"/>
<path d="M6.69531 10.2171V7.75" stroke="#01A9F3" stroke-width="0.528673" stroke-miterlimit="10" stroke-linecap="round" stroke-linejoin="round"/>
<path d="M8.10156 10.2171V7.75" stroke="#01A9F3" stroke-width="0.528673" stroke-miterlimit="10" stroke-linecap="round" stroke-linejoin="round"/>
<path d="M9.51562 10.2171V7.75" stroke="#01A9F3" stroke-width="0.528673" stroke-miterlimit="10" stroke-linecap="round" stroke-linejoin="round"/>
<path d="M10.9219 10.2171V7.75" stroke="#01A9F3" stroke-width="0.528673" stroke-miterlimit="10" stroke-linecap="round" stroke-linejoin="round"/>
<path d="M4.22656 11.625H11.9804" stroke="#01A9F3" stroke-width="0.528673" stroke-miterlimit="10" stroke-linecap="round" stroke-linejoin="round"/>
<path d="M8.1068 6.86985C8.39878 6.86985 8.63547 6.63315 8.63547 6.34117C8.63547 6.04919 8.39878 5.8125 8.1068 5.8125C7.81482 5.8125 7.57812 6.04919 7.57812 6.34117C7.57812 6.63315 7.81482 6.86985 8.1068 6.86985Z" stroke="#01A9F3" stroke-width="0.528673" stroke-miterlimit="10" stroke-linecap="round" stroke-linejoin="round"/>
</svg>
