<svg width="8" height="8" viewBox="0 0 8 8" fill="none" xmlns="http://www.w3.org/2000/svg">
<g clip-path="url(#clip0_13972_60818)">
<path d="M4.38141 6.24848C4.25563 6.49803 4.17248 6.76885 4.14062 7.05285L6.80253 6.54656C6.92832 6.29707 7.01141 6.02619 7.04332 5.74219L4.38141 6.24848Z" fill="#152B70"/>
<path d="M6.80818 5.02588C6.93397 4.77638 7.01711 4.50551 7.04897 4.2215L4.97543 4.61609V3.85755L6.80812 3.50908C6.9339 3.25959 7.01705 2.98871 7.04891 2.70471L4.97536 3.09896V0.371022C4.65763 0.530641 4.37546 0.74311 4.14608 0.993731V3.25672L3.3168 3.41444V0C2.99908 0.159562 2.7169 0.372088 2.48752 0.622709V3.57209L0.632008 3.92488C0.506221 4.17438 0.423011 4.44525 0.391094 4.72925L2.48752 4.33063V5.28587L0.240789 5.71305C0.115002 5.96255 0.0318544 6.23343 0 6.51743L2.3517 6.07027C2.54314 6.03465 2.70768 5.93338 2.81466 5.79401L3.24595 5.22191V5.2218C3.29072 5.16261 3.3168 5.09124 3.3168 5.01438V4.17292L4.14608 4.01521V5.53228L6.80812 5.02577L6.80818 5.02588Z" fill="#152B70"/>
</g>
<defs>
<clipPath id="clip0_13972_60818">
<rect width="7.04897" height="7.04897" fill="white"/>
</clipPath>
</defs>
</svg>
