<svg width="17" height="17" viewBox="0 0 17 17" fill="none" xmlns="http://www.w3.org/2000/svg">
<rect width="16.2126" height="16.2126" rx="4.22938" fill="#BB2DD1" fill-opacity="0.1"/>
<path d="M7.43733 7.80469H6.50335C6.28131 7.80469 6.10156 7.98442 6.10156 8.20646V10.011H7.43733V7.80469V7.80469Z" stroke="#BB2DD1" stroke-width="0.528673" stroke-miterlimit="10" stroke-linecap="round" stroke-linejoin="round"/>
<path d="M8.37501 6.20312H7.83929C7.61724 6.20312 7.4375 6.38288 7.4375 6.60492V10.0096H8.77328V6.60492C8.77328 6.38288 8.59706 6.20312 8.37501 6.20312Z" stroke="#BB2DD1" stroke-width="0.528673" stroke-miterlimit="10" stroke-linecap="round" stroke-linejoin="round"/>
<path d="M9.70742 8.40625H8.77344V10.0099H10.1092V8.80805C10.1057 8.586 9.92594 8.40625 9.70742 8.40625Z" stroke="#BB2DD1" stroke-width="0.528673" stroke-miterlimit="10" stroke-linecap="round" stroke-linejoin="round"/>
<path d="M7.04526 11.6271H9.15996C10.9222 11.6271 11.6271 10.9222 11.6271 9.15996V7.04526C11.6271 5.28302 10.9222 4.57812 9.15996 4.57812H7.04526C5.28302 4.57812 4.57812 5.28302 4.57812 7.04526V9.15996C4.57812 10.9222 5.28302 11.6271 7.04526 11.6271Z" stroke="#BB2DD1" stroke-width="0.528673" stroke-linecap="round" stroke-linejoin="round"/>
</svg>
