<svg id="Page-1" xmlns="http://www.w3.org/2000/svg" width="11.458" height="11.458" viewBox="0 0 11.458 11.458">
  <g id="Asset-1">
    <g id="Lager_2">
      <path id="Shape" d="M10.749,7.161h-.014a.709.709,0,0,0-.709.709v1.8a.358.358,0,0,1-.358.358H1.79a.358.358,0,0,1-.358-.358V1.79a.358.358,0,0,1,.358-.358H5.02A.709.709,0,0,0,5.729.723V.709A.709.709,0,0,0,5.02,0H.709A.709.709,0,0,0,0,.709v10.04a.709.709,0,0,0,.709.709h10.04a.709.709,0,0,0,.709-.709l-.007-.007h.007V7.87A.709.709,0,0,0,10.749,7.161Z" fill="#fff"/>
      <path id="Shape-2" data-name="Shape" d="M14.1,2.046A6.641,6.641,0,0,0,9.44,4.037,5.523,5.523,0,0,0,8.055,7.385a.761.761,0,0,0,.756.845l.036,0a.7.7,0,0,0,.62-.647,4.362,4.362,0,0,1,1.049-2.6,5.246,5.246,0,0,1,3.6-1.5v.1H14.1l-.015.1-.825.833a.722.722,0,0,0,0,1.014.705.705,0,0,0,1,0L16.417,3.35a.722.722,0,0,0,0-1.015L14.269.21a.705.705,0,0,0-1,0,.722.722,0,0,0,0,1.015l.835.82Z" transform="translate(-5.167 0)" fill="#fff"/>
    </g>
  </g>
</svg>
